%TF.GenerationSoftware,KiCad,Pcbnew,(6.0.1)*%
%TF.CreationDate,2023-02-17T13:15:31+03:00*%
%TF.ProjectId,_______ IGBT,14403039-3235-4402-9049-4742542e6b69,rev?*%
%TF.SameCoordinates,Original*%
%TF.FileFunction,Legend,Top*%
%TF.FilePolarity,Positive*%
%FSLAX46Y46*%
G04 Gerber Fmt 4.6, Leading zero omitted, Abs format (unit mm)*
G04 Created by KiCad (PCBNEW (6.0.1)) date 2023-02-17 13:15:31*
%MOMM*%
%LPD*%
G01*
G04 APERTURE LIST*
%ADD10C,0.150000*%
%ADD11C,0.300000*%
%ADD12C,0.120000*%
G04 APERTURE END LIST*
D10*
%TO.C,R22*%
X171366442Y-67330980D02*
X171033109Y-66854790D01*
X170795014Y-67330980D02*
X170795014Y-66330980D01*
X171175966Y-66330980D01*
X171271204Y-66378600D01*
X171318823Y-66426219D01*
X171366442Y-66521457D01*
X171366442Y-66664314D01*
X171318823Y-66759552D01*
X171271204Y-66807171D01*
X171175966Y-66854790D01*
X170795014Y-66854790D01*
X171747395Y-66426219D02*
X171795014Y-66378600D01*
X171890252Y-66330980D01*
X172128347Y-66330980D01*
X172223585Y-66378600D01*
X172271204Y-66426219D01*
X172318823Y-66521457D01*
X172318823Y-66616695D01*
X172271204Y-66759552D01*
X171699776Y-67330980D01*
X172318823Y-67330980D01*
X172699776Y-66426219D02*
X172747395Y-66378600D01*
X172842633Y-66330980D01*
X173080728Y-66330980D01*
X173175966Y-66378600D01*
X173223585Y-66426219D01*
X173271204Y-66521457D01*
X173271204Y-66616695D01*
X173223585Y-66759552D01*
X172652157Y-67330980D01*
X173271204Y-67330980D01*
%TO.C,R21*%
X173766442Y-61930980D02*
X173433109Y-61454790D01*
X173195014Y-61930980D02*
X173195014Y-60930980D01*
X173575966Y-60930980D01*
X173671204Y-60978600D01*
X173718823Y-61026219D01*
X173766442Y-61121457D01*
X173766442Y-61264314D01*
X173718823Y-61359552D01*
X173671204Y-61407171D01*
X173575966Y-61454790D01*
X173195014Y-61454790D01*
X174147395Y-61026219D02*
X174195014Y-60978600D01*
X174290252Y-60930980D01*
X174528347Y-60930980D01*
X174623585Y-60978600D01*
X174671204Y-61026219D01*
X174718823Y-61121457D01*
X174718823Y-61216695D01*
X174671204Y-61359552D01*
X174099776Y-61930980D01*
X174718823Y-61930980D01*
X175671204Y-61930980D02*
X175099776Y-61930980D01*
X175385490Y-61930980D02*
X175385490Y-60930980D01*
X175290252Y-61073838D01*
X175195014Y-61169076D01*
X175099776Y-61216695D01*
%TO.C,R19*%
X202566442Y-74330980D02*
X202233109Y-73854790D01*
X201995014Y-74330980D02*
X201995014Y-73330980D01*
X202375966Y-73330980D01*
X202471204Y-73378600D01*
X202518823Y-73426219D01*
X202566442Y-73521457D01*
X202566442Y-73664314D01*
X202518823Y-73759552D01*
X202471204Y-73807171D01*
X202375966Y-73854790D01*
X201995014Y-73854790D01*
X203518823Y-74330980D02*
X202947395Y-74330980D01*
X203233109Y-74330980D02*
X203233109Y-73330980D01*
X203137871Y-73473838D01*
X203042633Y-73569076D01*
X202947395Y-73616695D01*
X203995014Y-74330980D02*
X204185490Y-74330980D01*
X204280728Y-74283361D01*
X204328347Y-74235742D01*
X204423585Y-74092885D01*
X204471204Y-73902409D01*
X204471204Y-73521457D01*
X204423585Y-73426219D01*
X204375966Y-73378600D01*
X204280728Y-73330980D01*
X204090252Y-73330980D01*
X203995014Y-73378600D01*
X203947395Y-73426219D01*
X203899776Y-73521457D01*
X203899776Y-73759552D01*
X203947395Y-73854790D01*
X203995014Y-73902409D01*
X204090252Y-73950028D01*
X204280728Y-73950028D01*
X204375966Y-73902409D01*
X204423585Y-73854790D01*
X204471204Y-73759552D01*
%TO.C,R18*%
X202566442Y-78530980D02*
X202233109Y-78054790D01*
X201995014Y-78530980D02*
X201995014Y-77530980D01*
X202375966Y-77530980D01*
X202471204Y-77578600D01*
X202518823Y-77626219D01*
X202566442Y-77721457D01*
X202566442Y-77864314D01*
X202518823Y-77959552D01*
X202471204Y-78007171D01*
X202375966Y-78054790D01*
X201995014Y-78054790D01*
X203518823Y-78530980D02*
X202947395Y-78530980D01*
X203233109Y-78530980D02*
X203233109Y-77530980D01*
X203137871Y-77673838D01*
X203042633Y-77769076D01*
X202947395Y-77816695D01*
X204090252Y-77959552D02*
X203995014Y-77911933D01*
X203947395Y-77864314D01*
X203899776Y-77769076D01*
X203899776Y-77721457D01*
X203947395Y-77626219D01*
X203995014Y-77578600D01*
X204090252Y-77530980D01*
X204280728Y-77530980D01*
X204375966Y-77578600D01*
X204423585Y-77626219D01*
X204471204Y-77721457D01*
X204471204Y-77769076D01*
X204423585Y-77864314D01*
X204375966Y-77911933D01*
X204280728Y-77959552D01*
X204090252Y-77959552D01*
X203995014Y-78007171D01*
X203947395Y-78054790D01*
X203899776Y-78150028D01*
X203899776Y-78340504D01*
X203947395Y-78435742D01*
X203995014Y-78483361D01*
X204090252Y-78530980D01*
X204280728Y-78530980D01*
X204375966Y-78483361D01*
X204423585Y-78435742D01*
X204471204Y-78340504D01*
X204471204Y-78150028D01*
X204423585Y-78054790D01*
X204375966Y-78007171D01*
X204280728Y-77959552D01*
%TO.C,R17*%
X197766442Y-71730980D02*
X197433109Y-71254790D01*
X197195014Y-71730980D02*
X197195014Y-70730980D01*
X197575966Y-70730980D01*
X197671204Y-70778600D01*
X197718823Y-70826219D01*
X197766442Y-70921457D01*
X197766442Y-71064314D01*
X197718823Y-71159552D01*
X197671204Y-71207171D01*
X197575966Y-71254790D01*
X197195014Y-71254790D01*
X198718823Y-71730980D02*
X198147395Y-71730980D01*
X198433109Y-71730980D02*
X198433109Y-70730980D01*
X198337871Y-70873838D01*
X198242633Y-70969076D01*
X198147395Y-71016695D01*
X199052157Y-70730980D02*
X199718823Y-70730980D01*
X199290252Y-71730980D01*
%TO.C,C1*%
X114103633Y-103335242D02*
X114056014Y-103382861D01*
X113913157Y-103430480D01*
X113817919Y-103430480D01*
X113675061Y-103382861D01*
X113579823Y-103287623D01*
X113532204Y-103192385D01*
X113484585Y-103001909D01*
X113484585Y-102859052D01*
X113532204Y-102668576D01*
X113579823Y-102573338D01*
X113675061Y-102478100D01*
X113817919Y-102430480D01*
X113913157Y-102430480D01*
X114056014Y-102478100D01*
X114103633Y-102525719D01*
X115056014Y-103430480D02*
X114484585Y-103430480D01*
X114770300Y-103430480D02*
X114770300Y-102430480D01*
X114675061Y-102573338D01*
X114579823Y-102668576D01*
X114484585Y-102716195D01*
%TO.C,C2*%
X139125633Y-78604242D02*
X139078014Y-78651861D01*
X138935157Y-78699480D01*
X138839919Y-78699480D01*
X138697061Y-78651861D01*
X138601823Y-78556623D01*
X138554204Y-78461385D01*
X138506585Y-78270909D01*
X138506585Y-78128052D01*
X138554204Y-77937576D01*
X138601823Y-77842338D01*
X138697061Y-77747100D01*
X138839919Y-77699480D01*
X138935157Y-77699480D01*
X139078014Y-77747100D01*
X139125633Y-77794719D01*
X139506585Y-77794719D02*
X139554204Y-77747100D01*
X139649442Y-77699480D01*
X139887538Y-77699480D01*
X139982776Y-77747100D01*
X140030395Y-77794719D01*
X140078014Y-77889957D01*
X140078014Y-77985195D01*
X140030395Y-78128052D01*
X139458966Y-78699480D01*
X140078014Y-78699480D01*
%TO.C,C3*%
X168042633Y-65035742D02*
X167995014Y-65083361D01*
X167852157Y-65130980D01*
X167756919Y-65130980D01*
X167614061Y-65083361D01*
X167518823Y-64988123D01*
X167471204Y-64892885D01*
X167423585Y-64702409D01*
X167423585Y-64559552D01*
X167471204Y-64369076D01*
X167518823Y-64273838D01*
X167614061Y-64178600D01*
X167756919Y-64130980D01*
X167852157Y-64130980D01*
X167995014Y-64178600D01*
X168042633Y-64226219D01*
X168375966Y-64130980D02*
X168995014Y-64130980D01*
X168661680Y-64511933D01*
X168804538Y-64511933D01*
X168899776Y-64559552D01*
X168947395Y-64607171D01*
X168995014Y-64702409D01*
X168995014Y-64940504D01*
X168947395Y-65035742D01*
X168899776Y-65083361D01*
X168804538Y-65130980D01*
X168518823Y-65130980D01*
X168423585Y-65083361D01*
X168375966Y-65035742D01*
%TO.C,C6*%
X138998633Y-87684742D02*
X138951014Y-87732361D01*
X138808157Y-87779980D01*
X138712919Y-87779980D01*
X138570061Y-87732361D01*
X138474823Y-87637123D01*
X138427204Y-87541885D01*
X138379585Y-87351409D01*
X138379585Y-87208552D01*
X138427204Y-87018076D01*
X138474823Y-86922838D01*
X138570061Y-86827600D01*
X138712919Y-86779980D01*
X138808157Y-86779980D01*
X138951014Y-86827600D01*
X138998633Y-86875219D01*
X139855776Y-86779980D02*
X139665300Y-86779980D01*
X139570061Y-86827600D01*
X139522442Y-86875219D01*
X139427204Y-87018076D01*
X139379585Y-87208552D01*
X139379585Y-87589504D01*
X139427204Y-87684742D01*
X139474823Y-87732361D01*
X139570061Y-87779980D01*
X139760538Y-87779980D01*
X139855776Y-87732361D01*
X139903395Y-87684742D01*
X139951014Y-87589504D01*
X139951014Y-87351409D01*
X139903395Y-87256171D01*
X139855776Y-87208552D01*
X139760538Y-87160933D01*
X139570061Y-87160933D01*
X139474823Y-87208552D01*
X139427204Y-87256171D01*
X139379585Y-87351409D01*
%TO.C,C7*%
X162239633Y-80191742D02*
X162192014Y-80239361D01*
X162049157Y-80286980D01*
X161953919Y-80286980D01*
X161811061Y-80239361D01*
X161715823Y-80144123D01*
X161668204Y-80048885D01*
X161620585Y-79858409D01*
X161620585Y-79715552D01*
X161668204Y-79525076D01*
X161715823Y-79429838D01*
X161811061Y-79334600D01*
X161953919Y-79286980D01*
X162049157Y-79286980D01*
X162192014Y-79334600D01*
X162239633Y-79382219D01*
X162572966Y-79286980D02*
X163239633Y-79286980D01*
X162811061Y-80286980D01*
%TO.C,C9*%
X170748633Y-100892742D02*
X170701014Y-100940361D01*
X170558157Y-100987980D01*
X170462919Y-100987980D01*
X170320061Y-100940361D01*
X170224823Y-100845123D01*
X170177204Y-100749885D01*
X170129585Y-100559409D01*
X170129585Y-100416552D01*
X170177204Y-100226076D01*
X170224823Y-100130838D01*
X170320061Y-100035600D01*
X170462919Y-99987980D01*
X170558157Y-99987980D01*
X170701014Y-100035600D01*
X170748633Y-100083219D01*
X171224823Y-100987980D02*
X171415300Y-100987980D01*
X171510538Y-100940361D01*
X171558157Y-100892742D01*
X171653395Y-100749885D01*
X171701014Y-100559409D01*
X171701014Y-100178457D01*
X171653395Y-100083219D01*
X171605776Y-100035600D01*
X171510538Y-99987980D01*
X171320061Y-99987980D01*
X171224823Y-100035600D01*
X171177204Y-100083219D01*
X171129585Y-100178457D01*
X171129585Y-100416552D01*
X171177204Y-100511790D01*
X171224823Y-100559409D01*
X171320061Y-100607028D01*
X171510538Y-100607028D01*
X171605776Y-100559409D01*
X171653395Y-100511790D01*
X171701014Y-100416552D01*
%TO.C,C10*%
X172812442Y-100892742D02*
X172764823Y-100940361D01*
X172621966Y-100987980D01*
X172526728Y-100987980D01*
X172383871Y-100940361D01*
X172288633Y-100845123D01*
X172241014Y-100749885D01*
X172193395Y-100559409D01*
X172193395Y-100416552D01*
X172241014Y-100226076D01*
X172288633Y-100130838D01*
X172383871Y-100035600D01*
X172526728Y-99987980D01*
X172621966Y-99987980D01*
X172764823Y-100035600D01*
X172812442Y-100083219D01*
X173764823Y-100987980D02*
X173193395Y-100987980D01*
X173479109Y-100987980D02*
X173479109Y-99987980D01*
X173383871Y-100130838D01*
X173288633Y-100226076D01*
X173193395Y-100273695D01*
X174383871Y-99987980D02*
X174479109Y-99987980D01*
X174574347Y-100035600D01*
X174621966Y-100083219D01*
X174669585Y-100178457D01*
X174717204Y-100368933D01*
X174717204Y-100607028D01*
X174669585Y-100797504D01*
X174621966Y-100892742D01*
X174574347Y-100940361D01*
X174479109Y-100987980D01*
X174383871Y-100987980D01*
X174288633Y-100940361D01*
X174241014Y-100892742D01*
X174193395Y-100797504D01*
X174145776Y-100607028D01*
X174145776Y-100368933D01*
X174193395Y-100178457D01*
X174241014Y-100083219D01*
X174288633Y-100035600D01*
X174383871Y-99987980D01*
%TO.C,C17*%
X154333942Y-77016742D02*
X154286323Y-77064361D01*
X154143466Y-77111980D01*
X154048228Y-77111980D01*
X153905371Y-77064361D01*
X153810133Y-76969123D01*
X153762514Y-76873885D01*
X153714895Y-76683409D01*
X153714895Y-76540552D01*
X153762514Y-76350076D01*
X153810133Y-76254838D01*
X153905371Y-76159600D01*
X154048228Y-76111980D01*
X154143466Y-76111980D01*
X154286323Y-76159600D01*
X154333942Y-76207219D01*
X155286323Y-77111980D02*
X154714895Y-77111980D01*
X155000609Y-77111980D02*
X155000609Y-76111980D01*
X154905371Y-76254838D01*
X154810133Y-76350076D01*
X154714895Y-76397695D01*
X155619657Y-76111980D02*
X156286323Y-76111980D01*
X155857752Y-77111980D01*
%TO.C,C18*%
X155857942Y-82223742D02*
X155810323Y-82271361D01*
X155667466Y-82318980D01*
X155572228Y-82318980D01*
X155429371Y-82271361D01*
X155334133Y-82176123D01*
X155286514Y-82080885D01*
X155238895Y-81890409D01*
X155238895Y-81747552D01*
X155286514Y-81557076D01*
X155334133Y-81461838D01*
X155429371Y-81366600D01*
X155572228Y-81318980D01*
X155667466Y-81318980D01*
X155810323Y-81366600D01*
X155857942Y-81414219D01*
X156810323Y-82318980D02*
X156238895Y-82318980D01*
X156524609Y-82318980D02*
X156524609Y-81318980D01*
X156429371Y-81461838D01*
X156334133Y-81557076D01*
X156238895Y-81604695D01*
X157381752Y-81747552D02*
X157286514Y-81699933D01*
X157238895Y-81652314D01*
X157191276Y-81557076D01*
X157191276Y-81509457D01*
X157238895Y-81414219D01*
X157286514Y-81366600D01*
X157381752Y-81318980D01*
X157572228Y-81318980D01*
X157667466Y-81366600D01*
X157715085Y-81414219D01*
X157762704Y-81509457D01*
X157762704Y-81557076D01*
X157715085Y-81652314D01*
X157667466Y-81699933D01*
X157572228Y-81747552D01*
X157381752Y-81747552D01*
X157286514Y-81795171D01*
X157238895Y-81842790D01*
X157191276Y-81938028D01*
X157191276Y-82128504D01*
X157238895Y-82223742D01*
X157286514Y-82271361D01*
X157381752Y-82318980D01*
X157572228Y-82318980D01*
X157667466Y-82271361D01*
X157715085Y-82223742D01*
X157762704Y-82128504D01*
X157762704Y-81938028D01*
X157715085Y-81842790D01*
X157667466Y-81795171D01*
X157572228Y-81747552D01*
%TO.C,D2*%
X170071204Y-85730980D02*
X170071204Y-84730980D01*
X170309300Y-84730980D01*
X170452157Y-84778600D01*
X170547395Y-84873838D01*
X170595014Y-84969076D01*
X170642633Y-85159552D01*
X170642633Y-85302409D01*
X170595014Y-85492885D01*
X170547395Y-85588123D01*
X170452157Y-85683361D01*
X170309300Y-85730980D01*
X170071204Y-85730980D01*
X171023585Y-84826219D02*
X171071204Y-84778600D01*
X171166442Y-84730980D01*
X171404538Y-84730980D01*
X171499776Y-84778600D01*
X171547395Y-84826219D01*
X171595014Y-84921457D01*
X171595014Y-85016695D01*
X171547395Y-85159552D01*
X170975966Y-85730980D01*
X171595014Y-85730980D01*
%TO.C,D4*%
X174622204Y-94002980D02*
X174622204Y-93002980D01*
X174860300Y-93002980D01*
X175003157Y-93050600D01*
X175098395Y-93145838D01*
X175146014Y-93241076D01*
X175193633Y-93431552D01*
X175193633Y-93574409D01*
X175146014Y-93764885D01*
X175098395Y-93860123D01*
X175003157Y-93955361D01*
X174860300Y-94002980D01*
X174622204Y-94002980D01*
X176050776Y-93336314D02*
X176050776Y-94002980D01*
X175812680Y-92955361D02*
X175574585Y-93669647D01*
X176193633Y-93669647D01*
%TO.C,D5*%
X181226204Y-108226980D02*
X181226204Y-107226980D01*
X181464300Y-107226980D01*
X181607157Y-107274600D01*
X181702395Y-107369838D01*
X181750014Y-107465076D01*
X181797633Y-107655552D01*
X181797633Y-107798409D01*
X181750014Y-107988885D01*
X181702395Y-108084123D01*
X181607157Y-108179361D01*
X181464300Y-108226980D01*
X181226204Y-108226980D01*
X182702395Y-107226980D02*
X182226204Y-107226980D01*
X182178585Y-107703171D01*
X182226204Y-107655552D01*
X182321442Y-107607933D01*
X182559538Y-107607933D01*
X182654776Y-107655552D01*
X182702395Y-107703171D01*
X182750014Y-107798409D01*
X182750014Y-108036504D01*
X182702395Y-108131742D01*
X182654776Y-108179361D01*
X182559538Y-108226980D01*
X182321442Y-108226980D01*
X182226204Y-108179361D01*
X182178585Y-108131742D01*
%TO.C,Q1*%
X164597061Y-118291719D02*
X164501823Y-118244100D01*
X164406585Y-118148861D01*
X164263728Y-118006004D01*
X164168490Y-117958385D01*
X164073252Y-117958385D01*
X164120871Y-118196480D02*
X164025633Y-118148861D01*
X163930395Y-118053623D01*
X163882776Y-117863147D01*
X163882776Y-117529814D01*
X163930395Y-117339338D01*
X164025633Y-117244100D01*
X164120871Y-117196480D01*
X164311347Y-117196480D01*
X164406585Y-117244100D01*
X164501823Y-117339338D01*
X164549442Y-117529814D01*
X164549442Y-117863147D01*
X164501823Y-118053623D01*
X164406585Y-118148861D01*
X164311347Y-118196480D01*
X164120871Y-118196480D01*
X165501823Y-118196480D02*
X164930395Y-118196480D01*
X165216109Y-118196480D02*
X165216109Y-117196480D01*
X165120871Y-117339338D01*
X165025633Y-117434576D01*
X164930395Y-117482195D01*
X162739847Y-119847480D02*
X162739847Y-118847480D01*
X163739847Y-118895100D02*
X163644609Y-118847480D01*
X163501752Y-118847480D01*
X163358895Y-118895100D01*
X163263657Y-118990338D01*
X163216038Y-119085576D01*
X163168419Y-119276052D01*
X163168419Y-119418909D01*
X163216038Y-119609385D01*
X163263657Y-119704623D01*
X163358895Y-119799861D01*
X163501752Y-119847480D01*
X163596990Y-119847480D01*
X163739847Y-119799861D01*
X163787466Y-119752242D01*
X163787466Y-119418909D01*
X163596990Y-119418909D01*
X164549371Y-119323671D02*
X164692228Y-119371290D01*
X164739847Y-119418909D01*
X164787466Y-119514147D01*
X164787466Y-119657004D01*
X164739847Y-119752242D01*
X164692228Y-119799861D01*
X164596990Y-119847480D01*
X164216038Y-119847480D01*
X164216038Y-118847480D01*
X164549371Y-118847480D01*
X164644609Y-118895100D01*
X164692228Y-118942719D01*
X164739847Y-119037957D01*
X164739847Y-119133195D01*
X164692228Y-119228433D01*
X164644609Y-119276052D01*
X164549371Y-119323671D01*
X164216038Y-119323671D01*
X165073180Y-118847480D02*
X165644609Y-118847480D01*
X165358895Y-119847480D02*
X165358895Y-118847480D01*
%TO.C,R1*%
X160271133Y-76603980D02*
X159937800Y-76127790D01*
X159699704Y-76603980D02*
X159699704Y-75603980D01*
X160080657Y-75603980D01*
X160175895Y-75651600D01*
X160223514Y-75699219D01*
X160271133Y-75794457D01*
X160271133Y-75937314D01*
X160223514Y-76032552D01*
X160175895Y-76080171D01*
X160080657Y-76127790D01*
X159699704Y-76127790D01*
X161223514Y-76603980D02*
X160652085Y-76603980D01*
X160937800Y-76603980D02*
X160937800Y-75603980D01*
X160842561Y-75746838D01*
X160747323Y-75842076D01*
X160652085Y-75889695D01*
%TO.C,R2*%
X157477133Y-116799480D02*
X157143800Y-116323290D01*
X156905704Y-116799480D02*
X156905704Y-115799480D01*
X157286657Y-115799480D01*
X157381895Y-115847100D01*
X157429514Y-115894719D01*
X157477133Y-115989957D01*
X157477133Y-116132814D01*
X157429514Y-116228052D01*
X157381895Y-116275671D01*
X157286657Y-116323290D01*
X156905704Y-116323290D01*
X157858085Y-115894719D02*
X157905704Y-115847100D01*
X158000942Y-115799480D01*
X158239038Y-115799480D01*
X158334276Y-115847100D01*
X158381895Y-115894719D01*
X158429514Y-115989957D01*
X158429514Y-116085195D01*
X158381895Y-116228052D01*
X157810466Y-116799480D01*
X158429514Y-116799480D01*
%TO.C,R4*%
X158302633Y-97050980D02*
X157969300Y-96574790D01*
X157731204Y-97050980D02*
X157731204Y-96050980D01*
X158112157Y-96050980D01*
X158207395Y-96098600D01*
X158255014Y-96146219D01*
X158302633Y-96241457D01*
X158302633Y-96384314D01*
X158255014Y-96479552D01*
X158207395Y-96527171D01*
X158112157Y-96574790D01*
X157731204Y-96574790D01*
X159159776Y-96384314D02*
X159159776Y-97050980D01*
X158921680Y-96003361D02*
X158683585Y-96717647D01*
X159302633Y-96717647D01*
%TO.C,R5*%
X166557633Y-100860980D02*
X166224300Y-100384790D01*
X165986204Y-100860980D02*
X165986204Y-99860980D01*
X166367157Y-99860980D01*
X166462395Y-99908600D01*
X166510014Y-99956219D01*
X166557633Y-100051457D01*
X166557633Y-100194314D01*
X166510014Y-100289552D01*
X166462395Y-100337171D01*
X166367157Y-100384790D01*
X165986204Y-100384790D01*
X167462395Y-99860980D02*
X166986204Y-99860980D01*
X166938585Y-100337171D01*
X166986204Y-100289552D01*
X167081442Y-100241933D01*
X167319538Y-100241933D01*
X167414776Y-100289552D01*
X167462395Y-100337171D01*
X167510014Y-100432409D01*
X167510014Y-100670504D01*
X167462395Y-100765742D01*
X167414776Y-100813361D01*
X167319538Y-100860980D01*
X167081442Y-100860980D01*
X166986204Y-100813361D01*
X166938585Y-100765742D01*
%TO.C,R6*%
X163382633Y-100860980D02*
X163049300Y-100384790D01*
X162811204Y-100860980D02*
X162811204Y-99860980D01*
X163192157Y-99860980D01*
X163287395Y-99908600D01*
X163335014Y-99956219D01*
X163382633Y-100051457D01*
X163382633Y-100194314D01*
X163335014Y-100289552D01*
X163287395Y-100337171D01*
X163192157Y-100384790D01*
X162811204Y-100384790D01*
X164239776Y-99860980D02*
X164049300Y-99860980D01*
X163954061Y-99908600D01*
X163906442Y-99956219D01*
X163811204Y-100099076D01*
X163763585Y-100289552D01*
X163763585Y-100670504D01*
X163811204Y-100765742D01*
X163858823Y-100813361D01*
X163954061Y-100860980D01*
X164144538Y-100860980D01*
X164239776Y-100813361D01*
X164287395Y-100765742D01*
X164335014Y-100670504D01*
X164335014Y-100432409D01*
X164287395Y-100337171D01*
X164239776Y-100289552D01*
X164144538Y-100241933D01*
X163954061Y-100241933D01*
X163858823Y-100289552D01*
X163811204Y-100337171D01*
X163763585Y-100432409D01*
%TO.C,R7*%
X165510133Y-73952980D02*
X165510133Y-74667266D01*
X165462514Y-74810123D01*
X165367276Y-74905361D01*
X165224419Y-74952980D01*
X165129180Y-74952980D01*
X166414895Y-74286314D02*
X166414895Y-74952980D01*
X165986323Y-74286314D02*
X165986323Y-74810123D01*
X166033942Y-74905361D01*
X166129180Y-74952980D01*
X166272038Y-74952980D01*
X166367276Y-74905361D01*
X166414895Y-74857742D01*
X166891085Y-74952980D02*
X166891085Y-74286314D01*
X166891085Y-74381552D02*
X166938704Y-74333933D01*
X167033942Y-74286314D01*
X167176800Y-74286314D01*
X167272038Y-74333933D01*
X167319657Y-74429171D01*
X167319657Y-74952980D01*
X167319657Y-74429171D02*
X167367276Y-74333933D01*
X167462514Y-74286314D01*
X167605371Y-74286314D01*
X167700609Y-74333933D01*
X167748228Y-74429171D01*
X167748228Y-74952980D01*
X168224419Y-74286314D02*
X168224419Y-75286314D01*
X168224419Y-74333933D02*
X168319657Y-74286314D01*
X168510133Y-74286314D01*
X168605371Y-74333933D01*
X168652990Y-74381552D01*
X168700609Y-74476790D01*
X168700609Y-74762504D01*
X168652990Y-74857742D01*
X168605371Y-74905361D01*
X168510133Y-74952980D01*
X168319657Y-74952980D01*
X168224419Y-74905361D01*
X169510133Y-74905361D02*
X169414895Y-74952980D01*
X169224419Y-74952980D01*
X169129180Y-74905361D01*
X169081561Y-74810123D01*
X169081561Y-74429171D01*
X169129180Y-74333933D01*
X169224419Y-74286314D01*
X169414895Y-74286314D01*
X169510133Y-74333933D01*
X169557752Y-74429171D01*
X169557752Y-74524409D01*
X169081561Y-74619647D01*
X169986323Y-74952980D02*
X169986323Y-74286314D01*
X169986323Y-74476790D02*
X170033942Y-74381552D01*
X170081561Y-74333933D01*
X170176800Y-74286314D01*
X170272038Y-74286314D01*
%TO.C,C4*%
X150365133Y-109655742D02*
X150317514Y-109703361D01*
X150174657Y-109750980D01*
X150079419Y-109750980D01*
X149936561Y-109703361D01*
X149841323Y-109608123D01*
X149793704Y-109512885D01*
X149746085Y-109322409D01*
X149746085Y-109179552D01*
X149793704Y-108989076D01*
X149841323Y-108893838D01*
X149936561Y-108798600D01*
X150079419Y-108750980D01*
X150174657Y-108750980D01*
X150317514Y-108798600D01*
X150365133Y-108846219D01*
X151222276Y-109084314D02*
X151222276Y-109750980D01*
X150984180Y-108703361D02*
X150746085Y-109417647D01*
X151365133Y-109417647D01*
%TO.C,C5*%
X132267633Y-109655742D02*
X132220014Y-109703361D01*
X132077157Y-109750980D01*
X131981919Y-109750980D01*
X131839061Y-109703361D01*
X131743823Y-109608123D01*
X131696204Y-109512885D01*
X131648585Y-109322409D01*
X131648585Y-109179552D01*
X131696204Y-108989076D01*
X131743823Y-108893838D01*
X131839061Y-108798600D01*
X131981919Y-108750980D01*
X132077157Y-108750980D01*
X132220014Y-108798600D01*
X132267633Y-108846219D01*
X133172395Y-108750980D02*
X132696204Y-108750980D01*
X132648585Y-109227171D01*
X132696204Y-109179552D01*
X132791442Y-109131933D01*
X133029538Y-109131933D01*
X133124776Y-109179552D01*
X133172395Y-109227171D01*
X133220014Y-109322409D01*
X133220014Y-109560504D01*
X133172395Y-109655742D01*
X133124776Y-109703361D01*
X133029538Y-109750980D01*
X132791442Y-109750980D01*
X132696204Y-109703361D01*
X132648585Y-109655742D01*
%TO.C,C8*%
X150238133Y-116005742D02*
X150190514Y-116053361D01*
X150047657Y-116100980D01*
X149952419Y-116100980D01*
X149809561Y-116053361D01*
X149714323Y-115958123D01*
X149666704Y-115862885D01*
X149619085Y-115672409D01*
X149619085Y-115529552D01*
X149666704Y-115339076D01*
X149714323Y-115243838D01*
X149809561Y-115148600D01*
X149952419Y-115100980D01*
X150047657Y-115100980D01*
X150190514Y-115148600D01*
X150238133Y-115196219D01*
X150809561Y-115529552D02*
X150714323Y-115481933D01*
X150666704Y-115434314D01*
X150619085Y-115339076D01*
X150619085Y-115291457D01*
X150666704Y-115196219D01*
X150714323Y-115148600D01*
X150809561Y-115100980D01*
X151000038Y-115100980D01*
X151095276Y-115148600D01*
X151142895Y-115196219D01*
X151190514Y-115291457D01*
X151190514Y-115339076D01*
X151142895Y-115434314D01*
X151095276Y-115481933D01*
X151000038Y-115529552D01*
X150809561Y-115529552D01*
X150714323Y-115577171D01*
X150666704Y-115624790D01*
X150619085Y-115720028D01*
X150619085Y-115910504D01*
X150666704Y-116005742D01*
X150714323Y-116053361D01*
X150809561Y-116100980D01*
X151000038Y-116100980D01*
X151095276Y-116053361D01*
X151142895Y-116005742D01*
X151190514Y-115910504D01*
X151190514Y-115720028D01*
X151142895Y-115624790D01*
X151095276Y-115577171D01*
X151000038Y-115529552D01*
%TO.C,C11*%
X138141442Y-109655742D02*
X138093823Y-109703361D01*
X137950966Y-109750980D01*
X137855728Y-109750980D01*
X137712871Y-109703361D01*
X137617633Y-109608123D01*
X137570014Y-109512885D01*
X137522395Y-109322409D01*
X137522395Y-109179552D01*
X137570014Y-108989076D01*
X137617633Y-108893838D01*
X137712871Y-108798600D01*
X137855728Y-108750980D01*
X137950966Y-108750980D01*
X138093823Y-108798600D01*
X138141442Y-108846219D01*
X139093823Y-109750980D02*
X138522395Y-109750980D01*
X138808109Y-109750980D02*
X138808109Y-108750980D01*
X138712871Y-108893838D01*
X138617633Y-108989076D01*
X138522395Y-109036695D01*
X140046204Y-109750980D02*
X139474776Y-109750980D01*
X139760490Y-109750980D02*
X139760490Y-108750980D01*
X139665252Y-108893838D01*
X139570014Y-108989076D01*
X139474776Y-109036695D01*
%TO.C,J3*%
X145499466Y-63729480D02*
X145499466Y-64443766D01*
X145451847Y-64586623D01*
X145356609Y-64681861D01*
X145213752Y-64729480D01*
X145118514Y-64729480D01*
X145880419Y-63729480D02*
X146499466Y-63729480D01*
X146166133Y-64110433D01*
X146308990Y-64110433D01*
X146404228Y-64158052D01*
X146451847Y-64205671D01*
X146499466Y-64300909D01*
X146499466Y-64539004D01*
X146451847Y-64634242D01*
X146404228Y-64681861D01*
X146308990Y-64729480D01*
X146023276Y-64729480D01*
X145928038Y-64681861D01*
X145880419Y-64634242D01*
X150326180Y-73714742D02*
X150278561Y-73762361D01*
X150135704Y-73809980D01*
X150040466Y-73809980D01*
X149897609Y-73762361D01*
X149802371Y-73667123D01*
X149754752Y-73571885D01*
X149707133Y-73381409D01*
X149707133Y-73238552D01*
X149754752Y-73048076D01*
X149802371Y-72952838D01*
X149897609Y-72857600D01*
X150040466Y-72809980D01*
X150135704Y-72809980D01*
X150278561Y-72857600D01*
X150326180Y-72905219D01*
X150897609Y-73809980D02*
X150802371Y-73762361D01*
X150754752Y-73714742D01*
X150707133Y-73619504D01*
X150707133Y-73333790D01*
X150754752Y-73238552D01*
X150802371Y-73190933D01*
X150897609Y-73143314D01*
X151040466Y-73143314D01*
X151135704Y-73190933D01*
X151183323Y-73238552D01*
X151230942Y-73333790D01*
X151230942Y-73619504D01*
X151183323Y-73714742D01*
X151135704Y-73762361D01*
X151040466Y-73809980D01*
X150897609Y-73809980D01*
X151659514Y-73143314D02*
X151659514Y-73809980D01*
X151659514Y-73238552D02*
X151707133Y-73190933D01*
X151802371Y-73143314D01*
X151945228Y-73143314D01*
X152040466Y-73190933D01*
X152088085Y-73286171D01*
X152088085Y-73809980D01*
X152421419Y-73143314D02*
X152802371Y-73143314D01*
X152564276Y-72809980D02*
X152564276Y-73667123D01*
X152611895Y-73762361D01*
X152707133Y-73809980D01*
X152802371Y-73809980D01*
X153135704Y-73809980D02*
X153135704Y-73143314D01*
X153135704Y-73333790D02*
X153183323Y-73238552D01*
X153230942Y-73190933D01*
X153326180Y-73143314D01*
X153421419Y-73143314D01*
X153897609Y-73809980D02*
X153802371Y-73762361D01*
X153754752Y-73714742D01*
X153707133Y-73619504D01*
X153707133Y-73333790D01*
X153754752Y-73238552D01*
X153802371Y-73190933D01*
X153897609Y-73143314D01*
X154040466Y-73143314D01*
X154135704Y-73190933D01*
X154183323Y-73238552D01*
X154230942Y-73333790D01*
X154230942Y-73619504D01*
X154183323Y-73714742D01*
X154135704Y-73762361D01*
X154040466Y-73809980D01*
X153897609Y-73809980D01*
X154802371Y-73809980D02*
X154707133Y-73762361D01*
X154659514Y-73667123D01*
X154659514Y-72809980D01*
X156516657Y-73714742D02*
X156469038Y-73762361D01*
X156326180Y-73809980D01*
X156230942Y-73809980D01*
X156088085Y-73762361D01*
X155992847Y-73667123D01*
X155945228Y-73571885D01*
X155897609Y-73381409D01*
X155897609Y-73238552D01*
X155945228Y-73048076D01*
X155992847Y-72952838D01*
X156088085Y-72857600D01*
X156230942Y-72809980D01*
X156326180Y-72809980D01*
X156469038Y-72857600D01*
X156516657Y-72905219D01*
X157088085Y-73809980D02*
X156992847Y-73762361D01*
X156945228Y-73714742D01*
X156897609Y-73619504D01*
X156897609Y-73333790D01*
X156945228Y-73238552D01*
X156992847Y-73190933D01*
X157088085Y-73143314D01*
X157230942Y-73143314D01*
X157326180Y-73190933D01*
X157373800Y-73238552D01*
X157421419Y-73333790D01*
X157421419Y-73619504D01*
X157373800Y-73714742D01*
X157326180Y-73762361D01*
X157230942Y-73809980D01*
X157088085Y-73809980D01*
X157849990Y-73143314D02*
X157849990Y-73809980D01*
X157849990Y-73238552D02*
X157897609Y-73190933D01*
X157992847Y-73143314D01*
X158135704Y-73143314D01*
X158230942Y-73190933D01*
X158278561Y-73286171D01*
X158278561Y-73809980D01*
X158754752Y-73143314D02*
X158754752Y-73809980D01*
X158754752Y-73238552D02*
X158802371Y-73190933D01*
X158897609Y-73143314D01*
X159040466Y-73143314D01*
X159135704Y-73190933D01*
X159183323Y-73286171D01*
X159183323Y-73809980D01*
X160040466Y-73762361D02*
X159945228Y-73809980D01*
X159754752Y-73809980D01*
X159659514Y-73762361D01*
X159611895Y-73667123D01*
X159611895Y-73286171D01*
X159659514Y-73190933D01*
X159754752Y-73143314D01*
X159945228Y-73143314D01*
X160040466Y-73190933D01*
X160088085Y-73286171D01*
X160088085Y-73381409D01*
X159611895Y-73476647D01*
X160945228Y-73762361D02*
X160849990Y-73809980D01*
X160659514Y-73809980D01*
X160564276Y-73762361D01*
X160516657Y-73714742D01*
X160469038Y-73619504D01*
X160469038Y-73333790D01*
X160516657Y-73238552D01*
X160564276Y-73190933D01*
X160659514Y-73143314D01*
X160849990Y-73143314D01*
X160945228Y-73190933D01*
X161230942Y-73143314D02*
X161611895Y-73143314D01*
X161373800Y-72809980D02*
X161373800Y-73667123D01*
X161421419Y-73762361D01*
X161516657Y-73809980D01*
X161611895Y-73809980D01*
X162088085Y-73809980D02*
X161992847Y-73762361D01*
X161945228Y-73714742D01*
X161897609Y-73619504D01*
X161897609Y-73333790D01*
X161945228Y-73238552D01*
X161992847Y-73190933D01*
X162088085Y-73143314D01*
X162230942Y-73143314D01*
X162326180Y-73190933D01*
X162373800Y-73238552D01*
X162421419Y-73333790D01*
X162421419Y-73619504D01*
X162373800Y-73714742D01*
X162326180Y-73762361D01*
X162230942Y-73809980D01*
X162088085Y-73809980D01*
X162849990Y-73809980D02*
X162849990Y-73143314D01*
X162849990Y-73333790D02*
X162897609Y-73238552D01*
X162945228Y-73190933D01*
X163040466Y-73143314D01*
X163135704Y-73143314D01*
%TO.C,J1*%
X103144966Y-121069980D02*
X103144966Y-121784266D01*
X103097347Y-121927123D01*
X103002109Y-122022361D01*
X102859252Y-122069980D01*
X102764014Y-122069980D01*
X104144966Y-122069980D02*
X103573538Y-122069980D01*
X103859252Y-122069980D02*
X103859252Y-121069980D01*
X103764014Y-121212838D01*
X103668776Y-121308076D01*
X103573538Y-121355695D01*
D11*
X101097395Y-102837361D02*
X101097395Y-100837361D01*
X101573585Y-100837361D01*
X101859300Y-100932600D01*
X102049776Y-101123076D01*
X102145014Y-101313552D01*
X102240252Y-101694504D01*
X102240252Y-101980219D01*
X102145014Y-102361171D01*
X102049776Y-102551647D01*
X101859300Y-102742123D01*
X101573585Y-102837361D01*
X101097395Y-102837361D01*
X104240252Y-102646885D02*
X104145014Y-102742123D01*
X103859300Y-102837361D01*
X103668823Y-102837361D01*
X103383109Y-102742123D01*
X103192633Y-102551647D01*
X103097395Y-102361171D01*
X103002157Y-101980219D01*
X103002157Y-101694504D01*
X103097395Y-101313552D01*
X103192633Y-101123076D01*
X103383109Y-100932600D01*
X103668823Y-100837361D01*
X103859300Y-100837361D01*
X104145014Y-100932600D01*
X104240252Y-101027838D01*
X105097395Y-102075457D02*
X106621204Y-102075457D01*
X105859300Y-102837361D02*
X105859300Y-101313552D01*
D10*
%TO.C,J2*%
X102700466Y-96622480D02*
X102700466Y-97336766D01*
X102652847Y-97479623D01*
X102557609Y-97574861D01*
X102414752Y-97622480D01*
X102319514Y-97622480D01*
X103129038Y-96717719D02*
X103176657Y-96670100D01*
X103271895Y-96622480D01*
X103509990Y-96622480D01*
X103605228Y-96670100D01*
X103652847Y-96717719D01*
X103700466Y-96812957D01*
X103700466Y-96908195D01*
X103652847Y-97051052D01*
X103081419Y-97622480D01*
X103700466Y-97622480D01*
D11*
X101033895Y-78834361D02*
X101033895Y-76834361D01*
X101510085Y-76834361D01*
X101795800Y-76929600D01*
X101986276Y-77120076D01*
X102081514Y-77310552D01*
X102176752Y-77691504D01*
X102176752Y-77977219D01*
X102081514Y-78358171D01*
X101986276Y-78548647D01*
X101795800Y-78739123D01*
X101510085Y-78834361D01*
X101033895Y-78834361D01*
X104176752Y-78643885D02*
X104081514Y-78739123D01*
X103795800Y-78834361D01*
X103605323Y-78834361D01*
X103319609Y-78739123D01*
X103129133Y-78548647D01*
X103033895Y-78358171D01*
X102938657Y-77977219D01*
X102938657Y-77691504D01*
X103033895Y-77310552D01*
X103129133Y-77120076D01*
X103319609Y-76929600D01*
X103605323Y-76834361D01*
X103795800Y-76834361D01*
X104081514Y-76929600D01*
X104176752Y-77024838D01*
X105033895Y-78072457D02*
X106557704Y-78072457D01*
D10*
%TO.C,J4*%
X210840966Y-96622480D02*
X210840966Y-97336766D01*
X210793347Y-97479623D01*
X210698109Y-97574861D01*
X210555252Y-97622480D01*
X210460014Y-97622480D01*
X211745728Y-96955814D02*
X211745728Y-97622480D01*
X211507633Y-96574861D02*
X211269538Y-97289147D01*
X211888585Y-97289147D01*
D11*
X208761704Y-76707361D02*
X209142657Y-76707361D01*
X209333133Y-76802600D01*
X209523609Y-76993076D01*
X209618847Y-77374028D01*
X209618847Y-78040695D01*
X209523609Y-78421647D01*
X209333133Y-78612123D01*
X209142657Y-78707361D01*
X208761704Y-78707361D01*
X208571228Y-78612123D01*
X208380752Y-78421647D01*
X208285514Y-78040695D01*
X208285514Y-77374028D01*
X208380752Y-76993076D01*
X208571228Y-76802600D01*
X208761704Y-76707361D01*
X210475990Y-76707361D02*
X210475990Y-78326409D01*
X210571228Y-78516885D01*
X210666466Y-78612123D01*
X210856942Y-78707361D01*
X211237895Y-78707361D01*
X211428371Y-78612123D01*
X211523609Y-78516885D01*
X211618847Y-78326409D01*
X211618847Y-76707361D01*
X212285514Y-76707361D02*
X213428371Y-76707361D01*
X212856942Y-78707361D02*
X212856942Y-76707361D01*
X214095038Y-77945457D02*
X215618847Y-77945457D01*
D10*
%TO.C,J5*%
X210904466Y-120815980D02*
X210904466Y-121530266D01*
X210856847Y-121673123D01*
X210761609Y-121768361D01*
X210618752Y-121815980D01*
X210523514Y-121815980D01*
X211856847Y-120815980D02*
X211380657Y-120815980D01*
X211333038Y-121292171D01*
X211380657Y-121244552D01*
X211475895Y-121196933D01*
X211713990Y-121196933D01*
X211809228Y-121244552D01*
X211856847Y-121292171D01*
X211904466Y-121387409D01*
X211904466Y-121625504D01*
X211856847Y-121720742D01*
X211809228Y-121768361D01*
X211713990Y-121815980D01*
X211475895Y-121815980D01*
X211380657Y-121768361D01*
X211333038Y-121720742D01*
D11*
X208761704Y-100964361D02*
X209142657Y-100964361D01*
X209333133Y-101059600D01*
X209523609Y-101250076D01*
X209618847Y-101631028D01*
X209618847Y-102297695D01*
X209523609Y-102678647D01*
X209333133Y-102869123D01*
X209142657Y-102964361D01*
X208761704Y-102964361D01*
X208571228Y-102869123D01*
X208380752Y-102678647D01*
X208285514Y-102297695D01*
X208285514Y-101631028D01*
X208380752Y-101250076D01*
X208571228Y-101059600D01*
X208761704Y-100964361D01*
X210475990Y-100964361D02*
X210475990Y-102583409D01*
X210571228Y-102773885D01*
X210666466Y-102869123D01*
X210856942Y-102964361D01*
X211237895Y-102964361D01*
X211428371Y-102869123D01*
X211523609Y-102773885D01*
X211618847Y-102583409D01*
X211618847Y-100964361D01*
X212285514Y-100964361D02*
X213428371Y-100964361D01*
X212856942Y-102964361D02*
X212856942Y-100964361D01*
X214095038Y-102202457D02*
X215618847Y-102202457D01*
X214856942Y-102964361D02*
X214856942Y-101440552D01*
D10*
%TO.C,D1*%
X137665204Y-119529980D02*
X137665204Y-118529980D01*
X137903300Y-118529980D01*
X138046157Y-118577600D01*
X138141395Y-118672838D01*
X138189014Y-118768076D01*
X138236633Y-118958552D01*
X138236633Y-119101409D01*
X138189014Y-119291885D01*
X138141395Y-119387123D01*
X138046157Y-119482361D01*
X137903300Y-119529980D01*
X137665204Y-119529980D01*
X139189014Y-119529980D02*
X138617585Y-119529980D01*
X138903300Y-119529980D02*
X138903300Y-118529980D01*
X138808061Y-118672838D01*
X138712823Y-118768076D01*
X138617585Y-118815695D01*
%TO.C,U1*%
X148753895Y-75540480D02*
X148753895Y-76350004D01*
X148801514Y-76445242D01*
X148849133Y-76492861D01*
X148944371Y-76540480D01*
X149134847Y-76540480D01*
X149230085Y-76492861D01*
X149277704Y-76445242D01*
X149325323Y-76350004D01*
X149325323Y-75540480D01*
X150325323Y-76540480D02*
X149753895Y-76540480D01*
X150039609Y-76540480D02*
X150039609Y-75540480D01*
X149944371Y-75683338D01*
X149849133Y-75778576D01*
X149753895Y-75826195D01*
%TO.C,C12*%
X154333942Y-85145742D02*
X154286323Y-85193361D01*
X154143466Y-85240980D01*
X154048228Y-85240980D01*
X153905371Y-85193361D01*
X153810133Y-85098123D01*
X153762514Y-85002885D01*
X153714895Y-84812409D01*
X153714895Y-84669552D01*
X153762514Y-84479076D01*
X153810133Y-84383838D01*
X153905371Y-84288600D01*
X154048228Y-84240980D01*
X154143466Y-84240980D01*
X154286323Y-84288600D01*
X154333942Y-84336219D01*
X155286323Y-85240980D02*
X154714895Y-85240980D01*
X155000609Y-85240980D02*
X155000609Y-84240980D01*
X154905371Y-84383838D01*
X154810133Y-84479076D01*
X154714895Y-84526695D01*
X155667276Y-84336219D02*
X155714895Y-84288600D01*
X155810133Y-84240980D01*
X156048228Y-84240980D01*
X156143466Y-84288600D01*
X156191085Y-84336219D01*
X156238704Y-84431457D01*
X156238704Y-84526695D01*
X156191085Y-84669552D01*
X155619657Y-85240980D01*
X156238704Y-85240980D01*
%TO.C,C13*%
X155857942Y-90224742D02*
X155810323Y-90272361D01*
X155667466Y-90319980D01*
X155572228Y-90319980D01*
X155429371Y-90272361D01*
X155334133Y-90177123D01*
X155286514Y-90081885D01*
X155238895Y-89891409D01*
X155238895Y-89748552D01*
X155286514Y-89558076D01*
X155334133Y-89462838D01*
X155429371Y-89367600D01*
X155572228Y-89319980D01*
X155667466Y-89319980D01*
X155810323Y-89367600D01*
X155857942Y-89415219D01*
X156810323Y-90319980D02*
X156238895Y-90319980D01*
X156524609Y-90319980D02*
X156524609Y-89319980D01*
X156429371Y-89462838D01*
X156334133Y-89558076D01*
X156238895Y-89605695D01*
X157143657Y-89319980D02*
X157762704Y-89319980D01*
X157429371Y-89700933D01*
X157572228Y-89700933D01*
X157667466Y-89748552D01*
X157715085Y-89796171D01*
X157762704Y-89891409D01*
X157762704Y-90129504D01*
X157715085Y-90224742D01*
X157667466Y-90272361D01*
X157572228Y-90319980D01*
X157286514Y-90319980D01*
X157191276Y-90272361D01*
X157143657Y-90224742D01*
%TO.C,U2*%
X148753895Y-92558480D02*
X148753895Y-93368004D01*
X148801514Y-93463242D01*
X148849133Y-93510861D01*
X148944371Y-93558480D01*
X149134847Y-93558480D01*
X149230085Y-93510861D01*
X149277704Y-93463242D01*
X149325323Y-93368004D01*
X149325323Y-92558480D01*
X149753895Y-92653719D02*
X149801514Y-92606100D01*
X149896752Y-92558480D01*
X150134847Y-92558480D01*
X150230085Y-92606100D01*
X150277704Y-92653719D01*
X150325323Y-92748957D01*
X150325323Y-92844195D01*
X150277704Y-92987052D01*
X149706276Y-93558480D01*
X150325323Y-93558480D01*
%TO.C,D8*%
X128521204Y-73480980D02*
X128521204Y-72480980D01*
X128759300Y-72480980D01*
X128902157Y-72528600D01*
X128997395Y-72623838D01*
X129045014Y-72719076D01*
X129092633Y-72909552D01*
X129092633Y-73052409D01*
X129045014Y-73242885D01*
X128997395Y-73338123D01*
X128902157Y-73433361D01*
X128759300Y-73480980D01*
X128521204Y-73480980D01*
X129664061Y-72909552D02*
X129568823Y-72861933D01*
X129521204Y-72814314D01*
X129473585Y-72719076D01*
X129473585Y-72671457D01*
X129521204Y-72576219D01*
X129568823Y-72528600D01*
X129664061Y-72480980D01*
X129854538Y-72480980D01*
X129949776Y-72528600D01*
X129997395Y-72576219D01*
X130045014Y-72671457D01*
X130045014Y-72719076D01*
X129997395Y-72814314D01*
X129949776Y-72861933D01*
X129854538Y-72909552D01*
X129664061Y-72909552D01*
X129568823Y-72957171D01*
X129521204Y-73004790D01*
X129473585Y-73100028D01*
X129473585Y-73290504D01*
X129521204Y-73385742D01*
X129568823Y-73433361D01*
X129664061Y-73480980D01*
X129854538Y-73480980D01*
X129949776Y-73433361D01*
X129997395Y-73385742D01*
X130045014Y-73290504D01*
X130045014Y-73100028D01*
X129997395Y-73004790D01*
X129949776Y-72957171D01*
X129854538Y-72909552D01*
%TO.C,R14*%
X193661680Y-82121457D02*
X193185490Y-82454790D01*
X193661680Y-82692885D02*
X192661680Y-82692885D01*
X192661680Y-82311933D01*
X192709300Y-82216695D01*
X192756919Y-82169076D01*
X192852157Y-82121457D01*
X192995014Y-82121457D01*
X193090252Y-82169076D01*
X193137871Y-82216695D01*
X193185490Y-82311933D01*
X193185490Y-82692885D01*
X193661680Y-81169076D02*
X193661680Y-81740504D01*
X193661680Y-81454790D02*
X192661680Y-81454790D01*
X192804538Y-81550028D01*
X192899776Y-81645266D01*
X192947395Y-81740504D01*
X192995014Y-80311933D02*
X193661680Y-80311933D01*
X192614061Y-80550028D02*
X193328347Y-80788123D01*
X193328347Y-80169076D01*
%TO.C,R11*%
X196061680Y-82121457D02*
X195585490Y-82454790D01*
X196061680Y-82692885D02*
X195061680Y-82692885D01*
X195061680Y-82311933D01*
X195109300Y-82216695D01*
X195156919Y-82169076D01*
X195252157Y-82121457D01*
X195395014Y-82121457D01*
X195490252Y-82169076D01*
X195537871Y-82216695D01*
X195585490Y-82311933D01*
X195585490Y-82692885D01*
X196061680Y-81169076D02*
X196061680Y-81740504D01*
X196061680Y-81454790D02*
X195061680Y-81454790D01*
X195204538Y-81550028D01*
X195299776Y-81645266D01*
X195347395Y-81740504D01*
X196061680Y-80216695D02*
X196061680Y-80788123D01*
X196061680Y-80502409D02*
X195061680Y-80502409D01*
X195204538Y-80597647D01*
X195299776Y-80692885D01*
X195347395Y-80788123D01*
%TO.C,U3*%
X181497395Y-77180980D02*
X181497395Y-77990504D01*
X181545014Y-78085742D01*
X181592633Y-78133361D01*
X181687871Y-78180980D01*
X181878347Y-78180980D01*
X181973585Y-78133361D01*
X182021204Y-78085742D01*
X182068823Y-77990504D01*
X182068823Y-77180980D01*
X182449776Y-77180980D02*
X183068823Y-77180980D01*
X182735490Y-77561933D01*
X182878347Y-77561933D01*
X182973585Y-77609552D01*
X183021204Y-77657171D01*
X183068823Y-77752409D01*
X183068823Y-77990504D01*
X183021204Y-78085742D01*
X182973585Y-78133361D01*
X182878347Y-78180980D01*
X182592633Y-78180980D01*
X182497395Y-78133361D01*
X182449776Y-78085742D01*
%TO.C,R15*%
X178966442Y-71180980D02*
X178633109Y-70704790D01*
X178395014Y-71180980D02*
X178395014Y-70180980D01*
X178775966Y-70180980D01*
X178871204Y-70228600D01*
X178918823Y-70276219D01*
X178966442Y-70371457D01*
X178966442Y-70514314D01*
X178918823Y-70609552D01*
X178871204Y-70657171D01*
X178775966Y-70704790D01*
X178395014Y-70704790D01*
X179918823Y-71180980D02*
X179347395Y-71180980D01*
X179633109Y-71180980D02*
X179633109Y-70180980D01*
X179537871Y-70323838D01*
X179442633Y-70419076D01*
X179347395Y-70466695D01*
X180823585Y-70180980D02*
X180347395Y-70180980D01*
X180299776Y-70657171D01*
X180347395Y-70609552D01*
X180442633Y-70561933D01*
X180680728Y-70561933D01*
X180775966Y-70609552D01*
X180823585Y-70657171D01*
X180871204Y-70752409D01*
X180871204Y-70990504D01*
X180823585Y-71085742D01*
X180775966Y-71133361D01*
X180680728Y-71180980D01*
X180442633Y-71180980D01*
X180347395Y-71133361D01*
X180299776Y-71085742D01*
%TO.C,R10*%
X194566442Y-71730980D02*
X194233109Y-71254790D01*
X193995014Y-71730980D02*
X193995014Y-70730980D01*
X194375966Y-70730980D01*
X194471204Y-70778600D01*
X194518823Y-70826219D01*
X194566442Y-70921457D01*
X194566442Y-71064314D01*
X194518823Y-71159552D01*
X194471204Y-71207171D01*
X194375966Y-71254790D01*
X193995014Y-71254790D01*
X195518823Y-71730980D02*
X194947395Y-71730980D01*
X195233109Y-71730980D02*
X195233109Y-70730980D01*
X195137871Y-70873838D01*
X195042633Y-70969076D01*
X194947395Y-71016695D01*
X196137871Y-70730980D02*
X196233109Y-70730980D01*
X196328347Y-70778600D01*
X196375966Y-70826219D01*
X196423585Y-70921457D01*
X196471204Y-71111933D01*
X196471204Y-71350028D01*
X196423585Y-71540504D01*
X196375966Y-71635742D01*
X196328347Y-71683361D01*
X196233109Y-71730980D01*
X196137871Y-71730980D01*
X196042633Y-71683361D01*
X195995014Y-71635742D01*
X195947395Y-71540504D01*
X195899776Y-71350028D01*
X195899776Y-71111933D01*
X195947395Y-70921457D01*
X195995014Y-70826219D01*
X196042633Y-70778600D01*
X196137871Y-70730980D01*
%TO.C,R16*%
X173766442Y-71130980D02*
X173433109Y-70654790D01*
X173195014Y-71130980D02*
X173195014Y-70130980D01*
X173575966Y-70130980D01*
X173671204Y-70178600D01*
X173718823Y-70226219D01*
X173766442Y-70321457D01*
X173766442Y-70464314D01*
X173718823Y-70559552D01*
X173671204Y-70607171D01*
X173575966Y-70654790D01*
X173195014Y-70654790D01*
X174718823Y-71130980D02*
X174147395Y-71130980D01*
X174433109Y-71130980D02*
X174433109Y-70130980D01*
X174337871Y-70273838D01*
X174242633Y-70369076D01*
X174147395Y-70416695D01*
X175575966Y-70130980D02*
X175385490Y-70130980D01*
X175290252Y-70178600D01*
X175242633Y-70226219D01*
X175147395Y-70369076D01*
X175099776Y-70559552D01*
X175099776Y-70940504D01*
X175147395Y-71035742D01*
X175195014Y-71083361D01*
X175290252Y-71130980D01*
X175480728Y-71130980D01*
X175575966Y-71083361D01*
X175623585Y-71035742D01*
X175671204Y-70940504D01*
X175671204Y-70702409D01*
X175623585Y-70607171D01*
X175575966Y-70559552D01*
X175480728Y-70511933D01*
X175290252Y-70511933D01*
X175195014Y-70559552D01*
X175147395Y-70607171D01*
X175099776Y-70702409D01*
%TO.C,R8*%
X177642633Y-93930980D02*
X177309300Y-93454790D01*
X177071204Y-93930980D02*
X177071204Y-92930980D01*
X177452157Y-92930980D01*
X177547395Y-92978600D01*
X177595014Y-93026219D01*
X177642633Y-93121457D01*
X177642633Y-93264314D01*
X177595014Y-93359552D01*
X177547395Y-93407171D01*
X177452157Y-93454790D01*
X177071204Y-93454790D01*
X178214061Y-93359552D02*
X178118823Y-93311933D01*
X178071204Y-93264314D01*
X178023585Y-93169076D01*
X178023585Y-93121457D01*
X178071204Y-93026219D01*
X178118823Y-92978600D01*
X178214061Y-92930980D01*
X178404538Y-92930980D01*
X178499776Y-92978600D01*
X178547395Y-93026219D01*
X178595014Y-93121457D01*
X178595014Y-93169076D01*
X178547395Y-93264314D01*
X178499776Y-93311933D01*
X178404538Y-93359552D01*
X178214061Y-93359552D01*
X178118823Y-93407171D01*
X178071204Y-93454790D01*
X178023585Y-93550028D01*
X178023585Y-93740504D01*
X178071204Y-93835742D01*
X178118823Y-93883361D01*
X178214061Y-93930980D01*
X178404538Y-93930980D01*
X178499776Y-93883361D01*
X178547395Y-93835742D01*
X178595014Y-93740504D01*
X178595014Y-93550028D01*
X178547395Y-93454790D01*
X178499776Y-93407171D01*
X178404538Y-93359552D01*
%TO.C,R12*%
X187766442Y-78530980D02*
X187433109Y-78054790D01*
X187195014Y-78530980D02*
X187195014Y-77530980D01*
X187575966Y-77530980D01*
X187671204Y-77578600D01*
X187718823Y-77626219D01*
X187766442Y-77721457D01*
X187766442Y-77864314D01*
X187718823Y-77959552D01*
X187671204Y-78007171D01*
X187575966Y-78054790D01*
X187195014Y-78054790D01*
X188718823Y-78530980D02*
X188147395Y-78530980D01*
X188433109Y-78530980D02*
X188433109Y-77530980D01*
X188337871Y-77673838D01*
X188242633Y-77769076D01*
X188147395Y-77816695D01*
X189099776Y-77626219D02*
X189147395Y-77578600D01*
X189242633Y-77530980D01*
X189480728Y-77530980D01*
X189575966Y-77578600D01*
X189623585Y-77626219D01*
X189671204Y-77721457D01*
X189671204Y-77816695D01*
X189623585Y-77959552D01*
X189052157Y-78530980D01*
X189671204Y-78530980D01*
%TO.C,C14*%
X187166442Y-85035742D02*
X187118823Y-85083361D01*
X186975966Y-85130980D01*
X186880728Y-85130980D01*
X186737871Y-85083361D01*
X186642633Y-84988123D01*
X186595014Y-84892885D01*
X186547395Y-84702409D01*
X186547395Y-84559552D01*
X186595014Y-84369076D01*
X186642633Y-84273838D01*
X186737871Y-84178600D01*
X186880728Y-84130980D01*
X186975966Y-84130980D01*
X187118823Y-84178600D01*
X187166442Y-84226219D01*
X188118823Y-85130980D02*
X187547395Y-85130980D01*
X187833109Y-85130980D02*
X187833109Y-84130980D01*
X187737871Y-84273838D01*
X187642633Y-84369076D01*
X187547395Y-84416695D01*
X188975966Y-84464314D02*
X188975966Y-85130980D01*
X188737871Y-84083361D02*
X188499776Y-84797647D01*
X189118823Y-84797647D01*
%TO.C,R3*%
X190842633Y-74330980D02*
X190509300Y-73854790D01*
X190271204Y-74330980D02*
X190271204Y-73330980D01*
X190652157Y-73330980D01*
X190747395Y-73378600D01*
X190795014Y-73426219D01*
X190842633Y-73521457D01*
X190842633Y-73664314D01*
X190795014Y-73759552D01*
X190747395Y-73807171D01*
X190652157Y-73854790D01*
X190271204Y-73854790D01*
X191175966Y-73330980D02*
X191795014Y-73330980D01*
X191461680Y-73711933D01*
X191604538Y-73711933D01*
X191699776Y-73759552D01*
X191747395Y-73807171D01*
X191795014Y-73902409D01*
X191795014Y-74140504D01*
X191747395Y-74235742D01*
X191699776Y-74283361D01*
X191604538Y-74330980D01*
X191318823Y-74330980D01*
X191223585Y-74283361D01*
X191175966Y-74235742D01*
%TO.C,R9*%
X198661680Y-82045266D02*
X198185490Y-82378600D01*
X198661680Y-82616695D02*
X197661680Y-82616695D01*
X197661680Y-82235742D01*
X197709300Y-82140504D01*
X197756919Y-82092885D01*
X197852157Y-82045266D01*
X197995014Y-82045266D01*
X198090252Y-82092885D01*
X198137871Y-82140504D01*
X198185490Y-82235742D01*
X198185490Y-82616695D01*
X198661680Y-81569076D02*
X198661680Y-81378600D01*
X198614061Y-81283361D01*
X198566442Y-81235742D01*
X198423585Y-81140504D01*
X198233109Y-81092885D01*
X197852157Y-81092885D01*
X197756919Y-81140504D01*
X197709300Y-81188123D01*
X197661680Y-81283361D01*
X197661680Y-81473838D01*
X197709300Y-81569076D01*
X197756919Y-81616695D01*
X197852157Y-81664314D01*
X198090252Y-81664314D01*
X198185490Y-81616695D01*
X198233109Y-81569076D01*
X198280728Y-81473838D01*
X198280728Y-81283361D01*
X198233109Y-81188123D01*
X198185490Y-81140504D01*
X198090252Y-81092885D01*
D12*
%TO.C,R22*%
X172744300Y-63851536D02*
X172744300Y-64305664D01*
X171274300Y-63851536D02*
X171274300Y-64305664D01*
%TO.C,R21*%
X173674300Y-64305664D02*
X173674300Y-63851536D01*
X175144300Y-64305664D02*
X175144300Y-63851536D01*
%TO.C,R19*%
X199874300Y-74105664D02*
X199874300Y-73651536D01*
X201344300Y-74105664D02*
X201344300Y-73651536D01*
%TO.C,R18*%
X199874300Y-78305664D02*
X199874300Y-77851536D01*
X201344300Y-78305664D02*
X201344300Y-77851536D01*
%TO.C,R17*%
X197474300Y-74105664D02*
X197474300Y-73651536D01*
X198944300Y-74105664D02*
X198944300Y-73651536D01*
%TO.C,C1*%
X115400300Y-118848100D02*
X128640300Y-118848100D01*
X115400300Y-87108100D02*
X128640300Y-87108100D01*
X115400300Y-118848100D02*
X115400300Y-87108100D01*
X128640300Y-118848100D02*
X128640300Y-87108100D01*
%TO.C,C2*%
X137932300Y-74406536D02*
X137932300Y-75610664D01*
X140652300Y-74406536D02*
X140652300Y-75610664D01*
%TO.C,C3*%
X167474300Y-67017348D02*
X167474300Y-67539852D01*
X168944300Y-67017348D02*
X168944300Y-67539852D01*
%TO.C,C6*%
X137932300Y-84500664D02*
X137932300Y-83296536D01*
X140652300Y-84500664D02*
X140652300Y-83296536D01*
%TO.C,C7*%
X159910567Y-79451600D02*
X159568033Y-79451600D01*
X159910567Y-80471600D02*
X159568033Y-80471600D01*
%TO.C,C9*%
X170278300Y-97087367D02*
X170278300Y-96744833D01*
X171298300Y-97087367D02*
X171298300Y-96744833D01*
%TO.C,C10*%
X173266800Y-97087367D02*
X173266800Y-96744833D01*
X172246800Y-97087367D02*
X172246800Y-96744833D01*
%TO.C,C17*%
X154715548Y-77664100D02*
X155238052Y-77664100D01*
X154715548Y-79084100D02*
X155238052Y-79084100D01*
%TO.C,C18*%
X154861300Y-81596348D02*
X154861300Y-82118852D01*
X153441300Y-81596348D02*
X153441300Y-82118852D01*
%TO.C,D2*%
X169444300Y-87200600D02*
X169444300Y-91060600D01*
X158924300Y-87200600D02*
X158924300Y-91060600D01*
X169444300Y-87200600D02*
X169444300Y-83340600D01*
X158924300Y-83340600D02*
X159179300Y-83340600D01*
X158924300Y-87200600D02*
X158924300Y-83340600D01*
X169444300Y-91060600D02*
X169189300Y-91060600D01*
X159179300Y-91060600D02*
X159179300Y-92875600D01*
X158924300Y-91060600D02*
X159179300Y-91060600D01*
X169444300Y-83340600D02*
X169189300Y-83340600D01*
%TO.C,D4*%
X174169800Y-99166100D02*
X174169800Y-95266100D01*
X174169800Y-99166100D02*
X176169800Y-99166100D01*
X176169800Y-99166100D02*
X176169800Y-95266100D01*
%TO.C,D5*%
X174396300Y-112828600D02*
X174396300Y-104428600D01*
X180896300Y-112828600D02*
X174396300Y-112828600D01*
X180896300Y-112828600D02*
X180896300Y-104428600D01*
%TO.C,Q1*%
X165661300Y-125621000D02*
X165661300Y-120350000D01*
X155786300Y-125621000D02*
X155786300Y-120350000D01*
X149521300Y-125621000D02*
X149521300Y-120350000D01*
X159395300Y-125621000D02*
X159395300Y-120350000D01*
X165661300Y-120350000D02*
X149521300Y-120350000D01*
X165661300Y-125621000D02*
X149521300Y-125621000D01*
%TO.C,R1*%
X159351048Y-78512600D02*
X159873552Y-78512600D01*
X159351048Y-77092600D02*
X159873552Y-77092600D01*
%TO.C,R2*%
X157968552Y-119025600D02*
X157446048Y-119025600D01*
X157968552Y-117605600D02*
X157446048Y-117605600D01*
%TO.C,R4*%
X161592300Y-96527848D02*
X161592300Y-97050352D01*
X160172300Y-96527848D02*
X160172300Y-97050352D01*
%TO.C,R5*%
X167443800Y-96187036D02*
X167443800Y-97391164D01*
X165623800Y-96187036D02*
X165623800Y-97391164D01*
%TO.C,R6*%
X164459300Y-96187036D02*
X164459300Y-97391164D01*
X162639300Y-96187036D02*
X162639300Y-97391164D01*
%TO.C,R7*%
X167811052Y-77242600D02*
X167288548Y-77242600D01*
X167811052Y-75822600D02*
X167288548Y-75822600D01*
%TO.C,C4*%
X144353552Y-106688600D02*
X147185048Y-106688600D01*
X144353552Y-111908600D02*
X147185048Y-111908600D01*
%TO.C,C5*%
X135044300Y-104999348D02*
X135044300Y-102167852D01*
X129824300Y-104999348D02*
X129824300Y-102167852D01*
%TO.C,C8*%
X144353552Y-118258600D02*
X147185048Y-118258600D01*
X144353552Y-113038600D02*
X147185048Y-113038600D01*
%TO.C,C11*%
X136174300Y-104999348D02*
X136174300Y-102167852D01*
X141394300Y-104999348D02*
X141394300Y-102167852D01*
%TO.C,J3*%
X164169300Y-69123600D02*
X147799300Y-69123600D01*
X164169300Y-59993600D02*
X164169300Y-69123600D01*
X163169300Y-58993600D02*
X164169300Y-59993600D01*
X147799300Y-59993600D02*
X148799300Y-58993600D01*
X148799300Y-58993600D02*
X163169300Y-58993600D01*
X147799300Y-69123600D02*
X147799300Y-59993600D01*
%TO.C,J1*%
X108134300Y-103598600D02*
X108134300Y-119968600D01*
X98004300Y-104598600D02*
X99004300Y-103598600D01*
X108134300Y-119968600D02*
X99004300Y-119968600D01*
X98004300Y-118968600D02*
X98004300Y-104598600D01*
X99004300Y-119968600D02*
X98004300Y-118968600D01*
X99004300Y-103598600D02*
X108134300Y-103598600D01*
%TO.C,J2*%
X99004300Y-95838600D02*
X98004300Y-94838600D01*
X98004300Y-94838600D02*
X98004300Y-80468600D01*
X99004300Y-79468600D02*
X108134300Y-79468600D01*
X108134300Y-79468600D02*
X108134300Y-95838600D01*
X98004300Y-80468600D02*
X99004300Y-79468600D01*
X108134300Y-95838600D02*
X99004300Y-95838600D01*
%TO.C,J4*%
X216394300Y-80578600D02*
X216394300Y-94948600D01*
X215394300Y-79578600D02*
X216394300Y-80578600D01*
X206264300Y-95948600D02*
X206264300Y-79578600D01*
X216394300Y-94948600D02*
X215394300Y-95948600D01*
X215394300Y-95948600D02*
X206264300Y-95948600D01*
X206264300Y-79578600D02*
X215394300Y-79578600D01*
%TO.C,J5*%
X216394300Y-119078600D02*
X215394300Y-120078600D01*
X216394300Y-104708600D02*
X216394300Y-119078600D01*
X206264300Y-120078600D02*
X206264300Y-103708600D01*
X206264300Y-103708600D02*
X215394300Y-103708600D01*
X215394300Y-120078600D02*
X206264300Y-120078600D01*
X215394300Y-103708600D02*
X216394300Y-104708600D01*
%TO.C,D1*%
X146275000Y-120350000D02*
X130135000Y-120350000D01*
X146275000Y-125621000D02*
X130135000Y-125621000D01*
X136400000Y-125621000D02*
X136400000Y-120350000D01*
X146275000Y-125621000D02*
X146275000Y-120350000D01*
X130135000Y-125621000D02*
X130135000Y-120350000D01*
X140009000Y-125621000D02*
X140009000Y-120350000D01*
%TO.C,U1*%
X150032300Y-77313600D02*
X146272300Y-77313600D01*
X146272300Y-77313600D02*
X146272300Y-78573600D01*
X146272300Y-84133600D02*
X146272300Y-82873600D01*
X152282300Y-84133600D02*
X146272300Y-84133600D01*
%TO.C,C12*%
X154715548Y-87148600D02*
X155238052Y-87148600D01*
X154715548Y-85728600D02*
X155238052Y-85728600D01*
%TO.C,C13*%
X154861300Y-89615348D02*
X154861300Y-90137852D01*
X153441300Y-89615348D02*
X153441300Y-90137852D01*
%TO.C,U2*%
X146272300Y-92134600D02*
X146272300Y-90874600D01*
X150032300Y-85314600D02*
X146272300Y-85314600D01*
X146272300Y-85314600D02*
X146272300Y-86574600D01*
X152282300Y-92134600D02*
X146272300Y-92134600D01*
%TO.C,D8*%
X130732300Y-91192600D02*
X136832300Y-91192600D01*
X130732300Y-71692600D02*
X136832300Y-71692600D01*
X130732300Y-91192600D02*
X130732300Y-71692600D01*
X136832300Y-91192600D02*
X136832300Y-71692600D01*
%TO.C,R14*%
X192474300Y-77851536D02*
X192474300Y-78305664D01*
X193944300Y-77851536D02*
X193944300Y-78305664D01*
%TO.C,R11*%
X194874300Y-77851536D02*
X194874300Y-78305664D01*
X196344300Y-77851536D02*
X196344300Y-78305664D01*
%TO.C,U3*%
X181044300Y-77678600D02*
X181044300Y-75728600D01*
X181044300Y-77678600D02*
X181044300Y-79628600D01*
X172174300Y-77678600D02*
X172174300Y-75728600D01*
X172174300Y-77678600D02*
X172174300Y-81128600D01*
%TO.C,R15*%
X179836364Y-68343600D02*
X179382236Y-68343600D01*
X179836364Y-69813600D02*
X179382236Y-69813600D01*
%TO.C,R10*%
X194874300Y-74105664D02*
X194874300Y-73651536D01*
X196344300Y-74105664D02*
X196344300Y-73651536D01*
%TO.C,R16*%
X173674300Y-67851536D02*
X173674300Y-68305664D01*
X175144300Y-67851536D02*
X175144300Y-68305664D01*
%TO.C,R8*%
X178809300Y-99166100D02*
X178809300Y-95266100D01*
X176809300Y-99166100D02*
X176809300Y-95266100D01*
X176809300Y-99166100D02*
X178809300Y-99166100D01*
%TO.C,R12*%
X191544300Y-77851536D02*
X191544300Y-78305664D01*
X190074300Y-77851536D02*
X190074300Y-78305664D01*
%TO.C,C14*%
X187548048Y-83413600D02*
X188070552Y-83413600D01*
X187548048Y-81943600D02*
X188070552Y-81943600D01*
%TO.C,R3*%
X193944300Y-73651536D02*
X193944300Y-74105664D01*
X192474300Y-73651536D02*
X192474300Y-74105664D01*
%TO.C,R9*%
X197474300Y-78305664D02*
X197474300Y-77851536D01*
X198944300Y-78305664D02*
X198944300Y-77851536D01*
%TD*%
M02*
