%TF.GenerationSoftware,KiCad,Pcbnew,(6.0.1)*%
%TF.CreationDate,2023-02-17T13:15:31+03:00*%
%TF.ProjectId,_______ IGBT,14403039-3235-4402-9049-4742542e6b69,rev?*%
%TF.SameCoordinates,Original*%
%TF.FileFunction,Copper,L3,Inr*%
%TF.FilePolarity,Positive*%
%FSLAX46Y46*%
G04 Gerber Fmt 4.6, Leading zero omitted, Abs format (unit mm)*
G04 Created by KiCad (PCBNEW (6.0.1)) date 2023-02-17 13:15:31*
%MOMM*%
%LPD*%
G01*
G04 APERTURE LIST*
G04 Aperture macros list*
%AMRoundRect*
0 Rectangle with rounded corners*
0 $1 Rounding radius*
0 $2 $3 $4 $5 $6 $7 $8 $9 X,Y pos of 4 corners*
0 Add a 4 corners polygon primitive as box body*
4,1,4,$2,$3,$4,$5,$6,$7,$8,$9,$2,$3,0*
0 Add four circle primitives for the rounded corners*
1,1,$1+$1,$2,$3*
1,1,$1+$1,$4,$5*
1,1,$1+$1,$6,$7*
1,1,$1+$1,$8,$9*
0 Add four rect primitives between the rounded corners*
20,1,$1+$1,$2,$3,$4,$5,0*
20,1,$1+$1,$4,$5,$6,$7,0*
20,1,$1+$1,$6,$7,$8,$9,0*
20,1,$1+$1,$8,$9,$2,$3,0*%
G04 Aperture macros list end*
%TA.AperFunction,ComponentPad*%
%ADD10C,2.400000*%
%TD*%
%TA.AperFunction,ComponentPad*%
%ADD11R,2.500000X4.500000*%
%TD*%
%TA.AperFunction,ComponentPad*%
%ADD12O,2.500000X4.500000*%
%TD*%
%TA.AperFunction,ComponentPad*%
%ADD13RoundRect,0.250001X-0.499999X-0.499999X0.499999X-0.499999X0.499999X0.499999X-0.499999X0.499999X0*%
%TD*%
%TA.AperFunction,ComponentPad*%
%ADD14C,1.500000*%
%TD*%
%TA.AperFunction,ComponentPad*%
%ADD15RoundRect,0.250001X0.499999X-0.499999X0.499999X0.499999X-0.499999X0.499999X-0.499999X-0.499999X0*%
%TD*%
%TA.AperFunction,ComponentPad*%
%ADD16RoundRect,0.250001X-0.499999X0.499999X-0.499999X-0.499999X0.499999X-0.499999X0.499999X0.499999X0*%
%TD*%
%TA.AperFunction,ComponentPad*%
%ADD17C,1.524000*%
%TD*%
%TA.AperFunction,ViaPad*%
%ADD18C,0.800000*%
%TD*%
%TA.AperFunction,ViaPad*%
%ADD19C,2.400000*%
%TD*%
G04 APERTURE END LIST*
D10*
%TO.N,DC+*%
%TO.C,C1*%
X122020300Y-116728100D03*
%TO.N,DC-*%
X122020300Y-89228100D03*
%TD*%
D11*
%TO.N,G_IGBT*%
%TO.C,Q1*%
X163041300Y-123170000D03*
D12*
%TO.N,D_IGBT*%
X157591300Y-123170000D03*
%TO.N,DC-*%
X152141300Y-123170000D03*
%TD*%
D13*
%TO.N,+15V*%
%TO.C,J3*%
X151484300Y-68023600D03*
D14*
%TO.N,Measure*%
X154484300Y-68023600D03*
%TO.N,IN-*%
X157484300Y-68023600D03*
%TO.N,IN+*%
X160484300Y-68023600D03*
%TO.N,GNDA*%
X151484300Y-71023600D03*
%TO.N,RST*%
X154484300Y-71023600D03*
%TO.N,FLT*%
X157484300Y-71023600D03*
%TO.N,RDY*%
X160484300Y-71023600D03*
%TD*%
D15*
%TO.N,DC+*%
%TO.C,J1*%
X107034300Y-116283600D03*
D14*
X107034300Y-113283600D03*
X107034300Y-110283600D03*
X107034300Y-107283600D03*
X110034300Y-116283600D03*
X110034300Y-113283600D03*
X110034300Y-110283600D03*
X110034300Y-107283600D03*
%TD*%
D15*
%TO.N,DC-*%
%TO.C,J2*%
X107034300Y-92153600D03*
D14*
X107034300Y-89153600D03*
X107034300Y-86153600D03*
X107034300Y-83153600D03*
X110034300Y-92153600D03*
X110034300Y-89153600D03*
X110034300Y-86153600D03*
X110034300Y-83153600D03*
%TD*%
D16*
%TO.N,OUT-*%
%TO.C,J4*%
X207364300Y-83263600D03*
D14*
X207364300Y-86263600D03*
X207364300Y-89263600D03*
X207364300Y-92263600D03*
X204364300Y-83263600D03*
X204364300Y-86263600D03*
X204364300Y-89263600D03*
X204364300Y-92263600D03*
%TD*%
D16*
%TO.N,DC+*%
%TO.C,J5*%
X207364300Y-107393600D03*
D14*
X207364300Y-110393600D03*
X207364300Y-113393600D03*
X207364300Y-116393600D03*
X204364300Y-107393600D03*
X204364300Y-110393600D03*
X204364300Y-113393600D03*
X204364300Y-116393600D03*
%TD*%
D11*
%TO.N,DC+*%
%TO.C,D1*%
X143655000Y-123170000D03*
D12*
%TO.N,D_IGBT*%
X132755000Y-123170000D03*
%TD*%
D17*
%TO.N,+15V*%
%TO.C,D8*%
X135482300Y-73992600D03*
%TO.N,GNDA*%
X135482300Y-76532600D03*
%TO.N,DC-*%
X135482300Y-81612600D03*
%TO.N,N/C*%
X135482300Y-84152600D03*
%TO.N,+15V_H*%
X135482300Y-86692600D03*
%TD*%
D18*
%TO.N,Desat*%
X170788300Y-99392600D03*
%TO.N,Net-(R12-Pad2)*%
X182409300Y-75878600D03*
%TO.N,GNDA*%
X190409300Y-74878600D03*
%TO.N,+5V*%
X191809300Y-74878600D03*
%TO.N,GNDA*%
X202209300Y-79078600D03*
%TO.N,+5V*%
X184609300Y-80878600D03*
%TO.N,GNDA*%
X190984300Y-80903600D03*
%TO.N,+15V_H*%
X172756800Y-99456100D03*
X164819300Y-93550600D03*
%TO.N,+5V*%
X149374800Y-86424600D03*
X155675300Y-80850600D03*
X176609300Y-80478600D03*
%TO.N,RDY*%
X164819300Y-78818600D03*
%TO.N,D_IGBT*%
X172409300Y-123078600D03*
%TO.N,GNDA*%
X156945300Y-79961600D03*
X168629300Y-80215600D03*
X168209300Y-71878600D03*
X176609300Y-72678600D03*
X181809300Y-69078600D03*
X141922800Y-76496100D03*
X148323300Y-83023600D03*
%TO.N,IN-*%
X166089300Y-78818600D03*
%TO.N,IN+*%
X167359300Y-78818600D03*
%TO.N,DC-*%
X162279300Y-93677600D03*
X141995800Y-82411100D03*
X170558800Y-93780100D03*
X159739300Y-93677600D03*
%TO.N,Desat*%
X159176800Y-95764100D03*
D19*
%TO.N,DC+*%
X138530300Y-116029600D03*
D18*
%TO.N,+3V3*%
X149388800Y-88788100D03*
X158596300Y-76215100D03*
%TO.N,Net-(R4-Pad2)*%
X159158800Y-97814100D03*
X177836800Y-99837100D03*
%TD*%
%TA.AperFunction,Conductor*%
%TO.N,+15V_H*%
G36*
X141393421Y-85442602D02*
G01*
X141439914Y-85496258D01*
X141451300Y-85548600D01*
X141451300Y-92788600D01*
X159046236Y-92788600D01*
X159114357Y-92808602D01*
X159160850Y-92862258D01*
X159170954Y-92932532D01*
X159141460Y-92997112D01*
X159135429Y-93003259D01*
X159133429Y-93004712D01*
X159129015Y-93009614D01*
X159129013Y-93009616D01*
X159011186Y-93140476D01*
X159006767Y-93145384D01*
X158912121Y-93309316D01*
X158853626Y-93489344D01*
X158833840Y-93677600D01*
X158853626Y-93865856D01*
X158912121Y-94045884D01*
X159006767Y-94209816D01*
X159011185Y-94214723D01*
X159011186Y-94214724D01*
X159099059Y-94312316D01*
X159133429Y-94350488D01*
X159138768Y-94354367D01*
X159279848Y-94456867D01*
X159286570Y-94461751D01*
X159459497Y-94538744D01*
X159557512Y-94559578D01*
X159638197Y-94576728D01*
X159638201Y-94576728D01*
X159644654Y-94578100D01*
X159833946Y-94578100D01*
X159840399Y-94576728D01*
X159840403Y-94576728D01*
X159921088Y-94559578D01*
X160019103Y-94538744D01*
X160192030Y-94461751D01*
X160198753Y-94456867D01*
X160339832Y-94354367D01*
X160345171Y-94350488D01*
X160379542Y-94312316D01*
X160467414Y-94214724D01*
X160467415Y-94214723D01*
X160471833Y-94209816D01*
X160566479Y-94045884D01*
X160624974Y-93865856D01*
X160644760Y-93677600D01*
X160624974Y-93489344D01*
X160566479Y-93309316D01*
X160471833Y-93145384D01*
X160467414Y-93140476D01*
X160349587Y-93009616D01*
X160349585Y-93009614D01*
X160345171Y-93004712D01*
X160345629Y-93004299D01*
X160310815Y-92947793D01*
X160312165Y-92876810D01*
X160351677Y-92817824D01*
X160416807Y-92789564D01*
X160432364Y-92788600D01*
X161586236Y-92788600D01*
X161654357Y-92808602D01*
X161700850Y-92862258D01*
X161710954Y-92932532D01*
X161681460Y-92997112D01*
X161675429Y-93003259D01*
X161673429Y-93004712D01*
X161669015Y-93009614D01*
X161669013Y-93009616D01*
X161551186Y-93140476D01*
X161546767Y-93145384D01*
X161452121Y-93309316D01*
X161393626Y-93489344D01*
X161373840Y-93677600D01*
X161393626Y-93865856D01*
X161452121Y-94045884D01*
X161546767Y-94209816D01*
X161551185Y-94214723D01*
X161551186Y-94214724D01*
X161639059Y-94312316D01*
X161673429Y-94350488D01*
X161678768Y-94354367D01*
X161819848Y-94456867D01*
X161826570Y-94461751D01*
X161999497Y-94538744D01*
X162097512Y-94559578D01*
X162178197Y-94576728D01*
X162178201Y-94576728D01*
X162184654Y-94578100D01*
X162373946Y-94578100D01*
X162380399Y-94576728D01*
X162380403Y-94576728D01*
X162461088Y-94559578D01*
X162559103Y-94538744D01*
X162732030Y-94461751D01*
X162738753Y-94456867D01*
X162879832Y-94354367D01*
X162885171Y-94350488D01*
X162919542Y-94312316D01*
X163007414Y-94214724D01*
X163007415Y-94214723D01*
X163011833Y-94209816D01*
X163106479Y-94045884D01*
X163164974Y-93865856D01*
X163184760Y-93677600D01*
X163164974Y-93489344D01*
X163106479Y-93309316D01*
X163011833Y-93145384D01*
X163007414Y-93140476D01*
X162889587Y-93009616D01*
X162889585Y-93009614D01*
X162885171Y-93004712D01*
X162885629Y-93004299D01*
X162850815Y-92947793D01*
X162852165Y-92876810D01*
X162891677Y-92817824D01*
X162956807Y-92789564D01*
X162972364Y-92788600D01*
X170003673Y-92788600D01*
X170071794Y-92808602D01*
X170118287Y-92862258D01*
X170128391Y-92932532D01*
X170098897Y-92997112D01*
X170077734Y-93016536D01*
X169952929Y-93107212D01*
X169948516Y-93112114D01*
X169948514Y-93112115D01*
X169913407Y-93151105D01*
X169826267Y-93247884D01*
X169731621Y-93411816D01*
X169673126Y-93591844D01*
X169653340Y-93780100D01*
X169673126Y-93968356D01*
X169731621Y-94148384D01*
X169826267Y-94312316D01*
X169830685Y-94317223D01*
X169830686Y-94317224D01*
X169856223Y-94345585D01*
X169952929Y-94452988D01*
X170106070Y-94564251D01*
X170278997Y-94641244D01*
X170377012Y-94662078D01*
X170457697Y-94679228D01*
X170457701Y-94679228D01*
X170464154Y-94680600D01*
X170653446Y-94680600D01*
X170659899Y-94679228D01*
X170659903Y-94679228D01*
X170740588Y-94662078D01*
X170838603Y-94641244D01*
X171011530Y-94564251D01*
X171164671Y-94452988D01*
X171261378Y-94345585D01*
X171286914Y-94317224D01*
X171286915Y-94317223D01*
X171291333Y-94312316D01*
X171385979Y-94148384D01*
X171444474Y-93968356D01*
X171464260Y-93780100D01*
X171444474Y-93591844D01*
X171385979Y-93411816D01*
X171291333Y-93247884D01*
X171204193Y-93151105D01*
X171169086Y-93112115D01*
X171169084Y-93112114D01*
X171164671Y-93107212D01*
X171039866Y-93016536D01*
X170996512Y-92960314D01*
X170990437Y-92889578D01*
X171023568Y-92826786D01*
X171085388Y-92791875D01*
X171113927Y-92788600D01*
X173583300Y-92788600D01*
X173651421Y-92808602D01*
X173697914Y-92862258D01*
X173709300Y-92914600D01*
X173709300Y-100028600D01*
X173689298Y-100096721D01*
X173635642Y-100143214D01*
X173583300Y-100154600D01*
X171596935Y-100154600D01*
X171528814Y-100134598D01*
X171482321Y-100080942D01*
X171472217Y-100010668D01*
X171503300Y-99944288D01*
X171516414Y-99929724D01*
X171516415Y-99929723D01*
X171520833Y-99924816D01*
X171615479Y-99760884D01*
X171673974Y-99580856D01*
X171693760Y-99392600D01*
X171673974Y-99204344D01*
X171615479Y-99024316D01*
X171520833Y-98860384D01*
X171394171Y-98719712D01*
X171241030Y-98608449D01*
X171068103Y-98531456D01*
X170970088Y-98510622D01*
X170889403Y-98493472D01*
X170889399Y-98493472D01*
X170882946Y-98492100D01*
X170693654Y-98492100D01*
X170687201Y-98493472D01*
X170687197Y-98493472D01*
X170606512Y-98510622D01*
X170508497Y-98531456D01*
X170335570Y-98608449D01*
X170182429Y-98719712D01*
X170055767Y-98860384D01*
X169961121Y-99024316D01*
X169902626Y-99204344D01*
X169882840Y-99392600D01*
X169902626Y-99580856D01*
X169961121Y-99760884D01*
X170055767Y-99924816D01*
X170060185Y-99929723D01*
X170060186Y-99929724D01*
X170073300Y-99944288D01*
X170104018Y-100008296D01*
X170095255Y-100078749D01*
X170049793Y-100133281D01*
X169979665Y-100154600D01*
X134465300Y-100154600D01*
X134397179Y-100134598D01*
X134350686Y-100080942D01*
X134339300Y-100028600D01*
X134339300Y-97814100D01*
X158253340Y-97814100D01*
X158273126Y-98002356D01*
X158331621Y-98182384D01*
X158426267Y-98346316D01*
X158552929Y-98486988D01*
X158706070Y-98598251D01*
X158878997Y-98675244D01*
X158977012Y-98696078D01*
X159057697Y-98713228D01*
X159057701Y-98713228D01*
X159064154Y-98714600D01*
X159253446Y-98714600D01*
X159259899Y-98713228D01*
X159259903Y-98713228D01*
X159340588Y-98696078D01*
X159438603Y-98675244D01*
X159611530Y-98598251D01*
X159764671Y-98486988D01*
X159891333Y-98346316D01*
X159985979Y-98182384D01*
X160044474Y-98002356D01*
X160064260Y-97814100D01*
X160044474Y-97625844D01*
X159985979Y-97445816D01*
X159891333Y-97281884D01*
X159764671Y-97141212D01*
X159611530Y-97029949D01*
X159438603Y-96952956D01*
X159253446Y-96913600D01*
X159253916Y-96911390D01*
X159197900Y-96888349D01*
X159166597Y-96843499D01*
X159144965Y-96880162D01*
X159081556Y-96912097D01*
X159072050Y-96913464D01*
X159070756Y-96913600D01*
X159064154Y-96913600D01*
X158878997Y-96952956D01*
X158706070Y-97029949D01*
X158552929Y-97141212D01*
X158426267Y-97281884D01*
X158331621Y-97445816D01*
X158273126Y-97625844D01*
X158253340Y-97814100D01*
X134339300Y-97814100D01*
X134339300Y-95764100D01*
X158271340Y-95764100D01*
X158291126Y-95952356D01*
X158349621Y-96132384D01*
X158444267Y-96296316D01*
X158570929Y-96436988D01*
X158724070Y-96548251D01*
X158896997Y-96625244D01*
X159082154Y-96664600D01*
X159081684Y-96666810D01*
X159137700Y-96689851D01*
X159169003Y-96734701D01*
X159190635Y-96698038D01*
X159254044Y-96666103D01*
X159263550Y-96664736D01*
X159264844Y-96664600D01*
X159271446Y-96664600D01*
X159456603Y-96625244D01*
X159629530Y-96548251D01*
X159782671Y-96436988D01*
X159909333Y-96296316D01*
X160003979Y-96132384D01*
X160062474Y-95952356D01*
X160082260Y-95764100D01*
X160062474Y-95575844D01*
X160003979Y-95395816D01*
X159909333Y-95231884D01*
X159782671Y-95091212D01*
X159629530Y-94979949D01*
X159456603Y-94902956D01*
X159358588Y-94882122D01*
X159277903Y-94864972D01*
X159277899Y-94864972D01*
X159271446Y-94863600D01*
X159082154Y-94863600D01*
X159075701Y-94864972D01*
X159075697Y-94864972D01*
X158995012Y-94882122D01*
X158896997Y-94902956D01*
X158724070Y-94979949D01*
X158570929Y-95091212D01*
X158444267Y-95231884D01*
X158349621Y-95395816D01*
X158291126Y-95575844D01*
X158271340Y-95764100D01*
X134339300Y-95764100D01*
X134339300Y-85548600D01*
X134359302Y-85480479D01*
X134412958Y-85433986D01*
X134465300Y-85422600D01*
X141325300Y-85422600D01*
X141393421Y-85442602D01*
G37*
%TD.AperFunction*%
%TD*%
%TA.AperFunction,Conductor*%
%TO.N,+5V*%
G36*
X178124981Y-59000100D02*
G01*
X178139257Y-59002323D01*
X178139259Y-59002323D01*
X178148129Y-59003704D01*
X178157032Y-59002540D01*
X178157033Y-59002540D01*
X178168536Y-59001036D01*
X178190077Y-59000080D01*
X178392907Y-59008469D01*
X178579745Y-59016197D01*
X178590123Y-59017057D01*
X178851144Y-59049593D01*
X179007492Y-59069082D01*
X179017756Y-59070794D01*
X179128481Y-59094011D01*
X179429402Y-59157108D01*
X179439497Y-59159664D01*
X179842618Y-59279678D01*
X179852460Y-59283056D01*
X180244312Y-59435958D01*
X180253811Y-59440125D01*
X180631683Y-59624856D01*
X180640841Y-59629812D01*
X181002153Y-59845107D01*
X181010872Y-59850803D01*
X181353175Y-60095203D01*
X181361393Y-60101599D01*
X181682357Y-60373441D01*
X181690018Y-60380495D01*
X181987405Y-60677882D01*
X181994459Y-60685543D01*
X182266301Y-61006507D01*
X182272697Y-61014725D01*
X182517097Y-61357028D01*
X182522793Y-61365747D01*
X182723812Y-61703100D01*
X182738088Y-61727059D01*
X182743043Y-61736215D01*
X182920111Y-62098411D01*
X182927771Y-62114080D01*
X182931942Y-62123588D01*
X183071545Y-62481358D01*
X183084841Y-62515432D01*
X183088222Y-62525282D01*
X183208236Y-62928403D01*
X183210792Y-62938498D01*
X183261167Y-63178746D01*
X183291386Y-63322863D01*
X183297105Y-63350140D01*
X183298819Y-63360412D01*
X183350843Y-63777777D01*
X183351703Y-63788155D01*
X183367249Y-64163995D01*
X183367516Y-64170458D01*
X183366123Y-64195051D01*
X183364196Y-64207429D01*
X183365360Y-64216331D01*
X183365360Y-64216334D01*
X183368236Y-64238325D01*
X183369300Y-64254662D01*
X183369300Y-64796066D01*
X183367554Y-64816970D01*
X183364309Y-64836258D01*
X183364158Y-64848600D01*
X183364846Y-64853409D01*
X183365163Y-64858273D01*
X183365080Y-64858278D01*
X183365478Y-64862700D01*
X183382342Y-65313373D01*
X183382606Y-65315716D01*
X183424582Y-65688263D01*
X183434416Y-65775546D01*
X183434857Y-65777876D01*
X183501257Y-66128807D01*
X183520883Y-66232535D01*
X183641259Y-66681785D01*
X183794872Y-67120783D01*
X183980860Y-67547074D01*
X183981967Y-67549168D01*
X184197084Y-67956190D01*
X184197091Y-67956202D01*
X184198186Y-67958274D01*
X184199433Y-67960258D01*
X184199439Y-67960269D01*
X184411857Y-68298330D01*
X184445633Y-68352084D01*
X184721817Y-68726300D01*
X185025195Y-69078831D01*
X185354069Y-69407705D01*
X185706600Y-69711083D01*
X185811926Y-69788817D01*
X186016425Y-69939744D01*
X186080816Y-69987267D01*
X186082809Y-69988519D01*
X186082813Y-69988522D01*
X186472631Y-70233461D01*
X186472642Y-70233467D01*
X186474626Y-70234714D01*
X186476698Y-70235809D01*
X186476710Y-70235816D01*
X186706636Y-70357335D01*
X186885826Y-70452040D01*
X187312117Y-70638028D01*
X187751115Y-70791641D01*
X187753386Y-70792249D01*
X187753394Y-70792252D01*
X188064173Y-70875524D01*
X188200365Y-70912017D01*
X188202676Y-70912454D01*
X188202688Y-70912457D01*
X188549622Y-70978100D01*
X188657354Y-70998484D01*
X188659694Y-70998748D01*
X188659703Y-70998749D01*
X188880266Y-71023600D01*
X189119527Y-71050558D01*
X189385090Y-71060495D01*
X189555366Y-71066866D01*
X189562289Y-71067574D01*
X189562309Y-71067348D01*
X189567158Y-71067783D01*
X189571958Y-71068591D01*
X189576819Y-71068650D01*
X189576825Y-71068651D01*
X189579441Y-71068683D01*
X189579447Y-71068683D01*
X189584300Y-71068742D01*
X189611316Y-71064873D01*
X189629178Y-71063600D01*
X209154300Y-71063600D01*
X209222421Y-71083602D01*
X209268914Y-71137258D01*
X209280300Y-71189600D01*
X209280300Y-81232600D01*
X209260298Y-81300721D01*
X209206642Y-81347214D01*
X209154300Y-81358600D01*
X191956727Y-81358600D01*
X191888606Y-81338598D01*
X191842113Y-81284942D01*
X191832009Y-81214668D01*
X191836892Y-81193671D01*
X191869974Y-81091856D01*
X191871563Y-81076744D01*
X191889070Y-80910165D01*
X191889760Y-80903600D01*
X191869974Y-80715344D01*
X191811479Y-80535316D01*
X191716833Y-80371384D01*
X191590171Y-80230712D01*
X191437030Y-80119449D01*
X191264103Y-80042456D01*
X191163470Y-80021066D01*
X191085403Y-80004472D01*
X191085399Y-80004472D01*
X191078946Y-80003100D01*
X190889654Y-80003100D01*
X190883201Y-80004472D01*
X190883197Y-80004472D01*
X190805130Y-80021066D01*
X190704497Y-80042456D01*
X190531570Y-80119449D01*
X190378429Y-80230712D01*
X190251767Y-80371384D01*
X190157121Y-80535316D01*
X190098626Y-80715344D01*
X190078840Y-80903600D01*
X190079530Y-80910165D01*
X190097038Y-81076744D01*
X190098626Y-81091856D01*
X190131706Y-81193665D01*
X190133734Y-81264631D01*
X190097072Y-81325429D01*
X190033359Y-81356754D01*
X190011873Y-81358600D01*
X168781885Y-81358600D01*
X168713764Y-81338598D01*
X168667271Y-81284942D01*
X168657167Y-81214668D01*
X168686661Y-81150088D01*
X168746387Y-81111704D01*
X168755688Y-81109353D01*
X168909103Y-81076744D01*
X169082030Y-80999751D01*
X169235171Y-80888488D01*
X169260167Y-80860728D01*
X169357414Y-80752724D01*
X169357415Y-80752723D01*
X169361833Y-80747816D01*
X169456479Y-80583884D01*
X169514974Y-80403856D01*
X169534760Y-80215600D01*
X169516845Y-80045145D01*
X169515664Y-80033907D01*
X169515664Y-80033905D01*
X169514974Y-80027344D01*
X169456479Y-79847316D01*
X169417561Y-79779907D01*
X169365136Y-79689105D01*
X169361833Y-79683384D01*
X169357414Y-79678476D01*
X169239586Y-79547615D01*
X169239584Y-79547614D01*
X169235171Y-79542712D01*
X169157919Y-79486585D01*
X169087372Y-79435330D01*
X169087371Y-79435329D01*
X169082030Y-79431449D01*
X168909103Y-79354456D01*
X168811088Y-79333622D01*
X168730403Y-79316472D01*
X168730399Y-79316472D01*
X168723946Y-79315100D01*
X168534654Y-79315100D01*
X168528201Y-79316472D01*
X168528197Y-79316472D01*
X168355950Y-79353084D01*
X168355947Y-79353085D01*
X168349497Y-79354456D01*
X168343466Y-79357141D01*
X168339574Y-79358406D01*
X168268607Y-79360437D01*
X168207807Y-79323777D01*
X168176479Y-79260066D01*
X168185335Y-79188865D01*
X168186479Y-79186884D01*
X168190418Y-79174763D01*
X168221663Y-79078600D01*
X201303840Y-79078600D01*
X201323626Y-79266856D01*
X201382121Y-79446884D01*
X201476767Y-79610816D01*
X201481185Y-79615723D01*
X201481186Y-79615724D01*
X201574267Y-79719100D01*
X201603429Y-79751488D01*
X201608768Y-79755367D01*
X201743971Y-79853597D01*
X201756570Y-79862751D01*
X201929497Y-79939744D01*
X202027512Y-79960578D01*
X202108197Y-79977728D01*
X202108201Y-79977728D01*
X202114654Y-79979100D01*
X202303946Y-79979100D01*
X202310399Y-79977728D01*
X202310403Y-79977728D01*
X202391088Y-79960578D01*
X202489103Y-79939744D01*
X202662030Y-79862751D01*
X202674630Y-79853597D01*
X202809832Y-79755367D01*
X202815171Y-79751488D01*
X202844334Y-79719100D01*
X202937414Y-79615724D01*
X202937415Y-79615723D01*
X202941833Y-79610816D01*
X203036479Y-79446884D01*
X203094974Y-79266856D01*
X203114760Y-79078600D01*
X203094974Y-78890344D01*
X203036479Y-78710316D01*
X202941833Y-78546384D01*
X202815171Y-78405712D01*
X202662030Y-78294449D01*
X202489103Y-78217456D01*
X202391088Y-78196622D01*
X202310403Y-78179472D01*
X202310399Y-78179472D01*
X202303946Y-78178100D01*
X202114654Y-78178100D01*
X202108201Y-78179472D01*
X202108197Y-78179472D01*
X202027512Y-78196622D01*
X201929497Y-78217456D01*
X201756570Y-78294449D01*
X201603429Y-78405712D01*
X201476767Y-78546384D01*
X201382121Y-78710316D01*
X201323626Y-78890344D01*
X201303840Y-79078600D01*
X168221663Y-79078600D01*
X168242934Y-79013134D01*
X168244974Y-79006856D01*
X168264760Y-78818600D01*
X168244974Y-78630344D01*
X168186479Y-78450316D01*
X168091833Y-78286384D01*
X167995569Y-78179472D01*
X167969586Y-78150615D01*
X167969584Y-78150614D01*
X167965171Y-78145712D01*
X167812030Y-78034449D01*
X167639103Y-77957456D01*
X167541088Y-77936622D01*
X167460403Y-77919472D01*
X167460399Y-77919472D01*
X167453946Y-77918100D01*
X167264654Y-77918100D01*
X167258201Y-77919472D01*
X167258197Y-77919472D01*
X167177512Y-77936622D01*
X167079497Y-77957456D01*
X166906570Y-78034449D01*
X166901229Y-78038329D01*
X166901228Y-78038330D01*
X166798361Y-78113067D01*
X166731493Y-78136926D01*
X166662341Y-78120845D01*
X166650239Y-78113067D01*
X166547372Y-78038330D01*
X166547371Y-78038329D01*
X166542030Y-78034449D01*
X166369103Y-77957456D01*
X166271088Y-77936622D01*
X166190403Y-77919472D01*
X166190399Y-77919472D01*
X166183946Y-77918100D01*
X165994654Y-77918100D01*
X165988201Y-77919472D01*
X165988197Y-77919472D01*
X165907512Y-77936622D01*
X165809497Y-77957456D01*
X165636570Y-78034449D01*
X165631229Y-78038329D01*
X165631228Y-78038330D01*
X165528361Y-78113067D01*
X165461493Y-78136926D01*
X165392341Y-78120845D01*
X165380239Y-78113067D01*
X165277372Y-78038330D01*
X165277371Y-78038329D01*
X165272030Y-78034449D01*
X165099103Y-77957456D01*
X165001088Y-77936622D01*
X164920403Y-77919472D01*
X164920399Y-77919472D01*
X164913946Y-77918100D01*
X164724654Y-77918100D01*
X164718201Y-77919472D01*
X164718197Y-77919472D01*
X164637512Y-77936622D01*
X164539497Y-77957456D01*
X164366570Y-78034449D01*
X164213429Y-78145712D01*
X164209016Y-78150614D01*
X164209014Y-78150615D01*
X164183031Y-78179472D01*
X164086767Y-78286384D01*
X163992121Y-78450316D01*
X163933626Y-78630344D01*
X163913840Y-78818600D01*
X163933626Y-79006856D01*
X163992121Y-79186884D01*
X163995424Y-79192606D01*
X163995425Y-79192607D01*
X164034504Y-79260293D01*
X164086767Y-79350816D01*
X164091185Y-79355723D01*
X164091186Y-79355724D01*
X164092466Y-79357145D01*
X164213429Y-79491488D01*
X164366570Y-79602751D01*
X164539497Y-79679744D01*
X164637512Y-79700578D01*
X164718197Y-79717728D01*
X164718201Y-79717728D01*
X164724654Y-79719100D01*
X164913946Y-79719100D01*
X164920399Y-79717728D01*
X164920403Y-79717728D01*
X165001088Y-79700578D01*
X165099103Y-79679744D01*
X165272030Y-79602751D01*
X165292894Y-79587593D01*
X165380239Y-79524133D01*
X165447107Y-79500274D01*
X165516259Y-79516355D01*
X165528361Y-79524133D01*
X165615707Y-79587593D01*
X165636570Y-79602751D01*
X165809497Y-79679744D01*
X165907512Y-79700578D01*
X165988197Y-79717728D01*
X165988201Y-79717728D01*
X165994654Y-79719100D01*
X166183946Y-79719100D01*
X166190399Y-79717728D01*
X166190403Y-79717728D01*
X166271088Y-79700578D01*
X166369103Y-79679744D01*
X166542030Y-79602751D01*
X166562894Y-79587593D01*
X166650239Y-79524133D01*
X166717107Y-79500274D01*
X166786259Y-79516355D01*
X166798361Y-79524133D01*
X166885707Y-79587593D01*
X166906570Y-79602751D01*
X167079497Y-79679744D01*
X167177512Y-79700578D01*
X167258197Y-79717728D01*
X167258201Y-79717728D01*
X167264654Y-79719100D01*
X167453946Y-79719100D01*
X167460399Y-79717728D01*
X167460403Y-79717728D01*
X167632650Y-79681116D01*
X167632653Y-79681115D01*
X167639103Y-79679744D01*
X167645134Y-79677059D01*
X167649026Y-79675794D01*
X167719993Y-79673763D01*
X167780793Y-79710423D01*
X167812121Y-79774134D01*
X167803265Y-79845335D01*
X167802121Y-79847316D01*
X167743626Y-80027344D01*
X167742936Y-80033905D01*
X167742936Y-80033907D01*
X167741755Y-80045145D01*
X167723840Y-80215600D01*
X167743626Y-80403856D01*
X167802121Y-80583884D01*
X167896767Y-80747816D01*
X167901185Y-80752723D01*
X167901186Y-80752724D01*
X167998434Y-80860728D01*
X168023429Y-80888488D01*
X168176570Y-80999751D01*
X168349497Y-81076744D01*
X168502912Y-81109353D01*
X168565385Y-81143081D01*
X168599707Y-81205231D01*
X168594979Y-81276070D01*
X168552703Y-81333107D01*
X168486302Y-81358235D01*
X168476715Y-81358600D01*
X156691300Y-81358600D01*
X156691300Y-87392100D01*
X156671298Y-87460221D01*
X156617642Y-87506714D01*
X156565300Y-87518100D01*
X148689300Y-87518100D01*
X148621179Y-87498098D01*
X148574686Y-87444442D01*
X148563300Y-87392100D01*
X148563300Y-83984290D01*
X148583302Y-83916169D01*
X148638051Y-83869184D01*
X148647507Y-83864974D01*
X148776030Y-83807751D01*
X148929171Y-83696488D01*
X149055833Y-83555816D01*
X149123855Y-83437999D01*
X149147175Y-83397607D01*
X149147176Y-83397606D01*
X149150479Y-83391884D01*
X149208974Y-83211856D01*
X149228760Y-83023600D01*
X149208974Y-82835344D01*
X149150479Y-82655316D01*
X149055833Y-82491384D01*
X148929171Y-82350712D01*
X148776030Y-82239449D01*
X148638051Y-82178016D01*
X148583955Y-82132036D01*
X148563300Y-82062910D01*
X148563300Y-79961600D01*
X156039840Y-79961600D01*
X156059626Y-80149856D01*
X156118121Y-80329884D01*
X156121424Y-80335606D01*
X156121425Y-80335607D01*
X156160829Y-80403856D01*
X156212767Y-80493816D01*
X156339429Y-80634488D01*
X156492570Y-80745751D01*
X156665497Y-80822744D01*
X156763512Y-80843578D01*
X156844197Y-80860728D01*
X156844201Y-80860728D01*
X156850654Y-80862100D01*
X157039946Y-80862100D01*
X157046399Y-80860728D01*
X157046403Y-80860728D01*
X157127088Y-80843578D01*
X157225103Y-80822744D01*
X157398030Y-80745751D01*
X157551171Y-80634488D01*
X157677833Y-80493816D01*
X157729771Y-80403856D01*
X157769175Y-80335607D01*
X157769176Y-80335606D01*
X157772479Y-80329884D01*
X157830974Y-80149856D01*
X157850760Y-79961600D01*
X157830974Y-79773344D01*
X157772479Y-79593316D01*
X157677833Y-79429384D01*
X157611509Y-79355724D01*
X157555586Y-79293615D01*
X157555584Y-79293614D01*
X157551171Y-79288712D01*
X157521089Y-79266856D01*
X157403372Y-79181330D01*
X157403371Y-79181329D01*
X157398030Y-79177449D01*
X157225103Y-79100456D01*
X157122278Y-79078600D01*
X157046403Y-79062472D01*
X157046399Y-79062472D01*
X157039946Y-79061100D01*
X156850654Y-79061100D01*
X156844201Y-79062472D01*
X156844197Y-79062472D01*
X156768322Y-79078600D01*
X156665497Y-79100456D01*
X156492570Y-79177449D01*
X156487229Y-79181329D01*
X156487228Y-79181330D01*
X156369511Y-79266856D01*
X156339429Y-79288712D01*
X156335016Y-79293614D01*
X156335014Y-79293615D01*
X156279091Y-79355724D01*
X156212767Y-79429384D01*
X156118121Y-79593316D01*
X156059626Y-79773344D01*
X156039840Y-79961600D01*
X148563300Y-79961600D01*
X148563300Y-76215100D01*
X157690840Y-76215100D01*
X157710626Y-76403356D01*
X157769121Y-76583384D01*
X157863767Y-76747316D01*
X157868185Y-76752223D01*
X157868186Y-76752224D01*
X157892386Y-76779100D01*
X157990429Y-76887988D01*
X158143570Y-76999251D01*
X158316497Y-77076244D01*
X158414512Y-77097078D01*
X158495197Y-77114228D01*
X158495201Y-77114228D01*
X158501654Y-77115600D01*
X158690946Y-77115600D01*
X158697399Y-77114228D01*
X158697403Y-77114228D01*
X158778088Y-77097078D01*
X158876103Y-77076244D01*
X159049030Y-76999251D01*
X159202171Y-76887988D01*
X159300215Y-76779100D01*
X159324414Y-76752224D01*
X159324415Y-76752223D01*
X159328833Y-76747316D01*
X159423479Y-76583384D01*
X159481974Y-76403356D01*
X159501760Y-76215100D01*
X159481974Y-76026844D01*
X159433806Y-75878600D01*
X181503840Y-75878600D01*
X181523626Y-76066856D01*
X181582121Y-76246884D01*
X181676767Y-76410816D01*
X181803429Y-76551488D01*
X181956570Y-76662751D01*
X182129497Y-76739744D01*
X182227512Y-76760578D01*
X182308197Y-76777728D01*
X182308201Y-76777728D01*
X182314654Y-76779100D01*
X182503946Y-76779100D01*
X182510399Y-76777728D01*
X182510403Y-76777728D01*
X182591088Y-76760578D01*
X182689103Y-76739744D01*
X182862030Y-76662751D01*
X183015171Y-76551488D01*
X183141833Y-76410816D01*
X183236479Y-76246884D01*
X183294974Y-76066856D01*
X183314760Y-75878600D01*
X183310818Y-75841093D01*
X183295664Y-75696907D01*
X183295664Y-75696905D01*
X183294974Y-75690344D01*
X183236479Y-75510316D01*
X183141833Y-75346384D01*
X183114450Y-75315972D01*
X183019586Y-75210615D01*
X183019584Y-75210614D01*
X183015171Y-75205712D01*
X182862030Y-75094449D01*
X182689103Y-75017456D01*
X182591088Y-74996622D01*
X182510403Y-74979472D01*
X182510399Y-74979472D01*
X182503946Y-74978100D01*
X182314654Y-74978100D01*
X182308201Y-74979472D01*
X182308197Y-74979472D01*
X182227512Y-74996622D01*
X182129497Y-75017456D01*
X181956570Y-75094449D01*
X181803429Y-75205712D01*
X181799016Y-75210614D01*
X181799014Y-75210615D01*
X181704150Y-75315972D01*
X181676767Y-75346384D01*
X181582121Y-75510316D01*
X181523626Y-75690344D01*
X181522936Y-75696905D01*
X181522936Y-75696907D01*
X181507782Y-75841093D01*
X181503840Y-75878600D01*
X159433806Y-75878600D01*
X159423479Y-75846816D01*
X159328833Y-75682884D01*
X159202171Y-75542212D01*
X159049030Y-75430949D01*
X158876103Y-75353956D01*
X158778088Y-75333122D01*
X158697403Y-75315972D01*
X158697399Y-75315972D01*
X158690946Y-75314600D01*
X158501654Y-75314600D01*
X158495201Y-75315972D01*
X158495197Y-75315972D01*
X158414512Y-75333122D01*
X158316497Y-75353956D01*
X158143570Y-75430949D01*
X157990429Y-75542212D01*
X157863767Y-75682884D01*
X157769121Y-75846816D01*
X157710626Y-76026844D01*
X157690840Y-76215100D01*
X148563300Y-76215100D01*
X148563300Y-74878600D01*
X189503840Y-74878600D01*
X189504530Y-74885165D01*
X189518717Y-75020145D01*
X189523626Y-75066856D01*
X189582121Y-75246884D01*
X189676767Y-75410816D01*
X189681185Y-75415723D01*
X189681186Y-75415724D01*
X189772017Y-75516601D01*
X189803429Y-75551488D01*
X189956570Y-75662751D01*
X190129497Y-75739744D01*
X190227512Y-75760578D01*
X190308197Y-75777728D01*
X190308201Y-75777728D01*
X190314654Y-75779100D01*
X190503946Y-75779100D01*
X190510399Y-75777728D01*
X190510403Y-75777728D01*
X190591088Y-75760578D01*
X190689103Y-75739744D01*
X190862030Y-75662751D01*
X191015171Y-75551488D01*
X191046584Y-75516601D01*
X191137414Y-75415724D01*
X191137415Y-75415723D01*
X191141833Y-75410816D01*
X191236479Y-75246884D01*
X191294974Y-75066856D01*
X191299884Y-75020145D01*
X191314070Y-74885165D01*
X191314760Y-74878600D01*
X191294974Y-74690344D01*
X191236479Y-74510316D01*
X191141833Y-74346384D01*
X191015171Y-74205712D01*
X190862030Y-74094449D01*
X190689103Y-74017456D01*
X190591088Y-73996622D01*
X190510403Y-73979472D01*
X190510399Y-73979472D01*
X190503946Y-73978100D01*
X190314654Y-73978100D01*
X190308201Y-73979472D01*
X190308197Y-73979472D01*
X190227512Y-73996622D01*
X190129497Y-74017456D01*
X189956570Y-74094449D01*
X189803429Y-74205712D01*
X189676767Y-74346384D01*
X189582121Y-74510316D01*
X189523626Y-74690344D01*
X189503840Y-74878600D01*
X148563300Y-74878600D01*
X148563300Y-71023600D01*
X150229023Y-71023600D01*
X150248093Y-71241577D01*
X150304725Y-71452930D01*
X150307047Y-71457910D01*
X150307048Y-71457912D01*
X150331485Y-71510316D01*
X150397198Y-71651238D01*
X150522702Y-71830477D01*
X150677423Y-71985198D01*
X150681931Y-71988355D01*
X150681934Y-71988357D01*
X150803008Y-72073134D01*
X150856661Y-72110702D01*
X150861643Y-72113025D01*
X150861648Y-72113028D01*
X151049988Y-72200852D01*
X151054970Y-72203175D01*
X151060278Y-72204597D01*
X151060280Y-72204598D01*
X151126045Y-72222220D01*
X151266323Y-72259807D01*
X151484300Y-72278877D01*
X151702277Y-72259807D01*
X151842555Y-72222220D01*
X151908320Y-72204598D01*
X151908322Y-72204597D01*
X151913630Y-72203175D01*
X151918612Y-72200852D01*
X152106952Y-72113028D01*
X152106957Y-72113025D01*
X152111939Y-72110702D01*
X152165592Y-72073134D01*
X152286666Y-71988357D01*
X152286669Y-71988355D01*
X152291177Y-71985198D01*
X152445898Y-71830477D01*
X152571402Y-71651238D01*
X152637116Y-71510316D01*
X152661552Y-71457912D01*
X152661553Y-71457910D01*
X152663875Y-71452930D01*
X152720507Y-71241577D01*
X152739577Y-71023600D01*
X153229023Y-71023600D01*
X153248093Y-71241577D01*
X153304725Y-71452930D01*
X153307047Y-71457910D01*
X153307048Y-71457912D01*
X153331485Y-71510316D01*
X153397198Y-71651238D01*
X153522702Y-71830477D01*
X153677423Y-71985198D01*
X153681931Y-71988355D01*
X153681934Y-71988357D01*
X153803008Y-72073134D01*
X153856661Y-72110702D01*
X153861643Y-72113025D01*
X153861648Y-72113028D01*
X154049988Y-72200852D01*
X154054970Y-72203175D01*
X154060278Y-72204597D01*
X154060280Y-72204598D01*
X154126045Y-72222220D01*
X154266323Y-72259807D01*
X154484300Y-72278877D01*
X154702277Y-72259807D01*
X154842555Y-72222220D01*
X154908320Y-72204598D01*
X154908322Y-72204597D01*
X154913630Y-72203175D01*
X154918612Y-72200852D01*
X155106952Y-72113028D01*
X155106957Y-72113025D01*
X155111939Y-72110702D01*
X155165592Y-72073134D01*
X155286666Y-71988357D01*
X155286669Y-71988355D01*
X155291177Y-71985198D01*
X155445898Y-71830477D01*
X155571402Y-71651238D01*
X155637116Y-71510316D01*
X155661552Y-71457912D01*
X155661553Y-71457910D01*
X155663875Y-71452930D01*
X155720507Y-71241577D01*
X155739577Y-71023600D01*
X156229023Y-71023600D01*
X156248093Y-71241577D01*
X156304725Y-71452930D01*
X156307047Y-71457910D01*
X156307048Y-71457912D01*
X156331485Y-71510316D01*
X156397198Y-71651238D01*
X156522702Y-71830477D01*
X156677423Y-71985198D01*
X156681931Y-71988355D01*
X156681934Y-71988357D01*
X156803008Y-72073134D01*
X156856661Y-72110702D01*
X156861643Y-72113025D01*
X156861648Y-72113028D01*
X157049988Y-72200852D01*
X157054970Y-72203175D01*
X157060278Y-72204597D01*
X157060280Y-72204598D01*
X157126045Y-72222220D01*
X157266323Y-72259807D01*
X157484300Y-72278877D01*
X157702277Y-72259807D01*
X157842555Y-72222220D01*
X157908320Y-72204598D01*
X157908322Y-72204597D01*
X157913630Y-72203175D01*
X157918612Y-72200852D01*
X158106952Y-72113028D01*
X158106957Y-72113025D01*
X158111939Y-72110702D01*
X158165592Y-72073134D01*
X158286666Y-71988357D01*
X158286669Y-71988355D01*
X158291177Y-71985198D01*
X158445898Y-71830477D01*
X158571402Y-71651238D01*
X158637116Y-71510316D01*
X158661552Y-71457912D01*
X158661553Y-71457910D01*
X158663875Y-71452930D01*
X158720507Y-71241577D01*
X158739577Y-71023600D01*
X159229023Y-71023600D01*
X159248093Y-71241577D01*
X159304725Y-71452930D01*
X159307047Y-71457910D01*
X159307048Y-71457912D01*
X159331485Y-71510316D01*
X159397198Y-71651238D01*
X159522702Y-71830477D01*
X159677423Y-71985198D01*
X159681931Y-71988355D01*
X159681934Y-71988357D01*
X159803008Y-72073134D01*
X159856661Y-72110702D01*
X159861643Y-72113025D01*
X159861648Y-72113028D01*
X160049988Y-72200852D01*
X160054970Y-72203175D01*
X160060278Y-72204597D01*
X160060280Y-72204598D01*
X160126045Y-72222220D01*
X160266323Y-72259807D01*
X160484300Y-72278877D01*
X160702277Y-72259807D01*
X160842555Y-72222220D01*
X160908320Y-72204598D01*
X160908322Y-72204597D01*
X160913630Y-72203175D01*
X160918612Y-72200852D01*
X161106952Y-72113028D01*
X161106957Y-72113025D01*
X161111939Y-72110702D01*
X161165592Y-72073134D01*
X161286666Y-71988357D01*
X161286669Y-71988355D01*
X161291177Y-71985198D01*
X161397775Y-71878600D01*
X167303840Y-71878600D01*
X167304530Y-71885165D01*
X167315044Y-71985198D01*
X167323626Y-72066856D01*
X167382121Y-72246884D01*
X167385424Y-72252606D01*
X167385425Y-72252607D01*
X167400592Y-72278877D01*
X167476767Y-72410816D01*
X167481185Y-72415723D01*
X167481186Y-72415724D01*
X167548375Y-72490344D01*
X167603429Y-72551488D01*
X167756570Y-72662751D01*
X167929497Y-72739744D01*
X168027512Y-72760578D01*
X168108197Y-72777728D01*
X168108201Y-72777728D01*
X168114654Y-72779100D01*
X168303946Y-72779100D01*
X168310399Y-72777728D01*
X168310403Y-72777728D01*
X168391088Y-72760578D01*
X168489103Y-72739744D01*
X168626433Y-72678600D01*
X175703840Y-72678600D01*
X175704530Y-72685165D01*
X175714259Y-72777728D01*
X175723626Y-72866856D01*
X175782121Y-73046884D01*
X175876767Y-73210816D01*
X176003429Y-73351488D01*
X176156570Y-73462751D01*
X176329497Y-73539744D01*
X176427512Y-73560578D01*
X176508197Y-73577728D01*
X176508201Y-73577728D01*
X176514654Y-73579100D01*
X176703946Y-73579100D01*
X176710399Y-73577728D01*
X176710403Y-73577728D01*
X176791088Y-73560578D01*
X176889103Y-73539744D01*
X177062030Y-73462751D01*
X177215171Y-73351488D01*
X177341833Y-73210816D01*
X177436479Y-73046884D01*
X177494974Y-72866856D01*
X177504342Y-72777728D01*
X177514070Y-72685165D01*
X177514760Y-72678600D01*
X177494974Y-72490344D01*
X177436479Y-72310316D01*
X177341833Y-72146384D01*
X177275878Y-72073134D01*
X177219586Y-72010615D01*
X177219584Y-72010614D01*
X177215171Y-72005712D01*
X177062030Y-71894449D01*
X176889103Y-71817456D01*
X176791088Y-71796622D01*
X176710403Y-71779472D01*
X176710399Y-71779472D01*
X176703946Y-71778100D01*
X176514654Y-71778100D01*
X176508201Y-71779472D01*
X176508197Y-71779472D01*
X176427512Y-71796622D01*
X176329497Y-71817456D01*
X176156570Y-71894449D01*
X176003429Y-72005712D01*
X175999016Y-72010614D01*
X175999014Y-72010615D01*
X175942722Y-72073134D01*
X175876767Y-72146384D01*
X175782121Y-72310316D01*
X175723626Y-72490344D01*
X175703840Y-72678600D01*
X168626433Y-72678600D01*
X168662030Y-72662751D01*
X168815171Y-72551488D01*
X168870226Y-72490344D01*
X168937414Y-72415724D01*
X168937415Y-72415723D01*
X168941833Y-72410816D01*
X169018008Y-72278877D01*
X169033175Y-72252607D01*
X169033176Y-72252606D01*
X169036479Y-72246884D01*
X169094974Y-72066856D01*
X169103557Y-71985198D01*
X169114070Y-71885165D01*
X169114760Y-71878600D01*
X169108189Y-71816083D01*
X169095664Y-71696907D01*
X169095664Y-71696905D01*
X169094974Y-71690344D01*
X169036479Y-71510316D01*
X168941833Y-71346384D01*
X168815171Y-71205712D01*
X168662030Y-71094449D01*
X168489103Y-71017456D01*
X168391088Y-70996622D01*
X168310403Y-70979472D01*
X168310399Y-70979472D01*
X168303946Y-70978100D01*
X168114654Y-70978100D01*
X168108201Y-70979472D01*
X168108197Y-70979472D01*
X168027512Y-70996622D01*
X167929497Y-71017456D01*
X167756570Y-71094449D01*
X167603429Y-71205712D01*
X167476767Y-71346384D01*
X167382121Y-71510316D01*
X167323626Y-71690344D01*
X167322936Y-71696905D01*
X167322936Y-71696907D01*
X167310411Y-71816083D01*
X167303840Y-71878600D01*
X161397775Y-71878600D01*
X161445898Y-71830477D01*
X161571402Y-71651238D01*
X161637116Y-71510316D01*
X161661552Y-71457912D01*
X161661553Y-71457910D01*
X161663875Y-71452930D01*
X161720507Y-71241577D01*
X161739577Y-71023600D01*
X161720507Y-70805623D01*
X161675810Y-70638811D01*
X161665298Y-70599580D01*
X161665297Y-70599578D01*
X161663875Y-70594270D01*
X161617605Y-70495044D01*
X161573725Y-70400943D01*
X161573723Y-70400940D01*
X161571402Y-70395962D01*
X161445898Y-70216723D01*
X161291177Y-70062002D01*
X161286669Y-70058845D01*
X161286666Y-70058843D01*
X161116448Y-69939655D01*
X161116445Y-69939653D01*
X161111939Y-69936498D01*
X161106957Y-69934175D01*
X161106952Y-69934172D01*
X160918612Y-69846348D01*
X160918611Y-69846347D01*
X160913630Y-69844025D01*
X160908322Y-69842603D01*
X160908320Y-69842602D01*
X160842555Y-69824980D01*
X160702277Y-69787393D01*
X160484300Y-69768323D01*
X160266323Y-69787393D01*
X160126045Y-69824980D01*
X160060280Y-69842602D01*
X160060278Y-69842603D01*
X160054970Y-69844025D01*
X160049990Y-69846347D01*
X160049988Y-69846348D01*
X159861643Y-69934175D01*
X159861640Y-69934177D01*
X159856662Y-69936498D01*
X159677423Y-70062002D01*
X159522702Y-70216723D01*
X159397198Y-70395962D01*
X159394877Y-70400940D01*
X159394875Y-70400943D01*
X159350995Y-70495044D01*
X159304725Y-70594270D01*
X159303303Y-70599578D01*
X159303302Y-70599580D01*
X159292790Y-70638811D01*
X159248093Y-70805623D01*
X159229023Y-71023600D01*
X158739577Y-71023600D01*
X158720507Y-70805623D01*
X158675810Y-70638811D01*
X158665298Y-70599580D01*
X158665297Y-70599578D01*
X158663875Y-70594270D01*
X158617605Y-70495044D01*
X158573725Y-70400943D01*
X158573723Y-70400940D01*
X158571402Y-70395962D01*
X158445898Y-70216723D01*
X158291177Y-70062002D01*
X158286669Y-70058845D01*
X158286666Y-70058843D01*
X158116448Y-69939655D01*
X158116445Y-69939653D01*
X158111939Y-69936498D01*
X158106957Y-69934175D01*
X158106952Y-69934172D01*
X157918612Y-69846348D01*
X157918611Y-69846347D01*
X157913630Y-69844025D01*
X157908322Y-69842603D01*
X157908320Y-69842602D01*
X157842555Y-69824980D01*
X157702277Y-69787393D01*
X157484300Y-69768323D01*
X157266323Y-69787393D01*
X157126045Y-69824980D01*
X157060280Y-69842602D01*
X157060278Y-69842603D01*
X157054970Y-69844025D01*
X157049990Y-69846347D01*
X157049988Y-69846348D01*
X156861643Y-69934175D01*
X156861640Y-69934177D01*
X156856662Y-69936498D01*
X156677423Y-70062002D01*
X156522702Y-70216723D01*
X156397198Y-70395962D01*
X156394877Y-70400940D01*
X156394875Y-70400943D01*
X156350995Y-70495044D01*
X156304725Y-70594270D01*
X156303303Y-70599578D01*
X156303302Y-70599580D01*
X156292790Y-70638811D01*
X156248093Y-70805623D01*
X156229023Y-71023600D01*
X155739577Y-71023600D01*
X155720507Y-70805623D01*
X155675810Y-70638811D01*
X155665298Y-70599580D01*
X155665297Y-70599578D01*
X155663875Y-70594270D01*
X155617605Y-70495044D01*
X155573725Y-70400943D01*
X155573723Y-70400940D01*
X155571402Y-70395962D01*
X155445898Y-70216723D01*
X155291177Y-70062002D01*
X155286669Y-70058845D01*
X155286666Y-70058843D01*
X155116448Y-69939655D01*
X155116445Y-69939653D01*
X155111939Y-69936498D01*
X155106957Y-69934175D01*
X155106952Y-69934172D01*
X154918612Y-69846348D01*
X154918611Y-69846347D01*
X154913630Y-69844025D01*
X154908322Y-69842603D01*
X154908320Y-69842602D01*
X154842555Y-69824980D01*
X154702277Y-69787393D01*
X154484300Y-69768323D01*
X154266323Y-69787393D01*
X154126045Y-69824980D01*
X154060280Y-69842602D01*
X154060278Y-69842603D01*
X154054970Y-69844025D01*
X154049990Y-69846347D01*
X154049988Y-69846348D01*
X153861643Y-69934175D01*
X153861640Y-69934177D01*
X153856662Y-69936498D01*
X153677423Y-70062002D01*
X153522702Y-70216723D01*
X153397198Y-70395962D01*
X153394877Y-70400940D01*
X153394875Y-70400943D01*
X153350995Y-70495044D01*
X153304725Y-70594270D01*
X153303303Y-70599578D01*
X153303302Y-70599580D01*
X153292790Y-70638811D01*
X153248093Y-70805623D01*
X153229023Y-71023600D01*
X152739577Y-71023600D01*
X152720507Y-70805623D01*
X152675810Y-70638811D01*
X152665298Y-70599580D01*
X152665297Y-70599578D01*
X152663875Y-70594270D01*
X152617605Y-70495044D01*
X152573725Y-70400943D01*
X152573723Y-70400940D01*
X152571402Y-70395962D01*
X152445898Y-70216723D01*
X152291177Y-70062002D01*
X152286669Y-70058845D01*
X152286666Y-70058843D01*
X152116448Y-69939655D01*
X152116445Y-69939653D01*
X152111939Y-69936498D01*
X152106957Y-69934175D01*
X152106952Y-69934172D01*
X151918612Y-69846348D01*
X151918611Y-69846347D01*
X151913630Y-69844025D01*
X151908322Y-69842603D01*
X151908320Y-69842602D01*
X151842555Y-69824980D01*
X151702277Y-69787393D01*
X151484300Y-69768323D01*
X151266323Y-69787393D01*
X151126045Y-69824980D01*
X151060280Y-69842602D01*
X151060278Y-69842603D01*
X151054970Y-69844025D01*
X151049990Y-69846347D01*
X151049988Y-69846348D01*
X150861643Y-69934175D01*
X150861640Y-69934177D01*
X150856662Y-69936498D01*
X150677423Y-70062002D01*
X150522702Y-70216723D01*
X150397198Y-70395962D01*
X150394877Y-70400940D01*
X150394875Y-70400943D01*
X150350995Y-70495044D01*
X150304725Y-70594270D01*
X150303303Y-70599578D01*
X150303302Y-70599580D01*
X150292790Y-70638811D01*
X150248093Y-70805623D01*
X150229023Y-71023600D01*
X148563300Y-71023600D01*
X148563300Y-67473735D01*
X150233800Y-67473735D01*
X150233801Y-68573464D01*
X150244659Y-68678118D01*
X150300044Y-68844128D01*
X150392134Y-68992944D01*
X150515990Y-69116584D01*
X150664966Y-69208414D01*
X150671914Y-69210719D01*
X150671915Y-69210719D01*
X150824542Y-69261344D01*
X150824544Y-69261344D01*
X150831073Y-69263510D01*
X150934435Y-69274100D01*
X151480059Y-69274100D01*
X152034164Y-69274099D01*
X152037408Y-69273762D01*
X152037416Y-69273762D01*
X152083320Y-69268999D01*
X152138818Y-69263241D01*
X152304828Y-69207856D01*
X152453644Y-69115766D01*
X152577284Y-68991910D01*
X152583824Y-68981301D01*
X152600369Y-68954459D01*
X152669114Y-68842934D01*
X152673246Y-68830477D01*
X152722044Y-68683358D01*
X152722044Y-68683356D01*
X152724210Y-68676827D01*
X152734800Y-68573465D01*
X152734799Y-68023600D01*
X153229023Y-68023600D01*
X153248093Y-68241577D01*
X153304725Y-68452930D01*
X153307047Y-68457910D01*
X153307048Y-68457912D01*
X153362448Y-68576716D01*
X153397198Y-68651238D01*
X153522702Y-68830477D01*
X153677423Y-68985198D01*
X153681931Y-68988355D01*
X153681934Y-68988357D01*
X153813532Y-69080503D01*
X153856661Y-69110702D01*
X153861643Y-69113025D01*
X153861648Y-69113028D01*
X154049988Y-69200852D01*
X154054970Y-69203175D01*
X154060278Y-69204597D01*
X154060280Y-69204598D01*
X154096948Y-69214423D01*
X154266323Y-69259807D01*
X154484300Y-69278877D01*
X154702277Y-69259807D01*
X154871652Y-69214423D01*
X154908320Y-69204598D01*
X154908322Y-69204597D01*
X154913630Y-69203175D01*
X154918612Y-69200852D01*
X155106952Y-69113028D01*
X155106957Y-69113025D01*
X155111939Y-69110702D01*
X155155068Y-69080503D01*
X155286666Y-68988357D01*
X155286669Y-68988355D01*
X155291177Y-68985198D01*
X155445898Y-68830477D01*
X155571402Y-68651238D01*
X155606153Y-68576716D01*
X155661552Y-68457912D01*
X155661553Y-68457910D01*
X155663875Y-68452930D01*
X155720507Y-68241577D01*
X155739577Y-68023600D01*
X156229023Y-68023600D01*
X156248093Y-68241577D01*
X156304725Y-68452930D01*
X156307047Y-68457910D01*
X156307048Y-68457912D01*
X156362448Y-68576716D01*
X156397198Y-68651238D01*
X156522702Y-68830477D01*
X156677423Y-68985198D01*
X156681931Y-68988355D01*
X156681934Y-68988357D01*
X156813532Y-69080503D01*
X156856661Y-69110702D01*
X156861643Y-69113025D01*
X156861648Y-69113028D01*
X157049988Y-69200852D01*
X157054970Y-69203175D01*
X157060278Y-69204597D01*
X157060280Y-69204598D01*
X157096948Y-69214423D01*
X157266323Y-69259807D01*
X157484300Y-69278877D01*
X157702277Y-69259807D01*
X157871652Y-69214423D01*
X157908320Y-69204598D01*
X157908322Y-69204597D01*
X157913630Y-69203175D01*
X157918612Y-69200852D01*
X158106952Y-69113028D01*
X158106957Y-69113025D01*
X158111939Y-69110702D01*
X158155068Y-69080503D01*
X158286666Y-68988357D01*
X158286669Y-68988355D01*
X158291177Y-68985198D01*
X158445898Y-68830477D01*
X158571402Y-68651238D01*
X158606153Y-68576716D01*
X158661552Y-68457912D01*
X158661553Y-68457910D01*
X158663875Y-68452930D01*
X158720507Y-68241577D01*
X158739577Y-68023600D01*
X159229023Y-68023600D01*
X159248093Y-68241577D01*
X159304725Y-68452930D01*
X159307047Y-68457910D01*
X159307048Y-68457912D01*
X159362448Y-68576716D01*
X159397198Y-68651238D01*
X159522702Y-68830477D01*
X159677423Y-68985198D01*
X159681931Y-68988355D01*
X159681934Y-68988357D01*
X159813532Y-69080503D01*
X159856661Y-69110702D01*
X159861643Y-69113025D01*
X159861648Y-69113028D01*
X160049988Y-69200852D01*
X160054970Y-69203175D01*
X160060278Y-69204597D01*
X160060280Y-69204598D01*
X160096948Y-69214423D01*
X160266323Y-69259807D01*
X160484300Y-69278877D01*
X160702277Y-69259807D01*
X160871652Y-69214423D01*
X160908320Y-69204598D01*
X160908322Y-69204597D01*
X160913630Y-69203175D01*
X160918612Y-69200852D01*
X161106952Y-69113028D01*
X161106957Y-69113025D01*
X161111939Y-69110702D01*
X161155068Y-69080503D01*
X161157786Y-69078600D01*
X180903840Y-69078600D01*
X180904530Y-69085165D01*
X180917669Y-69210174D01*
X180923626Y-69266856D01*
X180982121Y-69446884D01*
X181076767Y-69610816D01*
X181081185Y-69615723D01*
X181081186Y-69615724D01*
X181165651Y-69709531D01*
X181203429Y-69751488D01*
X181356570Y-69862751D01*
X181529497Y-69939744D01*
X181627512Y-69960578D01*
X181708197Y-69977728D01*
X181708201Y-69977728D01*
X181714654Y-69979100D01*
X181903946Y-69979100D01*
X181910399Y-69977728D01*
X181910403Y-69977728D01*
X181991088Y-69960578D01*
X182089103Y-69939744D01*
X182262030Y-69862751D01*
X182415171Y-69751488D01*
X182452950Y-69709531D01*
X182537414Y-69615724D01*
X182537415Y-69615723D01*
X182541833Y-69610816D01*
X182636479Y-69446884D01*
X182694974Y-69266856D01*
X182700932Y-69210174D01*
X182714070Y-69085165D01*
X182714760Y-69078600D01*
X182706193Y-68997090D01*
X182695664Y-68896907D01*
X182695664Y-68896905D01*
X182694974Y-68890344D01*
X182636479Y-68710316D01*
X182541833Y-68546384D01*
X182462172Y-68457912D01*
X182419586Y-68410615D01*
X182419584Y-68410614D01*
X182415171Y-68405712D01*
X182341358Y-68352084D01*
X182267372Y-68298330D01*
X182267371Y-68298329D01*
X182262030Y-68294449D01*
X182089103Y-68217456D01*
X181991088Y-68196622D01*
X181910403Y-68179472D01*
X181910399Y-68179472D01*
X181903946Y-68178100D01*
X181714654Y-68178100D01*
X181708201Y-68179472D01*
X181708197Y-68179472D01*
X181627512Y-68196622D01*
X181529497Y-68217456D01*
X181356570Y-68294449D01*
X181351229Y-68298329D01*
X181351228Y-68298330D01*
X181277242Y-68352084D01*
X181203429Y-68405712D01*
X181199016Y-68410614D01*
X181199014Y-68410615D01*
X181156428Y-68457912D01*
X181076767Y-68546384D01*
X180982121Y-68710316D01*
X180923626Y-68890344D01*
X180922936Y-68896905D01*
X180922936Y-68896907D01*
X180912407Y-68997090D01*
X180903840Y-69078600D01*
X161157786Y-69078600D01*
X161286666Y-68988357D01*
X161286669Y-68988355D01*
X161291177Y-68985198D01*
X161445898Y-68830477D01*
X161571402Y-68651238D01*
X161606153Y-68576716D01*
X161661552Y-68457912D01*
X161661553Y-68457910D01*
X161663875Y-68452930D01*
X161720507Y-68241577D01*
X161739577Y-68023600D01*
X161720507Y-67805623D01*
X161663875Y-67594270D01*
X161661552Y-67589288D01*
X161573725Y-67400943D01*
X161573723Y-67400940D01*
X161571402Y-67395962D01*
X161445898Y-67216723D01*
X161291177Y-67062002D01*
X161286669Y-67058845D01*
X161286666Y-67058843D01*
X161116448Y-66939655D01*
X161116445Y-66939653D01*
X161111939Y-66936498D01*
X161106957Y-66934175D01*
X161106952Y-66934172D01*
X160918612Y-66846348D01*
X160918611Y-66846347D01*
X160913630Y-66844025D01*
X160908322Y-66842603D01*
X160908320Y-66842602D01*
X160842555Y-66824980D01*
X160702277Y-66787393D01*
X160484300Y-66768323D01*
X160266323Y-66787393D01*
X160126045Y-66824980D01*
X160060280Y-66842602D01*
X160060278Y-66842603D01*
X160054970Y-66844025D01*
X160049990Y-66846347D01*
X160049988Y-66846348D01*
X159861643Y-66934175D01*
X159861640Y-66934177D01*
X159856662Y-66936498D01*
X159677423Y-67062002D01*
X159522702Y-67216723D01*
X159397198Y-67395962D01*
X159394877Y-67400940D01*
X159394875Y-67400943D01*
X159307048Y-67589288D01*
X159304725Y-67594270D01*
X159248093Y-67805623D01*
X159229023Y-68023600D01*
X158739577Y-68023600D01*
X158720507Y-67805623D01*
X158663875Y-67594270D01*
X158661552Y-67589288D01*
X158573725Y-67400943D01*
X158573723Y-67400940D01*
X158571402Y-67395962D01*
X158445898Y-67216723D01*
X158291177Y-67062002D01*
X158286669Y-67058845D01*
X158286666Y-67058843D01*
X158116448Y-66939655D01*
X158116445Y-66939653D01*
X158111939Y-66936498D01*
X158106957Y-66934175D01*
X158106952Y-66934172D01*
X157918612Y-66846348D01*
X157918611Y-66846347D01*
X157913630Y-66844025D01*
X157908322Y-66842603D01*
X157908320Y-66842602D01*
X157842555Y-66824980D01*
X157702277Y-66787393D01*
X157484300Y-66768323D01*
X157266323Y-66787393D01*
X157126045Y-66824980D01*
X157060280Y-66842602D01*
X157060278Y-66842603D01*
X157054970Y-66844025D01*
X157049990Y-66846347D01*
X157049988Y-66846348D01*
X156861643Y-66934175D01*
X156861640Y-66934177D01*
X156856662Y-66936498D01*
X156677423Y-67062002D01*
X156522702Y-67216723D01*
X156397198Y-67395962D01*
X156394877Y-67400940D01*
X156394875Y-67400943D01*
X156307048Y-67589288D01*
X156304725Y-67594270D01*
X156248093Y-67805623D01*
X156229023Y-68023600D01*
X155739577Y-68023600D01*
X155720507Y-67805623D01*
X155663875Y-67594270D01*
X155661552Y-67589288D01*
X155573725Y-67400943D01*
X155573723Y-67400940D01*
X155571402Y-67395962D01*
X155445898Y-67216723D01*
X155291177Y-67062002D01*
X155286669Y-67058845D01*
X155286666Y-67058843D01*
X155116448Y-66939655D01*
X155116445Y-66939653D01*
X155111939Y-66936498D01*
X155106957Y-66934175D01*
X155106952Y-66934172D01*
X154918612Y-66846348D01*
X154918611Y-66846347D01*
X154913630Y-66844025D01*
X154908322Y-66842603D01*
X154908320Y-66842602D01*
X154842555Y-66824980D01*
X154702277Y-66787393D01*
X154484300Y-66768323D01*
X154266323Y-66787393D01*
X154126045Y-66824980D01*
X154060280Y-66842602D01*
X154060278Y-66842603D01*
X154054970Y-66844025D01*
X154049990Y-66846347D01*
X154049988Y-66846348D01*
X153861643Y-66934175D01*
X153861640Y-66934177D01*
X153856662Y-66936498D01*
X153677423Y-67062002D01*
X153522702Y-67216723D01*
X153397198Y-67395962D01*
X153394877Y-67400940D01*
X153394875Y-67400943D01*
X153307048Y-67589288D01*
X153304725Y-67594270D01*
X153248093Y-67805623D01*
X153229023Y-68023600D01*
X152734799Y-68023600D01*
X152734799Y-67473736D01*
X152723941Y-67369082D01*
X152668556Y-67203072D01*
X152576466Y-67054256D01*
X152452610Y-66930616D01*
X152303634Y-66838786D01*
X152296685Y-66836481D01*
X152144058Y-66785856D01*
X152144056Y-66785856D01*
X152137527Y-66783690D01*
X152034165Y-66773100D01*
X151488541Y-66773100D01*
X150934436Y-66773101D01*
X150931192Y-66773438D01*
X150931184Y-66773438D01*
X150885280Y-66778201D01*
X150829782Y-66783959D01*
X150663772Y-66839344D01*
X150514956Y-66931434D01*
X150391316Y-67055290D01*
X150387476Y-67061520D01*
X150387475Y-67061521D01*
X150368231Y-67092741D01*
X150299486Y-67204266D01*
X150297181Y-67211214D01*
X150297181Y-67211215D01*
X150293858Y-67221235D01*
X150244390Y-67370373D01*
X150233800Y-67473735D01*
X148563300Y-67473735D01*
X148563300Y-63672097D01*
X151638937Y-63672097D01*
X151639181Y-63676532D01*
X151639181Y-63676536D01*
X151651059Y-63892347D01*
X151654505Y-63954970D01*
X151681932Y-64092857D01*
X151708405Y-64225942D01*
X151709774Y-64232826D01*
X151711250Y-64237029D01*
X151761136Y-64379083D01*
X151803642Y-64500124D01*
X151805695Y-64504077D01*
X151805698Y-64504083D01*
X151867251Y-64622577D01*
X151934236Y-64751528D01*
X151936819Y-64755143D01*
X151936823Y-64755149D01*
X151991357Y-64831461D01*
X152098951Y-64982024D01*
X152102029Y-64985251D01*
X152102031Y-64985253D01*
X152215003Y-65103678D01*
X152294499Y-65187012D01*
X152516980Y-65362401D01*
X152589297Y-65404406D01*
X152758107Y-65502459D01*
X152758113Y-65502462D01*
X152761954Y-65504693D01*
X153024532Y-65611048D01*
X153028845Y-65612119D01*
X153028850Y-65612121D01*
X153295156Y-65678272D01*
X153295161Y-65678273D01*
X153299477Y-65679345D01*
X153303905Y-65679799D01*
X153303907Y-65679799D01*
X153379607Y-65687555D01*
X153541090Y-65704100D01*
X153716470Y-65704100D01*
X153926893Y-65689201D01*
X153931248Y-65688263D01*
X153931251Y-65688263D01*
X154199500Y-65630511D01*
X154199502Y-65630511D01*
X154203847Y-65629575D01*
X154469637Y-65531520D01*
X154718960Y-65396993D01*
X154946840Y-65228678D01*
X155148730Y-65029934D01*
X155151431Y-65026394D01*
X155151437Y-65026388D01*
X155317902Y-64808267D01*
X155317905Y-64808263D01*
X155320604Y-64804726D01*
X155392782Y-64675842D01*
X155456852Y-64561437D01*
X155456855Y-64561432D01*
X155459030Y-64557547D01*
X155481246Y-64500124D01*
X155559641Y-64297485D01*
X155559643Y-64297479D01*
X155561248Y-64293330D01*
X155625218Y-64017347D01*
X155649663Y-63735103D01*
X155646440Y-63676536D01*
X155646196Y-63672097D01*
X156338937Y-63672097D01*
X156339181Y-63676532D01*
X156339181Y-63676536D01*
X156351059Y-63892347D01*
X156354505Y-63954970D01*
X156381932Y-64092857D01*
X156408405Y-64225942D01*
X156409774Y-64232826D01*
X156411250Y-64237029D01*
X156461136Y-64379083D01*
X156503642Y-64500124D01*
X156505695Y-64504077D01*
X156505698Y-64504083D01*
X156567251Y-64622577D01*
X156634236Y-64751528D01*
X156636819Y-64755143D01*
X156636823Y-64755149D01*
X156691357Y-64831461D01*
X156798951Y-64982024D01*
X156802029Y-64985251D01*
X156802031Y-64985253D01*
X156915003Y-65103678D01*
X156994499Y-65187012D01*
X157216980Y-65362401D01*
X157289297Y-65404406D01*
X157458107Y-65502459D01*
X157458113Y-65502462D01*
X157461954Y-65504693D01*
X157724532Y-65611048D01*
X157728845Y-65612119D01*
X157728850Y-65612121D01*
X157995156Y-65678272D01*
X157995161Y-65678273D01*
X157999477Y-65679345D01*
X158003905Y-65679799D01*
X158003907Y-65679799D01*
X158079607Y-65687555D01*
X158241090Y-65704100D01*
X158416470Y-65704100D01*
X158626893Y-65689201D01*
X158631248Y-65688263D01*
X158631251Y-65688263D01*
X158899500Y-65630511D01*
X158899502Y-65630511D01*
X158903847Y-65629575D01*
X159169637Y-65531520D01*
X159418960Y-65396993D01*
X159646840Y-65228678D01*
X159848730Y-65029934D01*
X159851431Y-65026394D01*
X159851437Y-65026388D01*
X160017902Y-64808267D01*
X160017905Y-64808263D01*
X160020604Y-64804726D01*
X160092782Y-64675842D01*
X160156852Y-64561437D01*
X160156855Y-64561432D01*
X160159030Y-64557547D01*
X160181246Y-64500124D01*
X160259641Y-64297485D01*
X160259643Y-64297479D01*
X160261248Y-64293330D01*
X160325218Y-64017347D01*
X160349663Y-63735103D01*
X160346440Y-63676536D01*
X160339316Y-63547097D01*
X177418937Y-63547097D01*
X177419181Y-63551532D01*
X177419181Y-63551536D01*
X177432204Y-63788155D01*
X177434505Y-63829970D01*
X177458485Y-63950527D01*
X177471777Y-64017347D01*
X177489774Y-64107826D01*
X177491250Y-64112029D01*
X177512481Y-64172485D01*
X177583642Y-64375124D01*
X177585695Y-64379077D01*
X177585698Y-64379083D01*
X177646388Y-64495916D01*
X177714236Y-64626528D01*
X177716819Y-64630143D01*
X177716823Y-64630149D01*
X177749476Y-64675842D01*
X177878951Y-64857024D01*
X177882029Y-64860251D01*
X177882031Y-64860253D01*
X178040516Y-65026388D01*
X178074499Y-65062012D01*
X178296980Y-65237401D01*
X178369030Y-65279251D01*
X178538107Y-65377459D01*
X178538113Y-65377462D01*
X178541954Y-65379693D01*
X178804532Y-65486048D01*
X178808845Y-65487119D01*
X178808850Y-65487121D01*
X179075156Y-65553272D01*
X179075161Y-65553273D01*
X179079477Y-65554345D01*
X179083905Y-65554799D01*
X179083907Y-65554799D01*
X179159607Y-65562555D01*
X179321090Y-65579100D01*
X179496470Y-65579100D01*
X179706893Y-65564201D01*
X179711248Y-65563263D01*
X179711251Y-65563263D01*
X179979500Y-65505511D01*
X179979502Y-65505511D01*
X179983847Y-65504575D01*
X180249637Y-65406520D01*
X180422269Y-65313373D01*
X180495044Y-65274106D01*
X180498960Y-65271993D01*
X180726840Y-65103678D01*
X180805354Y-65026388D01*
X180925549Y-64908065D01*
X180928730Y-64904934D01*
X180931431Y-64901394D01*
X180931437Y-64901388D01*
X181097902Y-64683267D01*
X181097905Y-64683263D01*
X181100604Y-64679726D01*
X181169027Y-64557547D01*
X181236852Y-64436437D01*
X181236855Y-64436432D01*
X181239030Y-64432547D01*
X181261246Y-64375124D01*
X181339641Y-64172485D01*
X181339643Y-64172479D01*
X181341248Y-64168330D01*
X181405218Y-63892347D01*
X181429663Y-63610103D01*
X181426440Y-63551536D01*
X181414340Y-63331673D01*
X181414339Y-63331666D01*
X181414095Y-63327230D01*
X181382854Y-63170171D01*
X181359696Y-63053746D01*
X181359695Y-63053741D01*
X181358826Y-63049374D01*
X181337579Y-62988870D01*
X181266436Y-62786284D01*
X181266435Y-62786281D01*
X181264958Y-62782076D01*
X181262905Y-62778123D01*
X181262902Y-62778117D01*
X181136416Y-62534623D01*
X181134364Y-62530672D01*
X181131781Y-62527057D01*
X181131777Y-62527051D01*
X181027272Y-62380812D01*
X180969649Y-62300176D01*
X180927328Y-62255812D01*
X180777176Y-62098411D01*
X180777173Y-62098408D01*
X180774101Y-62095188D01*
X180551620Y-61919799D01*
X180338746Y-61796152D01*
X180310493Y-61779741D01*
X180310487Y-61779738D01*
X180306646Y-61777507D01*
X180044068Y-61671152D01*
X180039755Y-61670081D01*
X180039750Y-61670079D01*
X179773444Y-61603928D01*
X179773439Y-61603927D01*
X179769123Y-61602855D01*
X179764695Y-61602401D01*
X179764693Y-61602401D01*
X179669852Y-61592684D01*
X179527510Y-61578100D01*
X179352130Y-61578100D01*
X179141707Y-61592999D01*
X179137352Y-61593937D01*
X179137349Y-61593937D01*
X178869100Y-61651689D01*
X178869098Y-61651689D01*
X178864753Y-61652625D01*
X178598963Y-61750680D01*
X178349640Y-61885207D01*
X178121760Y-62053522D01*
X177919870Y-62252266D01*
X177917169Y-62255806D01*
X177917163Y-62255812D01*
X177750698Y-62473933D01*
X177747996Y-62477474D01*
X177745821Y-62481358D01*
X177650229Y-62652051D01*
X177609570Y-62724653D01*
X177607962Y-62728811D01*
X177607959Y-62728816D01*
X177530745Y-62928403D01*
X177507352Y-62988870D01*
X177443382Y-63264853D01*
X177418937Y-63547097D01*
X160339316Y-63547097D01*
X160334340Y-63456673D01*
X160334339Y-63456666D01*
X160334095Y-63452230D01*
X160297706Y-63269292D01*
X160279696Y-63178746D01*
X160279695Y-63178741D01*
X160278826Y-63174374D01*
X160257579Y-63113870D01*
X160186436Y-62911284D01*
X160186435Y-62911281D01*
X160184958Y-62907076D01*
X160182905Y-62903123D01*
X160182902Y-62903117D01*
X160056416Y-62659623D01*
X160054364Y-62655672D01*
X160051781Y-62652057D01*
X160051777Y-62652051D01*
X159929797Y-62481358D01*
X159889649Y-62425176D01*
X159847328Y-62380812D01*
X159697176Y-62223411D01*
X159697173Y-62223408D01*
X159694101Y-62220188D01*
X159471620Y-62044799D01*
X159293635Y-61941417D01*
X159230493Y-61904741D01*
X159230487Y-61904738D01*
X159226646Y-61902507D01*
X158964068Y-61796152D01*
X158959755Y-61795081D01*
X158959750Y-61795079D01*
X158693444Y-61728928D01*
X158693439Y-61728927D01*
X158689123Y-61727855D01*
X158684695Y-61727401D01*
X158684693Y-61727401D01*
X158589852Y-61717684D01*
X158447510Y-61703100D01*
X158272130Y-61703100D01*
X158061707Y-61717999D01*
X158057352Y-61718937D01*
X158057349Y-61718937D01*
X157789100Y-61776689D01*
X157789098Y-61776689D01*
X157784753Y-61777625D01*
X157518963Y-61875680D01*
X157269640Y-62010207D01*
X157041760Y-62178522D01*
X157038581Y-62181651D01*
X157038578Y-62181654D01*
X156942613Y-62276124D01*
X156839870Y-62377266D01*
X156837169Y-62380806D01*
X156837163Y-62380812D01*
X156719778Y-62534623D01*
X156667996Y-62602474D01*
X156665821Y-62606358D01*
X156540764Y-62829665D01*
X156529570Y-62849653D01*
X156527962Y-62853811D01*
X156527959Y-62853816D01*
X156450612Y-63053746D01*
X156427352Y-63113870D01*
X156363382Y-63389853D01*
X156338937Y-63672097D01*
X155646196Y-63672097D01*
X155634340Y-63456673D01*
X155634339Y-63456666D01*
X155634095Y-63452230D01*
X155597706Y-63269292D01*
X155579696Y-63178746D01*
X155579695Y-63178741D01*
X155578826Y-63174374D01*
X155557579Y-63113870D01*
X155486436Y-62911284D01*
X155486435Y-62911281D01*
X155484958Y-62907076D01*
X155482905Y-62903123D01*
X155482902Y-62903117D01*
X155356416Y-62659623D01*
X155354364Y-62655672D01*
X155351781Y-62652057D01*
X155351777Y-62652051D01*
X155229797Y-62481358D01*
X155189649Y-62425176D01*
X155147328Y-62380812D01*
X154997176Y-62223411D01*
X154997173Y-62223408D01*
X154994101Y-62220188D01*
X154771620Y-62044799D01*
X154593635Y-61941417D01*
X154530493Y-61904741D01*
X154530487Y-61904738D01*
X154526646Y-61902507D01*
X154264068Y-61796152D01*
X154259755Y-61795081D01*
X154259750Y-61795079D01*
X153993444Y-61728928D01*
X153993439Y-61728927D01*
X153989123Y-61727855D01*
X153984695Y-61727401D01*
X153984693Y-61727401D01*
X153889852Y-61717684D01*
X153747510Y-61703100D01*
X153572130Y-61703100D01*
X153361707Y-61717999D01*
X153357352Y-61718937D01*
X153357349Y-61718937D01*
X153089100Y-61776689D01*
X153089098Y-61776689D01*
X153084753Y-61777625D01*
X152818963Y-61875680D01*
X152569640Y-62010207D01*
X152341760Y-62178522D01*
X152338581Y-62181651D01*
X152338578Y-62181654D01*
X152242613Y-62276124D01*
X152139870Y-62377266D01*
X152137169Y-62380806D01*
X152137163Y-62380812D01*
X152019778Y-62534623D01*
X151967996Y-62602474D01*
X151965821Y-62606358D01*
X151840764Y-62829665D01*
X151829570Y-62849653D01*
X151827962Y-62853811D01*
X151827959Y-62853816D01*
X151750612Y-63053746D01*
X151727352Y-63113870D01*
X151663382Y-63389853D01*
X151638937Y-63672097D01*
X148563300Y-63672097D01*
X148563300Y-59124600D01*
X148583302Y-59056479D01*
X148636958Y-59009986D01*
X148689300Y-58998600D01*
X178105597Y-58998600D01*
X178124981Y-59000100D01*
G37*
%TD.AperFunction*%
%TD*%
%TA.AperFunction,Conductor*%
%TO.N,DC+*%
G36*
X214291421Y-102333602D02*
G01*
X214337914Y-102387258D01*
X214349300Y-102439600D01*
X214349300Y-106962058D01*
X214329298Y-107030179D01*
X214275642Y-107076672D01*
X214205368Y-107086776D01*
X214137771Y-107054583D01*
X214111371Y-107030179D01*
X213923480Y-106856494D01*
X213911231Y-106847380D01*
X213626895Y-106635829D01*
X213626894Y-106635828D01*
X213624196Y-106633821D01*
X213621310Y-106632117D01*
X213621303Y-106632113D01*
X213305836Y-106445918D01*
X213305831Y-106445916D01*
X213302945Y-106444212D01*
X213212715Y-106403187D01*
X212966411Y-106291199D01*
X212966405Y-106291197D01*
X212963364Y-106289814D01*
X212960191Y-106288761D01*
X212960187Y-106288760D01*
X212791404Y-106232777D01*
X212609299Y-106172375D01*
X212606039Y-106171667D01*
X212606031Y-106171665D01*
X212384292Y-106123521D01*
X212244758Y-106093225D01*
X211873872Y-106053262D01*
X211871347Y-106053194D01*
X211871337Y-106053193D01*
X211869584Y-106053146D01*
X211867886Y-106053100D01*
X211591061Y-106053100D01*
X211589395Y-106053189D01*
X211589386Y-106053189D01*
X211315127Y-106067802D01*
X211315118Y-106067803D01*
X211311795Y-106067980D01*
X211072887Y-106106461D01*
X210946810Y-106126768D01*
X210946807Y-106126769D01*
X210943508Y-106127300D01*
X210940278Y-106128180D01*
X210940276Y-106128181D01*
X210774311Y-106173428D01*
X210583609Y-106225419D01*
X210236176Y-106361228D01*
X210233194Y-106362777D01*
X209922800Y-106524014D01*
X209905141Y-106533187D01*
X209790290Y-106609349D01*
X209616668Y-106724485D01*
X209594253Y-106739349D01*
X209591677Y-106741484D01*
X209309617Y-106975238D01*
X209309611Y-106975243D01*
X209307033Y-106977380D01*
X209304689Y-106979787D01*
X209304686Y-106979789D01*
X209049073Y-107242183D01*
X209049065Y-107242192D01*
X209046734Y-107244585D01*
X208816302Y-107537937D01*
X208618349Y-107854115D01*
X208455114Y-108189538D01*
X208453981Y-108192677D01*
X208453977Y-108192686D01*
X208438281Y-108236165D01*
X208328447Y-108540408D01*
X208239782Y-108902752D01*
X208190124Y-109272465D01*
X208180033Y-109645362D01*
X208180299Y-109648703D01*
X208180299Y-109648707D01*
X208199280Y-109887221D01*
X208209626Y-110017221D01*
X208210243Y-110020500D01*
X208210243Y-110020503D01*
X208254120Y-110253829D01*
X208278566Y-110383829D01*
X208386073Y-110741035D01*
X208530929Y-111084795D01*
X208532548Y-111087722D01*
X208532552Y-111087730D01*
X208709871Y-111408280D01*
X208711495Y-111411215D01*
X208713422Y-111413962D01*
X208923790Y-111713844D01*
X208923796Y-111713852D01*
X208925724Y-111716600D01*
X208927930Y-111719124D01*
X208927936Y-111719132D01*
X209015050Y-111818815D01*
X209044815Y-111883271D01*
X209035007Y-111953587D01*
X209019260Y-111979560D01*
X208816302Y-112237937D01*
X208618349Y-112554115D01*
X208455114Y-112889538D01*
X208453981Y-112892677D01*
X208453977Y-112892686D01*
X208438281Y-112936165D01*
X208328447Y-113240408D01*
X208239782Y-113602752D01*
X208190124Y-113972465D01*
X208180033Y-114345362D01*
X208180299Y-114348703D01*
X208180299Y-114348707D01*
X208199280Y-114587221D01*
X208209626Y-114717221D01*
X208210243Y-114720500D01*
X208210243Y-114720503D01*
X208254120Y-114953829D01*
X208278566Y-115083829D01*
X208386073Y-115441035D01*
X208530929Y-115784795D01*
X208532548Y-115787722D01*
X208532552Y-115787730D01*
X208709871Y-116108280D01*
X208711495Y-116111215D01*
X208925724Y-116416600D01*
X209171193Y-116697490D01*
X209445120Y-116950706D01*
X209447818Y-116952714D01*
X209447820Y-116952715D01*
X209707008Y-117145556D01*
X209744404Y-117173379D01*
X209747290Y-117175083D01*
X209747297Y-117175087D01*
X210062764Y-117361282D01*
X210062769Y-117361284D01*
X210065655Y-117362988D01*
X210119316Y-117387386D01*
X210402189Y-117516001D01*
X210402195Y-117516003D01*
X210405236Y-117517386D01*
X210408409Y-117518439D01*
X210408413Y-117518440D01*
X210500606Y-117549019D01*
X210759301Y-117634825D01*
X210762561Y-117635533D01*
X210762569Y-117635535D01*
X210962845Y-117679019D01*
X211123842Y-117713975D01*
X211494728Y-117753938D01*
X211497253Y-117754006D01*
X211497263Y-117754007D01*
X211499016Y-117754054D01*
X211500714Y-117754100D01*
X211777539Y-117754100D01*
X211779205Y-117754011D01*
X211779214Y-117754011D01*
X212053473Y-117739398D01*
X212053482Y-117739397D01*
X212056805Y-117739220D01*
X212295713Y-117700739D01*
X212421790Y-117680432D01*
X212421793Y-117680431D01*
X212425092Y-117679900D01*
X212428322Y-117679020D01*
X212428324Y-117679019D01*
X212781745Y-117582666D01*
X212781746Y-117582666D01*
X212784991Y-117581781D01*
X213132424Y-117445972D01*
X213295459Y-117361282D01*
X213460489Y-117275556D01*
X213460492Y-117275554D01*
X213463459Y-117274013D01*
X213618903Y-117170932D01*
X213771559Y-117069700D01*
X213771561Y-117069698D01*
X213774347Y-117067851D01*
X213918449Y-116948428D01*
X214058983Y-116831962D01*
X214058989Y-116831957D01*
X214061567Y-116829820D01*
X214133047Y-116756443D01*
X214194908Y-116721607D01*
X214265784Y-116725744D01*
X214323171Y-116767543D01*
X214348851Y-116833733D01*
X214349300Y-116844366D01*
X214349300Y-124952600D01*
X214329298Y-125020721D01*
X214275642Y-125067214D01*
X214223300Y-125078600D01*
X174104454Y-125078600D01*
X174036333Y-125058598D01*
X173989840Y-125004942D01*
X173979736Y-124934668D01*
X174009230Y-124870088D01*
X174018201Y-124860750D01*
X174159762Y-124727815D01*
X174162649Y-124725104D01*
X174296967Y-124562741D01*
X174352663Y-124495417D01*
X174352666Y-124495414D01*
X174355185Y-124492368D01*
X174517033Y-124237336D01*
X174518717Y-124233757D01*
X174518721Y-124233750D01*
X174643952Y-123967620D01*
X174643954Y-123967616D01*
X174645641Y-123964030D01*
X174738981Y-123676760D01*
X174795580Y-123380057D01*
X174814546Y-123078600D01*
X174795580Y-122777143D01*
X174738981Y-122480440D01*
X174645641Y-122193170D01*
X174593294Y-122081926D01*
X174518721Y-121923450D01*
X174518717Y-121923443D01*
X174517033Y-121919864D01*
X174355185Y-121664832D01*
X174162649Y-121432096D01*
X173942462Y-121225326D01*
X173791306Y-121115505D01*
X173701298Y-121050111D01*
X173701297Y-121050110D01*
X173698095Y-121047784D01*
X173467596Y-120921065D01*
X173436873Y-120904175D01*
X173436872Y-120904174D01*
X173433404Y-120902268D01*
X173429735Y-120900815D01*
X173429730Y-120900813D01*
X173156232Y-120792528D01*
X173156231Y-120792528D01*
X173152562Y-120791075D01*
X172859998Y-120715958D01*
X172560327Y-120678100D01*
X172258273Y-120678100D01*
X171958602Y-120715958D01*
X171666038Y-120791075D01*
X171662369Y-120792528D01*
X171662368Y-120792528D01*
X171388870Y-120900813D01*
X171388865Y-120900815D01*
X171385196Y-120902268D01*
X171381728Y-120904174D01*
X171381727Y-120904175D01*
X171351005Y-120921065D01*
X171120505Y-121047784D01*
X171117303Y-121050110D01*
X171117302Y-121050111D01*
X171027295Y-121115505D01*
X170876138Y-121225326D01*
X170655951Y-121432096D01*
X170463415Y-121664832D01*
X170301567Y-121919864D01*
X170299883Y-121923443D01*
X170299879Y-121923450D01*
X170225306Y-122081926D01*
X170172959Y-122193170D01*
X170079619Y-122480440D01*
X170023020Y-122777143D01*
X170004054Y-123078600D01*
X170023020Y-123380057D01*
X170079619Y-123676760D01*
X170172959Y-123964030D01*
X170174646Y-123967616D01*
X170174648Y-123967620D01*
X170299879Y-124233750D01*
X170299883Y-124233757D01*
X170301567Y-124237336D01*
X170463415Y-124492368D01*
X170465934Y-124495414D01*
X170465937Y-124495417D01*
X170521633Y-124562741D01*
X170655951Y-124725104D01*
X170658838Y-124727815D01*
X170800399Y-124860750D01*
X170836365Y-124921963D01*
X170833526Y-124992903D01*
X170792786Y-125051047D01*
X170727078Y-125077935D01*
X170714146Y-125078600D01*
X166417800Y-125078600D01*
X166349679Y-125058598D01*
X166303186Y-125004942D01*
X166291800Y-124952600D01*
X166291800Y-120789950D01*
X166290727Y-120762642D01*
X166283857Y-120716943D01*
X166249271Y-120486898D01*
X166249270Y-120486894D01*
X166248608Y-120482490D01*
X166244585Y-120469036D01*
X166168712Y-120215334D01*
X166167436Y-120211067D01*
X166048829Y-119953790D01*
X165895156Y-119715791D01*
X165709480Y-119501820D01*
X165495509Y-119316144D01*
X165257510Y-119162471D01*
X165178668Y-119126124D01*
X165004277Y-119045728D01*
X165004273Y-119045727D01*
X165000233Y-119043864D01*
X164907583Y-119016156D01*
X164733084Y-118963970D01*
X164733082Y-118963969D01*
X164728810Y-118962692D01*
X164724406Y-118962030D01*
X164724402Y-118962029D01*
X164452079Y-118921087D01*
X164452073Y-118921086D01*
X164448658Y-118920573D01*
X164445201Y-118920437D01*
X164445199Y-118920437D01*
X164439137Y-118920199D01*
X164421350Y-118919500D01*
X161661250Y-118919500D01*
X161643463Y-118920199D01*
X161637401Y-118920437D01*
X161637399Y-118920437D01*
X161633942Y-118920573D01*
X161630527Y-118921086D01*
X161630521Y-118921087D01*
X161358198Y-118962029D01*
X161358194Y-118962030D01*
X161353790Y-118962692D01*
X161349518Y-118963969D01*
X161349516Y-118963970D01*
X161175017Y-119016156D01*
X161082367Y-119043864D01*
X161078327Y-119045727D01*
X161078323Y-119045728D01*
X160903932Y-119126124D01*
X160825090Y-119162471D01*
X160587091Y-119316144D01*
X160373120Y-119501820D01*
X160187444Y-119715791D01*
X160095896Y-119857575D01*
X160042141Y-119903952D01*
X159971845Y-119913906D01*
X159904515Y-119881752D01*
X159668937Y-119663986D01*
X159666397Y-119661638D01*
X159588470Y-119604081D01*
X159381406Y-119451140D01*
X159381398Y-119451135D01*
X159378612Y-119449077D01*
X159069240Y-119269379D01*
X158742017Y-119124715D01*
X158400896Y-119016833D01*
X158397503Y-119016158D01*
X158397495Y-119016156D01*
X158053389Y-118947709D01*
X158053390Y-118947709D01*
X158049996Y-118947034D01*
X158046555Y-118946736D01*
X158046548Y-118946735D01*
X157697012Y-118916462D01*
X157697006Y-118916462D01*
X157693556Y-118916163D01*
X157540551Y-118919769D01*
X157339345Y-118924510D01*
X157339338Y-118924511D01*
X157335881Y-118924592D01*
X156981291Y-118972220D01*
X156977927Y-118973056D01*
X156977925Y-118973056D01*
X156637436Y-119057633D01*
X156637429Y-119057635D01*
X156634068Y-119058470D01*
X156630815Y-119059670D01*
X156630812Y-119059671D01*
X156408881Y-119141546D01*
X156298408Y-119182302D01*
X156138082Y-119262413D01*
X155981456Y-119340674D01*
X155981449Y-119340678D01*
X155978363Y-119342220D01*
X155677799Y-119536291D01*
X155560002Y-119632193D01*
X155403029Y-119759988D01*
X155403022Y-119759995D01*
X155400346Y-119762173D01*
X155149356Y-120017137D01*
X155147212Y-120019856D01*
X155147209Y-120019860D01*
X154964746Y-120251313D01*
X154906865Y-120292426D01*
X154835945Y-120295720D01*
X154774502Y-120260148D01*
X154762147Y-120244951D01*
X154713605Y-120174716D01*
X154574718Y-120014663D01*
X154481390Y-119907113D01*
X154481389Y-119907112D01*
X154479119Y-119904496D01*
X154216397Y-119661638D01*
X154138470Y-119604081D01*
X153931406Y-119451140D01*
X153931398Y-119451135D01*
X153928612Y-119449077D01*
X153619240Y-119269379D01*
X153292017Y-119124715D01*
X152950896Y-119016833D01*
X152947503Y-119016158D01*
X152947495Y-119016156D01*
X152603389Y-118947709D01*
X152603390Y-118947709D01*
X152599996Y-118947034D01*
X152596555Y-118946736D01*
X152596548Y-118946735D01*
X152247012Y-118916462D01*
X152247006Y-118916462D01*
X152243556Y-118916163D01*
X152090551Y-118919769D01*
X151889345Y-118924510D01*
X151889338Y-118924511D01*
X151885881Y-118924592D01*
X151531291Y-118972220D01*
X151527927Y-118973056D01*
X151527925Y-118973056D01*
X151187436Y-119057633D01*
X151187429Y-119057635D01*
X151184068Y-119058470D01*
X151180815Y-119059670D01*
X151180812Y-119059671D01*
X150958881Y-119141546D01*
X150848408Y-119182302D01*
X150688082Y-119262413D01*
X150531456Y-119340674D01*
X150531449Y-119340678D01*
X150528363Y-119342220D01*
X150227799Y-119536291D01*
X150110002Y-119632193D01*
X149953029Y-119759988D01*
X149953022Y-119759995D01*
X149950346Y-119762173D01*
X149699356Y-120017137D01*
X149477860Y-120298103D01*
X149288534Y-120601678D01*
X149287033Y-120604804D01*
X149287028Y-120604813D01*
X149212883Y-120759221D01*
X149133663Y-120924196D01*
X149132515Y-120927465D01*
X149026962Y-121228037D01*
X149015119Y-121261760D01*
X148934333Y-121610295D01*
X148933929Y-121613712D01*
X148933927Y-121613721D01*
X148892601Y-121962885D01*
X148892281Y-121965589D01*
X148890800Y-122012714D01*
X148890800Y-124259817D01*
X148890895Y-124261536D01*
X148890895Y-124261551D01*
X148897255Y-124377115D01*
X148905517Y-124527234D01*
X148906085Y-124530646D01*
X148906086Y-124530656D01*
X148963690Y-124876736D01*
X148964259Y-124880153D01*
X148975046Y-124918399D01*
X148974285Y-124989392D01*
X148935263Y-125048703D01*
X148870370Y-125077502D01*
X148853776Y-125078600D01*
X136039643Y-125078600D01*
X135971522Y-125058598D01*
X135925029Y-125004942D01*
X135914925Y-124934668D01*
X135916897Y-124924149D01*
X135918230Y-124918399D01*
X135961967Y-124729705D01*
X135962371Y-124726288D01*
X135962373Y-124726279D01*
X136003699Y-124377115D01*
X136003699Y-124377114D01*
X136004019Y-124374411D01*
X136005500Y-124327286D01*
X136005500Y-122080183D01*
X136001732Y-122011705D01*
X135990973Y-121816225D01*
X135990783Y-121812766D01*
X135990215Y-121809354D01*
X135990214Y-121809344D01*
X135932611Y-121463273D01*
X135932041Y-121459847D01*
X135834927Y-121115505D01*
X135700613Y-120783900D01*
X135540359Y-120486898D01*
X135532367Y-120472086D01*
X135532364Y-120472082D01*
X135530721Y-120469036D01*
X135480381Y-120396200D01*
X135329269Y-120177557D01*
X135329265Y-120177551D01*
X135327305Y-120174716D01*
X135092819Y-119904496D01*
X134830097Y-119661638D01*
X134752170Y-119604081D01*
X134545106Y-119451140D01*
X134545098Y-119451135D01*
X134542312Y-119449077D01*
X134232940Y-119269379D01*
X133905717Y-119124715D01*
X133564596Y-119016833D01*
X133561203Y-119016158D01*
X133561195Y-119016156D01*
X133217089Y-118947709D01*
X133217090Y-118947709D01*
X133213696Y-118947034D01*
X133210255Y-118946736D01*
X133210248Y-118946735D01*
X132860712Y-118916462D01*
X132860706Y-118916462D01*
X132857256Y-118916163D01*
X132704251Y-118919769D01*
X132503045Y-118924510D01*
X132503038Y-118924511D01*
X132499581Y-118924592D01*
X132144991Y-118972220D01*
X132141627Y-118973056D01*
X132141625Y-118973056D01*
X131801136Y-119057633D01*
X131801129Y-119057635D01*
X131797768Y-119058470D01*
X131794515Y-119059670D01*
X131794512Y-119059671D01*
X131572581Y-119141546D01*
X131462108Y-119182302D01*
X131301782Y-119262413D01*
X131145156Y-119340674D01*
X131145149Y-119340678D01*
X131142063Y-119342220D01*
X130841499Y-119536291D01*
X130723702Y-119632193D01*
X130566729Y-119759988D01*
X130566722Y-119759995D01*
X130564046Y-119762173D01*
X130313056Y-120017137D01*
X130091560Y-120298103D01*
X129902234Y-120601678D01*
X129900733Y-120604804D01*
X129900728Y-120604813D01*
X129826583Y-120759221D01*
X129747363Y-120924196D01*
X129746215Y-120927465D01*
X129640662Y-121228037D01*
X129628819Y-121261760D01*
X129548033Y-121610295D01*
X129547629Y-121613712D01*
X129547627Y-121613721D01*
X129506301Y-121962885D01*
X129505981Y-121965589D01*
X129504500Y-122012714D01*
X129504500Y-124259817D01*
X129504595Y-124261536D01*
X129504595Y-124261551D01*
X129510955Y-124377115D01*
X129519217Y-124527234D01*
X129519785Y-124530646D01*
X129519786Y-124530656D01*
X129577390Y-124876736D01*
X129577959Y-124880153D01*
X129588746Y-124918399D01*
X129587985Y-124989392D01*
X129548963Y-125048703D01*
X129484070Y-125077502D01*
X129467476Y-125078600D01*
X100683300Y-125078600D01*
X100615179Y-125058598D01*
X100568686Y-125004942D01*
X100557300Y-124952600D01*
X100557300Y-117132645D01*
X100577302Y-117064524D01*
X100630958Y-117018031D01*
X100701232Y-117007927D01*
X100758512Y-117031555D01*
X100774404Y-117043379D01*
X100777282Y-117045077D01*
X100777290Y-117045083D01*
X101092764Y-117231282D01*
X101092769Y-117231284D01*
X101095655Y-117232988D01*
X101098708Y-117234376D01*
X101432189Y-117386001D01*
X101432195Y-117386003D01*
X101435236Y-117387386D01*
X101438409Y-117388439D01*
X101438413Y-117388440D01*
X101539738Y-117422048D01*
X101789301Y-117504825D01*
X101792561Y-117505533D01*
X101792569Y-117505535D01*
X101992845Y-117549019D01*
X102153842Y-117583975D01*
X102524728Y-117623938D01*
X102527253Y-117624006D01*
X102527263Y-117624007D01*
X102529016Y-117624054D01*
X102530714Y-117624100D01*
X102807539Y-117624100D01*
X102809205Y-117624011D01*
X102809214Y-117624011D01*
X103083473Y-117609398D01*
X103083482Y-117609397D01*
X103086805Y-117609220D01*
X103325713Y-117570739D01*
X103451790Y-117550432D01*
X103451793Y-117550431D01*
X103455092Y-117549900D01*
X103458322Y-117549020D01*
X103458324Y-117549019D01*
X103811745Y-117452666D01*
X103811746Y-117452666D01*
X103814991Y-117451781D01*
X104162424Y-117315972D01*
X104240228Y-117275556D01*
X104490489Y-117145556D01*
X104490492Y-117145554D01*
X104493459Y-117144013D01*
X104698674Y-117007927D01*
X104801559Y-116939700D01*
X104801561Y-116939698D01*
X104804347Y-116937851D01*
X105065278Y-116721607D01*
X105088983Y-116701962D01*
X105088989Y-116701957D01*
X105091567Y-116699820D01*
X105225226Y-116562615D01*
X105349527Y-116435017D01*
X105349535Y-116435008D01*
X105351866Y-116432615D01*
X105582298Y-116139263D01*
X105780251Y-115823085D01*
X105943486Y-115487662D01*
X105944619Y-115484523D01*
X105944623Y-115484514D01*
X106069017Y-115139938D01*
X106070153Y-115136792D01*
X106158818Y-114774448D01*
X106208476Y-114404735D01*
X106218567Y-114031838D01*
X106203497Y-113842465D01*
X106189239Y-113663310D01*
X106188974Y-113659979D01*
X106177601Y-113599498D01*
X106120652Y-113296655D01*
X106120650Y-113296647D01*
X106120034Y-113293371D01*
X106012527Y-112936165D01*
X105867671Y-112592405D01*
X105866052Y-112589478D01*
X105866048Y-112589470D01*
X105688729Y-112268920D01*
X105688725Y-112268914D01*
X105687105Y-112265985D01*
X105564072Y-112090600D01*
X105474810Y-111963356D01*
X105474804Y-111963348D01*
X105472876Y-111960600D01*
X105470670Y-111958076D01*
X105470664Y-111958068D01*
X105383550Y-111858385D01*
X105353785Y-111793929D01*
X105363593Y-111723613D01*
X105379340Y-111697639D01*
X105580226Y-111441901D01*
X105580228Y-111441899D01*
X105582298Y-111439263D01*
X105780251Y-111123085D01*
X105943486Y-110787662D01*
X105944619Y-110784523D01*
X105944623Y-110784514D01*
X106069017Y-110439938D01*
X106070153Y-110436792D01*
X106158818Y-110074448D01*
X106208476Y-109704735D01*
X106218567Y-109331838D01*
X106203497Y-109142465D01*
X106189239Y-108963310D01*
X106188974Y-108959979D01*
X106177601Y-108899498D01*
X106120652Y-108596655D01*
X106120650Y-108596647D01*
X106120034Y-108593371D01*
X106012527Y-108236165D01*
X105867671Y-107892405D01*
X105866052Y-107889478D01*
X105866048Y-107889470D01*
X105688729Y-107568920D01*
X105688725Y-107568914D01*
X105687105Y-107565985D01*
X105472876Y-107260600D01*
X105227407Y-106979710D01*
X104953480Y-106726494D01*
X104693666Y-106533187D01*
X104656895Y-106505829D01*
X104656894Y-106505828D01*
X104654196Y-106503821D01*
X104651310Y-106502117D01*
X104651303Y-106502113D01*
X104335836Y-106315918D01*
X104335831Y-106315916D01*
X104332945Y-106314212D01*
X104137655Y-106225419D01*
X103996411Y-106161199D01*
X103996405Y-106161197D01*
X103993364Y-106159814D01*
X103990191Y-106158761D01*
X103990187Y-106158760D01*
X103888862Y-106125152D01*
X103639299Y-106042375D01*
X103636039Y-106041667D01*
X103636031Y-106041665D01*
X103414292Y-105993521D01*
X103274758Y-105963225D01*
X102903872Y-105923262D01*
X102901347Y-105923194D01*
X102901337Y-105923193D01*
X102899584Y-105923146D01*
X102897886Y-105923100D01*
X102621061Y-105923100D01*
X102619395Y-105923189D01*
X102619386Y-105923189D01*
X102345127Y-105937802D01*
X102345118Y-105937803D01*
X102341795Y-105937980D01*
X102102887Y-105976461D01*
X101976810Y-105996768D01*
X101976807Y-105996769D01*
X101973508Y-105997300D01*
X101970278Y-105998180D01*
X101970276Y-105998181D01*
X101619045Y-106093937D01*
X101613609Y-106095419D01*
X101266176Y-106231228D01*
X101263194Y-106232777D01*
X101012934Y-106362777D01*
X100935141Y-106403187D01*
X100932355Y-106405035D01*
X100932344Y-106405041D01*
X100752935Y-106524014D01*
X100685109Y-106544992D01*
X100616708Y-106525970D01*
X100569450Y-106472987D01*
X100557300Y-106419005D01*
X100557300Y-102439600D01*
X100577302Y-102371479D01*
X100630958Y-102324986D01*
X100683300Y-102313600D01*
X214223300Y-102313600D01*
X214291421Y-102333602D01*
G37*
%TD.AperFunction*%
%TD*%
M02*
