%TF.GenerationSoftware,KiCad,Pcbnew,(6.0.1)*%
%TF.CreationDate,2023-02-17T13:15:31+03:00*%
%TF.ProjectId,_______ IGBT,14403039-3235-4402-9049-4742542e6b69,rev?*%
%TF.SameCoordinates,Original*%
%TF.FileFunction,Soldermask,Bot*%
%TF.FilePolarity,Negative*%
%FSLAX46Y46*%
G04 Gerber Fmt 4.6, Leading zero omitted, Abs format (unit mm)*
G04 Created by KiCad (PCBNEW (6.0.1)) date 2023-02-17 13:15:31*
%MOMM*%
%LPD*%
G01*
G04 APERTURE LIST*
G04 Aperture macros list*
%AMRoundRect*
0 Rectangle with rounded corners*
0 $1 Rounding radius*
0 $2 $3 $4 $5 $6 $7 $8 $9 X,Y pos of 4 corners*
0 Add a 4 corners polygon primitive as box body*
4,1,4,$2,$3,$4,$5,$6,$7,$8,$9,$2,$3,0*
0 Add four circle primitives for the rounded corners*
1,1,$1+$1,$2,$3*
1,1,$1+$1,$4,$5*
1,1,$1+$1,$6,$7*
1,1,$1+$1,$8,$9*
0 Add four rect primitives between the rounded corners*
20,1,$1+$1,$2,$3,$4,$5,0*
20,1,$1+$1,$4,$5,$6,$7,0*
20,1,$1+$1,$6,$7,$8,$9,0*
20,1,$1+$1,$8,$9,$2,$3,0*%
G04 Aperture macros list end*
%ADD10RoundRect,0.250000X0.450000X-0.350000X0.450000X0.350000X-0.450000X0.350000X-0.450000X-0.350000X0*%
%ADD11C,2.400000*%
%ADD12C,3.000000*%
%ADD13R,2.500000X4.500000*%
%ADD14O,2.500000X4.500000*%
%ADD15RoundRect,0.250001X-0.499999X-0.499999X0.499999X-0.499999X0.499999X0.499999X-0.499999X0.499999X0*%
%ADD16C,1.500000*%
%ADD17RoundRect,0.250001X0.499999X-0.499999X0.499999X0.499999X-0.499999X0.499999X-0.499999X-0.499999X0*%
%ADD18RoundRect,0.250001X-0.499999X0.499999X-0.499999X-0.499999X0.499999X-0.499999X0.499999X0.499999X0*%
%ADD19C,1.524000*%
%ADD20RoundRect,0.250000X-0.450000X0.350000X-0.450000X-0.350000X0.450000X-0.350000X0.450000X0.350000X0*%
%ADD21RoundRect,0.150000X0.150000X-0.875000X0.150000X0.875000X-0.150000X0.875000X-0.150000X-0.875000X0*%
%ADD22RoundRect,0.250000X0.475000X-0.337500X0.475000X0.337500X-0.475000X0.337500X-0.475000X-0.337500X0*%
%ADD23RoundRect,0.250000X-0.337500X-0.475000X0.337500X-0.475000X0.337500X0.475000X-0.337500X0.475000X0*%
G04 APERTURE END LIST*
D10*
%TO.C,R20*%
X187409300Y-77428600D03*
X187409300Y-75428600D03*
%TD*%
D11*
%TO.C,C1*%
X122020300Y-116728100D03*
X122020300Y-89228100D03*
%TD*%
D12*
%TO.C,H1*%
X91794300Y-121363600D03*
%TD*%
%TO.C,H2*%
X91794300Y-76278600D03*
%TD*%
%TO.C,H3*%
X222604300Y-76278600D03*
%TD*%
%TO.C,H4*%
X222604300Y-121363600D03*
%TD*%
D13*
%TO.C,Q1*%
X163041300Y-123170000D03*
D14*
X157591300Y-123170000D03*
X152141300Y-123170000D03*
%TD*%
D12*
%TO.C,J3*%
X158344300Y-63703600D03*
X153644300Y-63703600D03*
D15*
X151484300Y-68023600D03*
D16*
X154484300Y-68023600D03*
X157484300Y-68023600D03*
X160484300Y-68023600D03*
X151484300Y-71023600D03*
X154484300Y-71023600D03*
X157484300Y-71023600D03*
X160484300Y-71023600D03*
%TD*%
D12*
%TO.C,H5*%
X131164300Y-63578600D03*
%TD*%
%TO.C,H6*%
X179424300Y-63578600D03*
%TD*%
%TO.C,J1*%
X102714300Y-109423600D03*
X102714300Y-114123600D03*
D17*
X107034300Y-116283600D03*
D16*
X107034300Y-113283600D03*
X107034300Y-110283600D03*
X107034300Y-107283600D03*
X110034300Y-116283600D03*
X110034300Y-113283600D03*
X110034300Y-110283600D03*
X110034300Y-107283600D03*
%TD*%
D12*
%TO.C,J2*%
X102714300Y-89993600D03*
X102714300Y-85293600D03*
D17*
X107034300Y-92153600D03*
D16*
X107034300Y-89153600D03*
X107034300Y-86153600D03*
X107034300Y-83153600D03*
X110034300Y-92153600D03*
X110034300Y-89153600D03*
X110034300Y-86153600D03*
X110034300Y-83153600D03*
%TD*%
D12*
%TO.C,J4*%
X211684300Y-90123600D03*
X211684300Y-85423600D03*
D18*
X207364300Y-83263600D03*
D16*
X207364300Y-86263600D03*
X207364300Y-89263600D03*
X207364300Y-92263600D03*
X204364300Y-83263600D03*
X204364300Y-86263600D03*
X204364300Y-89263600D03*
X204364300Y-92263600D03*
%TD*%
D12*
%TO.C,J5*%
X211684300Y-109553600D03*
X211684300Y-114253600D03*
D18*
X207364300Y-107393600D03*
D16*
X207364300Y-110393600D03*
X207364300Y-113393600D03*
X207364300Y-116393600D03*
X204364300Y-107393600D03*
X204364300Y-110393600D03*
X204364300Y-113393600D03*
X204364300Y-116393600D03*
%TD*%
D13*
%TO.C,D1*%
X143655000Y-123170000D03*
D14*
X132755000Y-123170000D03*
%TD*%
D19*
%TO.C,D8*%
X135482300Y-73992600D03*
X135482300Y-76532600D03*
X135482300Y-81612600D03*
X135482300Y-84152600D03*
X135482300Y-86692600D03*
%TD*%
D20*
%TO.C,R13*%
X185009300Y-77478600D03*
X185009300Y-75478600D03*
%TD*%
D21*
%TO.C,D3*%
X192254300Y-91928600D03*
X190984300Y-91928600D03*
X189714300Y-91928600D03*
X188444300Y-91928600D03*
X187174300Y-91928600D03*
X185904300Y-91928600D03*
X184634300Y-91928600D03*
X183364300Y-91928600D03*
X183364300Y-82628600D03*
X184634300Y-82628600D03*
X185904300Y-82628600D03*
X187174300Y-82628600D03*
X188444300Y-82628600D03*
X189714300Y-82628600D03*
X190984300Y-82628600D03*
X192254300Y-82628600D03*
%TD*%
D22*
%TO.C,C16*%
X176609300Y-78716100D03*
X176609300Y-76641100D03*
%TD*%
D23*
%TO.C,C15*%
X187371800Y-79878600D03*
X189446800Y-79878600D03*
%TD*%
M02*
