%TF.GenerationSoftware,KiCad,Pcbnew,(6.0.1)*%
%TF.CreationDate,2023-02-17T13:15:31+03:00*%
%TF.ProjectId,_______ IGBT,14403039-3235-4402-9049-4742542e6b69,rev?*%
%TF.SameCoordinates,Original*%
%TF.FileFunction,Copper,L2,Inr*%
%TF.FilePolarity,Positive*%
%FSLAX46Y46*%
G04 Gerber Fmt 4.6, Leading zero omitted, Abs format (unit mm)*
G04 Created by KiCad (PCBNEW (6.0.1)) date 2023-02-17 13:15:31*
%MOMM*%
%LPD*%
G01*
G04 APERTURE LIST*
G04 Aperture macros list*
%AMRoundRect*
0 Rectangle with rounded corners*
0 $1 Rounding radius*
0 $2 $3 $4 $5 $6 $7 $8 $9 X,Y pos of 4 corners*
0 Add a 4 corners polygon primitive as box body*
4,1,4,$2,$3,$4,$5,$6,$7,$8,$9,$2,$3,0*
0 Add four circle primitives for the rounded corners*
1,1,$1+$1,$2,$3*
1,1,$1+$1,$4,$5*
1,1,$1+$1,$6,$7*
1,1,$1+$1,$8,$9*
0 Add four rect primitives between the rounded corners*
20,1,$1+$1,$2,$3,$4,$5,0*
20,1,$1+$1,$4,$5,$6,$7,0*
20,1,$1+$1,$6,$7,$8,$9,0*
20,1,$1+$1,$8,$9,$2,$3,0*%
G04 Aperture macros list end*
%TA.AperFunction,ComponentPad*%
%ADD10C,2.400000*%
%TD*%
%TA.AperFunction,ComponentPad*%
%ADD11R,2.500000X4.500000*%
%TD*%
%TA.AperFunction,ComponentPad*%
%ADD12O,2.500000X4.500000*%
%TD*%
%TA.AperFunction,ComponentPad*%
%ADD13RoundRect,0.250001X-0.499999X-0.499999X0.499999X-0.499999X0.499999X0.499999X-0.499999X0.499999X0*%
%TD*%
%TA.AperFunction,ComponentPad*%
%ADD14C,1.500000*%
%TD*%
%TA.AperFunction,ComponentPad*%
%ADD15RoundRect,0.250001X0.499999X-0.499999X0.499999X0.499999X-0.499999X0.499999X-0.499999X-0.499999X0*%
%TD*%
%TA.AperFunction,ComponentPad*%
%ADD16RoundRect,0.250001X-0.499999X0.499999X-0.499999X-0.499999X0.499999X-0.499999X0.499999X0.499999X0*%
%TD*%
%TA.AperFunction,ComponentPad*%
%ADD17C,1.524000*%
%TD*%
%TA.AperFunction,ViaPad*%
%ADD18C,0.800000*%
%TD*%
%TA.AperFunction,ViaPad*%
%ADD19C,2.400000*%
%TD*%
%TA.AperFunction,Conductor*%
%ADD20C,0.500000*%
%TD*%
G04 APERTURE END LIST*
D10*
%TO.N,DC+*%
%TO.C,C1*%
X122020300Y-116728100D03*
%TO.N,DC-*%
X122020300Y-89228100D03*
%TD*%
D11*
%TO.N,G_IGBT*%
%TO.C,Q1*%
X163041300Y-123170000D03*
D12*
%TO.N,D_IGBT*%
X157591300Y-123170000D03*
%TO.N,DC-*%
X152141300Y-123170000D03*
%TD*%
D13*
%TO.N,+15V*%
%TO.C,J3*%
X151484300Y-68023600D03*
D14*
%TO.N,Measure*%
X154484300Y-68023600D03*
%TO.N,IN-*%
X157484300Y-68023600D03*
%TO.N,IN+*%
X160484300Y-68023600D03*
%TO.N,GNDA*%
X151484300Y-71023600D03*
%TO.N,RST*%
X154484300Y-71023600D03*
%TO.N,FLT*%
X157484300Y-71023600D03*
%TO.N,RDY*%
X160484300Y-71023600D03*
%TD*%
D15*
%TO.N,DC+*%
%TO.C,J1*%
X107034300Y-116283600D03*
D14*
X107034300Y-113283600D03*
X107034300Y-110283600D03*
X107034300Y-107283600D03*
X110034300Y-116283600D03*
X110034300Y-113283600D03*
X110034300Y-110283600D03*
X110034300Y-107283600D03*
%TD*%
D15*
%TO.N,DC-*%
%TO.C,J2*%
X107034300Y-92153600D03*
D14*
X107034300Y-89153600D03*
X107034300Y-86153600D03*
X107034300Y-83153600D03*
X110034300Y-92153600D03*
X110034300Y-89153600D03*
X110034300Y-86153600D03*
X110034300Y-83153600D03*
%TD*%
D16*
%TO.N,OUT-*%
%TO.C,J4*%
X207364300Y-83263600D03*
D14*
X207364300Y-86263600D03*
X207364300Y-89263600D03*
X207364300Y-92263600D03*
X204364300Y-83263600D03*
X204364300Y-86263600D03*
X204364300Y-89263600D03*
X204364300Y-92263600D03*
%TD*%
D16*
%TO.N,DC+*%
%TO.C,J5*%
X207364300Y-107393600D03*
D14*
X207364300Y-110393600D03*
X207364300Y-113393600D03*
X207364300Y-116393600D03*
X204364300Y-107393600D03*
X204364300Y-110393600D03*
X204364300Y-113393600D03*
X204364300Y-116393600D03*
%TD*%
D11*
%TO.N,DC+*%
%TO.C,D1*%
X143655000Y-123170000D03*
D12*
%TO.N,D_IGBT*%
X132755000Y-123170000D03*
%TD*%
D17*
%TO.N,+15V*%
%TO.C,D8*%
X135482300Y-73992600D03*
%TO.N,GNDA*%
X135482300Y-76532600D03*
%TO.N,DC-*%
X135482300Y-81612600D03*
%TO.N,N/C*%
X135482300Y-84152600D03*
%TO.N,+15V_H*%
X135482300Y-86692600D03*
%TD*%
D18*
%TO.N,Desat*%
X170788300Y-99392600D03*
%TO.N,Net-(R12-Pad2)*%
X182409300Y-75878600D03*
%TO.N,GNDA*%
X190409300Y-74878600D03*
%TO.N,+5V*%
X191809300Y-74878600D03*
%TO.N,GNDA*%
X202209300Y-79078600D03*
%TO.N,+5V*%
X184609300Y-80878600D03*
%TO.N,GNDA*%
X190984300Y-80903600D03*
%TO.N,+15V_H*%
X172756800Y-99456100D03*
X164819300Y-93550600D03*
%TO.N,+5V*%
X149374800Y-86424600D03*
X155675300Y-80850600D03*
X176609300Y-80478600D03*
%TO.N,RDY*%
X164819300Y-78818600D03*
%TO.N,D_IGBT*%
X172409300Y-123078600D03*
%TO.N,GNDA*%
X156945300Y-79961600D03*
X168629300Y-80215600D03*
X168209300Y-71878600D03*
X176609300Y-72678600D03*
X181809300Y-69078600D03*
X141922800Y-76496100D03*
X148323300Y-83023600D03*
%TO.N,IN-*%
X166089300Y-78818600D03*
%TO.N,IN+*%
X167359300Y-78818600D03*
%TO.N,DC-*%
X162279300Y-93677600D03*
X141995800Y-82411100D03*
X170558800Y-93780100D03*
X159739300Y-93677600D03*
%TO.N,Desat*%
X159176800Y-95764100D03*
D19*
%TO.N,DC+*%
X138530300Y-116029600D03*
D18*
%TO.N,+3V3*%
X149388800Y-88788100D03*
X158596300Y-76215100D03*
%TO.N,Net-(R4-Pad2)*%
X159158800Y-97814100D03*
X177836800Y-99837100D03*
%TD*%
D20*
%TO.N,Net-(R4-Pad2)*%
X169324802Y-97814100D02*
X170014302Y-98503600D01*
X175233300Y-98503600D02*
X176503300Y-98503600D01*
X170014302Y-98503600D02*
X175233300Y-98503600D01*
X176503300Y-98503600D02*
X177836800Y-99837100D01*
X159158800Y-97814100D02*
X169324802Y-97814100D01*
%TD*%
%TA.AperFunction,Conductor*%
%TO.N,DC-*%
G36*
X142536421Y-80616602D02*
G01*
X142582914Y-80670258D01*
X142594300Y-80722600D01*
X142594300Y-83391600D01*
X142574298Y-83459721D01*
X142520642Y-83506214D01*
X142468300Y-83517600D01*
X141451300Y-83517600D01*
X141451300Y-88724600D01*
X148363215Y-88724600D01*
X148431336Y-88744602D01*
X148477829Y-88798258D01*
X148488524Y-88837428D01*
X148503126Y-88976356D01*
X148561621Y-89156384D01*
X148656267Y-89320316D01*
X148782929Y-89460988D01*
X148936070Y-89572251D01*
X149108997Y-89649244D01*
X149207012Y-89670078D01*
X149287697Y-89687228D01*
X149287701Y-89687228D01*
X149294154Y-89688600D01*
X149483446Y-89688600D01*
X149489899Y-89687228D01*
X149489903Y-89687228D01*
X149570588Y-89670078D01*
X149668603Y-89649244D01*
X149841530Y-89572251D01*
X149994671Y-89460988D01*
X150121333Y-89320316D01*
X150215979Y-89156384D01*
X150274474Y-88976356D01*
X150289075Y-88837429D01*
X150316088Y-88771773D01*
X150374309Y-88731143D01*
X150414385Y-88724600D01*
X155041300Y-88724600D01*
X155109421Y-88744602D01*
X155155914Y-88798258D01*
X155167300Y-88850600D01*
X155167300Y-92788600D01*
X164010665Y-92788600D01*
X164078786Y-92808602D01*
X164125279Y-92862258D01*
X164135383Y-92932532D01*
X164104300Y-92998911D01*
X164086767Y-93018384D01*
X163992121Y-93182316D01*
X163933626Y-93362344D01*
X163913840Y-93550600D01*
X163933626Y-93738856D01*
X163992121Y-93918884D01*
X164086767Y-94082816D01*
X164213429Y-94223488D01*
X164366570Y-94334751D01*
X164539497Y-94411744D01*
X164637512Y-94432578D01*
X164718197Y-94449728D01*
X164718201Y-94449728D01*
X164724654Y-94451100D01*
X164913946Y-94451100D01*
X164920399Y-94449728D01*
X164920403Y-94449728D01*
X165001088Y-94432578D01*
X165099103Y-94411744D01*
X165272030Y-94334751D01*
X165425171Y-94223488D01*
X165551833Y-94082816D01*
X165646479Y-93918884D01*
X165704974Y-93738856D01*
X165724760Y-93550600D01*
X165704974Y-93362344D01*
X165646479Y-93182316D01*
X165551833Y-93018384D01*
X165534300Y-92998911D01*
X165503582Y-92934904D01*
X165512345Y-92864451D01*
X165557807Y-92809919D01*
X165627935Y-92788600D01*
X171551300Y-92788600D01*
X171619421Y-92808602D01*
X171665914Y-92862258D01*
X171677300Y-92914600D01*
X171677300Y-94948600D01*
X171657298Y-95016721D01*
X171603642Y-95063214D01*
X171551300Y-95074600D01*
X159800746Y-95074600D01*
X159726685Y-95050536D01*
X159634872Y-94983830D01*
X159634871Y-94983829D01*
X159629530Y-94979949D01*
X159456603Y-94902956D01*
X159358588Y-94882122D01*
X159277903Y-94864972D01*
X159277899Y-94864972D01*
X159271446Y-94863600D01*
X159082154Y-94863600D01*
X159075701Y-94864972D01*
X159075697Y-94864972D01*
X158995012Y-94882122D01*
X158896997Y-94902956D01*
X158724070Y-94979949D01*
X158718729Y-94983829D01*
X158718728Y-94983830D01*
X158626915Y-95050536D01*
X158552854Y-95074600D01*
X137259300Y-95074600D01*
X137191179Y-95054598D01*
X137144686Y-95000942D01*
X137133300Y-94948600D01*
X137133300Y-83009600D01*
X136046393Y-83009600D01*
X135993143Y-82997795D01*
X135920732Y-82964029D01*
X135920731Y-82964029D01*
X135915750Y-82961706D01*
X135910442Y-82960284D01*
X135910440Y-82960283D01*
X135819598Y-82935942D01*
X135702368Y-82904530D01*
X135482300Y-82885277D01*
X135262232Y-82904530D01*
X135145002Y-82935942D01*
X135054160Y-82960283D01*
X135054158Y-82960284D01*
X135048850Y-82961706D01*
X135043869Y-82964028D01*
X135043868Y-82964029D01*
X134971457Y-82997795D01*
X134918207Y-83009600D01*
X134465300Y-83009600D01*
X134397179Y-82989598D01*
X134350686Y-82935942D01*
X134339300Y-82883600D01*
X134339300Y-80722600D01*
X134359302Y-80654479D01*
X134412958Y-80607986D01*
X134465300Y-80596600D01*
X142468300Y-80596600D01*
X142536421Y-80616602D01*
G37*
%TD.AperFunction*%
%TD*%
%TA.AperFunction,Conductor*%
%TO.N,GNDA*%
G36*
X178124981Y-59000100D02*
G01*
X178139257Y-59002323D01*
X178139259Y-59002323D01*
X178148129Y-59003704D01*
X178157032Y-59002540D01*
X178157033Y-59002540D01*
X178168536Y-59001036D01*
X178190077Y-59000080D01*
X178392907Y-59008469D01*
X178579745Y-59016197D01*
X178590123Y-59017057D01*
X178851144Y-59049593D01*
X179007492Y-59069082D01*
X179017756Y-59070794D01*
X179128481Y-59094011D01*
X179429402Y-59157108D01*
X179439497Y-59159664D01*
X179842618Y-59279678D01*
X179852460Y-59283056D01*
X180244312Y-59435958D01*
X180253811Y-59440125D01*
X180631683Y-59624856D01*
X180640841Y-59629812D01*
X181002153Y-59845107D01*
X181010872Y-59850803D01*
X181353175Y-60095203D01*
X181361393Y-60101599D01*
X181682357Y-60373441D01*
X181690018Y-60380495D01*
X181987405Y-60677882D01*
X181994459Y-60685543D01*
X182266301Y-61006507D01*
X182272697Y-61014725D01*
X182517097Y-61357028D01*
X182522793Y-61365747D01*
X182723812Y-61703100D01*
X182738088Y-61727059D01*
X182743043Y-61736215D01*
X182920111Y-62098411D01*
X182927771Y-62114080D01*
X182931942Y-62123588D01*
X183071545Y-62481358D01*
X183084841Y-62515432D01*
X183088222Y-62525282D01*
X183208236Y-62928403D01*
X183210792Y-62938498D01*
X183261167Y-63178746D01*
X183291386Y-63322863D01*
X183297105Y-63350140D01*
X183298819Y-63360412D01*
X183350843Y-63777777D01*
X183351703Y-63788155D01*
X183367249Y-64163995D01*
X183367516Y-64170458D01*
X183366123Y-64195051D01*
X183364196Y-64207429D01*
X183365360Y-64216331D01*
X183365360Y-64216334D01*
X183368236Y-64238325D01*
X183369300Y-64254662D01*
X183369300Y-64796066D01*
X183367554Y-64816970D01*
X183364309Y-64836258D01*
X183364158Y-64848600D01*
X183364846Y-64853409D01*
X183365163Y-64858273D01*
X183365080Y-64858278D01*
X183365478Y-64862700D01*
X183382342Y-65313373D01*
X183382606Y-65315716D01*
X183424582Y-65688263D01*
X183434416Y-65775546D01*
X183434857Y-65777876D01*
X183501257Y-66128807D01*
X183520883Y-66232535D01*
X183641259Y-66681785D01*
X183794872Y-67120783D01*
X183980860Y-67547074D01*
X183981967Y-67549168D01*
X184197084Y-67956190D01*
X184197091Y-67956202D01*
X184198186Y-67958274D01*
X184199433Y-67960258D01*
X184199439Y-67960269D01*
X184239233Y-68023600D01*
X184445633Y-68352084D01*
X184721817Y-68726300D01*
X185025195Y-69078831D01*
X185354069Y-69407705D01*
X185706600Y-69711083D01*
X186080816Y-69987267D01*
X186082809Y-69988519D01*
X186082813Y-69988522D01*
X186472631Y-70233461D01*
X186472642Y-70233467D01*
X186474626Y-70234714D01*
X186476698Y-70235809D01*
X186476710Y-70235816D01*
X186706636Y-70357335D01*
X186885826Y-70452040D01*
X187312117Y-70638028D01*
X187751115Y-70791641D01*
X187753386Y-70792249D01*
X187753394Y-70792252D01*
X188064173Y-70875524D01*
X188200365Y-70912017D01*
X188202676Y-70912454D01*
X188202688Y-70912457D01*
X188550207Y-70978211D01*
X188657354Y-70998484D01*
X188659694Y-70998748D01*
X188659703Y-70998749D01*
X188880266Y-71023600D01*
X189119527Y-71050558D01*
X189385090Y-71060495D01*
X189555366Y-71066866D01*
X189562289Y-71067574D01*
X189562309Y-71067348D01*
X189567158Y-71067783D01*
X189571958Y-71068591D01*
X189576819Y-71068650D01*
X189576825Y-71068651D01*
X189579441Y-71068683D01*
X189579447Y-71068683D01*
X189584300Y-71068742D01*
X189611316Y-71064873D01*
X189629178Y-71063600D01*
X209081300Y-71063600D01*
X209149421Y-71083602D01*
X209195914Y-71137258D01*
X209207300Y-71189600D01*
X209207300Y-81232600D01*
X209187298Y-81300721D01*
X209133642Y-81347214D01*
X209081300Y-81358600D01*
X185573604Y-81358600D01*
X185505483Y-81338598D01*
X185458990Y-81284942D01*
X185448886Y-81214668D01*
X185453771Y-81193664D01*
X185494974Y-81066856D01*
X185514760Y-80878600D01*
X185494974Y-80690344D01*
X185436479Y-80510316D01*
X185414378Y-80472035D01*
X185345136Y-80352105D01*
X185341833Y-80346384D01*
X185316622Y-80318384D01*
X185219586Y-80210615D01*
X185219584Y-80210614D01*
X185215171Y-80205712D01*
X185062030Y-80094449D01*
X184889103Y-80017456D01*
X184791088Y-79996622D01*
X184710403Y-79979472D01*
X184710399Y-79979472D01*
X184703946Y-79978100D01*
X184514654Y-79978100D01*
X184508201Y-79979472D01*
X184508197Y-79979472D01*
X184427512Y-79996622D01*
X184329497Y-80017456D01*
X184156570Y-80094449D01*
X184003429Y-80205712D01*
X183999016Y-80210614D01*
X183999014Y-80210615D01*
X183901978Y-80318384D01*
X183876767Y-80346384D01*
X183873464Y-80352105D01*
X183804223Y-80472035D01*
X183782121Y-80510316D01*
X183723626Y-80690344D01*
X183703840Y-80878600D01*
X183723626Y-81066856D01*
X183764829Y-81193664D01*
X183766857Y-81264631D01*
X183730194Y-81325429D01*
X183666482Y-81356754D01*
X183644996Y-81358600D01*
X177311687Y-81358600D01*
X177243566Y-81338598D01*
X177197073Y-81284942D01*
X177186969Y-81214668D01*
X177218051Y-81148289D01*
X177337414Y-81015724D01*
X177337415Y-81015723D01*
X177341833Y-81010816D01*
X177360237Y-80978939D01*
X177433175Y-80852607D01*
X177433176Y-80852606D01*
X177436479Y-80846884D01*
X177494974Y-80666856D01*
X177514760Y-80478600D01*
X177500348Y-80341476D01*
X177495664Y-80296907D01*
X177495664Y-80296905D01*
X177494974Y-80290344D01*
X177436479Y-80110316D01*
X177425768Y-80091763D01*
X177345136Y-79952105D01*
X177341833Y-79946384D01*
X177215171Y-79805712D01*
X177209832Y-79801833D01*
X177067372Y-79698330D01*
X177067371Y-79698329D01*
X177062030Y-79694449D01*
X176889103Y-79617456D01*
X176791088Y-79596622D01*
X176710403Y-79579472D01*
X176710399Y-79579472D01*
X176703946Y-79578100D01*
X176514654Y-79578100D01*
X176508201Y-79579472D01*
X176508197Y-79579472D01*
X176427512Y-79596622D01*
X176329497Y-79617456D01*
X176156570Y-79694449D01*
X176151229Y-79698329D01*
X176151228Y-79698330D01*
X176008768Y-79801833D01*
X176003429Y-79805712D01*
X175876767Y-79946384D01*
X175873464Y-79952105D01*
X175792833Y-80091763D01*
X175782121Y-80110316D01*
X175723626Y-80290344D01*
X175722936Y-80296905D01*
X175722936Y-80296907D01*
X175718252Y-80341476D01*
X175703840Y-80478600D01*
X175723626Y-80666856D01*
X175782121Y-80846884D01*
X175785424Y-80852606D01*
X175785425Y-80852607D01*
X175858363Y-80978939D01*
X175876767Y-81010816D01*
X175881185Y-81015723D01*
X175881186Y-81015724D01*
X176000549Y-81148289D01*
X176031266Y-81212297D01*
X176022503Y-81282750D01*
X175977040Y-81337282D01*
X175906913Y-81358600D01*
X156630507Y-81358600D01*
X156562386Y-81338598D01*
X156515893Y-81284942D01*
X156505789Y-81214668D01*
X156510674Y-81193664D01*
X156558934Y-81045134D01*
X156560974Y-81038856D01*
X156564523Y-81005095D01*
X156580070Y-80857165D01*
X156580760Y-80850600D01*
X156560974Y-80662344D01*
X156502479Y-80482316D01*
X156407833Y-80318384D01*
X156310797Y-80210615D01*
X156285586Y-80182615D01*
X156285584Y-80182614D01*
X156281171Y-80177712D01*
X156128030Y-80066449D01*
X155955103Y-79989456D01*
X155857088Y-79968622D01*
X155776403Y-79951472D01*
X155776399Y-79951472D01*
X155769946Y-79950100D01*
X155580654Y-79950100D01*
X155574201Y-79951472D01*
X155574197Y-79951472D01*
X155493512Y-79968622D01*
X155395497Y-79989456D01*
X155222570Y-80066449D01*
X155069429Y-80177712D01*
X155065016Y-80182614D01*
X155065014Y-80182615D01*
X155039803Y-80210615D01*
X154942767Y-80318384D01*
X154848121Y-80482316D01*
X154789626Y-80662344D01*
X154769840Y-80850600D01*
X154770530Y-80857165D01*
X154786078Y-81005095D01*
X154789626Y-81038856D01*
X154848121Y-81218884D01*
X154851424Y-81224606D01*
X154851425Y-81224607D01*
X154909635Y-81325429D01*
X154942767Y-81382816D01*
X154947185Y-81387723D01*
X154947186Y-81387724D01*
X155057825Y-81510600D01*
X155069429Y-81523488D01*
X155074768Y-81527367D01*
X155192082Y-81612600D01*
X155222570Y-81634751D01*
X155395497Y-81711744D01*
X155493512Y-81732578D01*
X155574197Y-81749728D01*
X155574201Y-81749728D01*
X155580654Y-81751100D01*
X155676300Y-81751100D01*
X155744421Y-81771102D01*
X155790914Y-81824758D01*
X155802300Y-81877100D01*
X155802300Y-84661600D01*
X155782298Y-84729721D01*
X155728642Y-84776214D01*
X155676300Y-84787600D01*
X145641300Y-84787600D01*
X145573179Y-84767598D01*
X145526686Y-84713942D01*
X145515300Y-84661600D01*
X145515300Y-78945600D01*
X134465300Y-78945600D01*
X134397179Y-78925598D01*
X134350686Y-78871942D01*
X134339300Y-78819600D01*
X134339300Y-78818600D01*
X163913840Y-78818600D01*
X163933626Y-79006856D01*
X163992121Y-79186884D01*
X164086767Y-79350816D01*
X164213429Y-79491488D01*
X164218768Y-79495367D01*
X164332641Y-79578100D01*
X164366570Y-79602751D01*
X164539497Y-79679744D01*
X164626938Y-79698330D01*
X164718197Y-79717728D01*
X164718201Y-79717728D01*
X164724654Y-79719100D01*
X164913946Y-79719100D01*
X164920399Y-79717728D01*
X164920403Y-79717728D01*
X165011662Y-79698330D01*
X165099103Y-79679744D01*
X165272030Y-79602751D01*
X165305960Y-79578100D01*
X165380239Y-79524133D01*
X165447107Y-79500274D01*
X165516259Y-79516355D01*
X165528361Y-79524133D01*
X165602641Y-79578100D01*
X165636570Y-79602751D01*
X165809497Y-79679744D01*
X165896938Y-79698330D01*
X165988197Y-79717728D01*
X165988201Y-79717728D01*
X165994654Y-79719100D01*
X166183946Y-79719100D01*
X166190399Y-79717728D01*
X166190403Y-79717728D01*
X166281662Y-79698330D01*
X166369103Y-79679744D01*
X166542030Y-79602751D01*
X166575960Y-79578100D01*
X166650239Y-79524133D01*
X166717107Y-79500274D01*
X166786259Y-79516355D01*
X166798361Y-79524133D01*
X166872641Y-79578100D01*
X166906570Y-79602751D01*
X167079497Y-79679744D01*
X167166938Y-79698330D01*
X167258197Y-79717728D01*
X167258201Y-79717728D01*
X167264654Y-79719100D01*
X167453946Y-79719100D01*
X167460399Y-79717728D01*
X167460403Y-79717728D01*
X167551662Y-79698330D01*
X167639103Y-79679744D01*
X167812030Y-79602751D01*
X167845960Y-79578100D01*
X167959832Y-79495367D01*
X167965171Y-79491488D01*
X168091833Y-79350816D01*
X168186479Y-79186884D01*
X168244974Y-79006856D01*
X168264760Y-78818600D01*
X168244974Y-78630344D01*
X168186479Y-78450316D01*
X168091833Y-78286384D01*
X167965171Y-78145712D01*
X167812030Y-78034449D01*
X167639103Y-77957456D01*
X167541088Y-77936622D01*
X167460403Y-77919472D01*
X167460399Y-77919472D01*
X167453946Y-77918100D01*
X167264654Y-77918100D01*
X167258201Y-77919472D01*
X167258197Y-77919472D01*
X167177512Y-77936622D01*
X167079497Y-77957456D01*
X166906570Y-78034449D01*
X166901229Y-78038329D01*
X166901228Y-78038330D01*
X166798361Y-78113067D01*
X166731493Y-78136926D01*
X166662341Y-78120845D01*
X166650239Y-78113067D01*
X166547372Y-78038330D01*
X166547371Y-78038329D01*
X166542030Y-78034449D01*
X166369103Y-77957456D01*
X166271088Y-77936622D01*
X166190403Y-77919472D01*
X166190399Y-77919472D01*
X166183946Y-77918100D01*
X165994654Y-77918100D01*
X165988201Y-77919472D01*
X165988197Y-77919472D01*
X165907512Y-77936622D01*
X165809497Y-77957456D01*
X165636570Y-78034449D01*
X165631229Y-78038329D01*
X165631228Y-78038330D01*
X165528361Y-78113067D01*
X165461493Y-78136926D01*
X165392341Y-78120845D01*
X165380239Y-78113067D01*
X165277372Y-78038330D01*
X165277371Y-78038329D01*
X165272030Y-78034449D01*
X165099103Y-77957456D01*
X165001088Y-77936622D01*
X164920403Y-77919472D01*
X164920399Y-77919472D01*
X164913946Y-77918100D01*
X164724654Y-77918100D01*
X164718201Y-77919472D01*
X164718197Y-77919472D01*
X164637512Y-77936622D01*
X164539497Y-77957456D01*
X164366570Y-78034449D01*
X164213429Y-78145712D01*
X164086767Y-78286384D01*
X163992121Y-78450316D01*
X163933626Y-78630344D01*
X163913840Y-78818600D01*
X134339300Y-78818600D01*
X134339300Y-76215100D01*
X157690840Y-76215100D01*
X157710626Y-76403356D01*
X157769121Y-76583384D01*
X157863767Y-76747316D01*
X157868185Y-76752223D01*
X157868186Y-76752224D01*
X157892386Y-76779100D01*
X157990429Y-76887988D01*
X158143570Y-76999251D01*
X158316497Y-77076244D01*
X158414512Y-77097078D01*
X158495197Y-77114228D01*
X158495201Y-77114228D01*
X158501654Y-77115600D01*
X158690946Y-77115600D01*
X158697399Y-77114228D01*
X158697403Y-77114228D01*
X158778088Y-77097078D01*
X158876103Y-77076244D01*
X159049030Y-76999251D01*
X159202171Y-76887988D01*
X159300215Y-76779100D01*
X159324414Y-76752224D01*
X159324415Y-76752223D01*
X159328833Y-76747316D01*
X159423479Y-76583384D01*
X159481974Y-76403356D01*
X159501760Y-76215100D01*
X159481974Y-76026844D01*
X159433806Y-75878600D01*
X181503840Y-75878600D01*
X181523626Y-76066856D01*
X181582121Y-76246884D01*
X181676767Y-76410816D01*
X181803429Y-76551488D01*
X181956570Y-76662751D01*
X182129497Y-76739744D01*
X182227512Y-76760578D01*
X182308197Y-76777728D01*
X182308201Y-76777728D01*
X182314654Y-76779100D01*
X182503946Y-76779100D01*
X182510399Y-76777728D01*
X182510403Y-76777728D01*
X182591088Y-76760578D01*
X182689103Y-76739744D01*
X182862030Y-76662751D01*
X183015171Y-76551488D01*
X183141833Y-76410816D01*
X183236479Y-76246884D01*
X183294974Y-76066856D01*
X183314760Y-75878600D01*
X183310818Y-75841093D01*
X183295664Y-75696907D01*
X183295664Y-75696905D01*
X183294974Y-75690344D01*
X183236479Y-75510316D01*
X183141833Y-75346384D01*
X183114450Y-75315972D01*
X183019586Y-75210615D01*
X183019584Y-75210614D01*
X183015171Y-75205712D01*
X182862030Y-75094449D01*
X182689103Y-75017456D01*
X182591088Y-74996622D01*
X182510403Y-74979472D01*
X182510399Y-74979472D01*
X182503946Y-74978100D01*
X182314654Y-74978100D01*
X182308201Y-74979472D01*
X182308197Y-74979472D01*
X182227512Y-74996622D01*
X182129497Y-75017456D01*
X181956570Y-75094449D01*
X181803429Y-75205712D01*
X181799016Y-75210614D01*
X181799014Y-75210615D01*
X181704150Y-75315972D01*
X181676767Y-75346384D01*
X181582121Y-75510316D01*
X181523626Y-75690344D01*
X181522936Y-75696905D01*
X181522936Y-75696907D01*
X181507782Y-75841093D01*
X181503840Y-75878600D01*
X159433806Y-75878600D01*
X159423479Y-75846816D01*
X159328833Y-75682884D01*
X159202171Y-75542212D01*
X159049030Y-75430949D01*
X158876103Y-75353956D01*
X158778088Y-75333122D01*
X158697403Y-75315972D01*
X158697399Y-75315972D01*
X158690946Y-75314600D01*
X158501654Y-75314600D01*
X158495201Y-75315972D01*
X158495197Y-75315972D01*
X158414512Y-75333122D01*
X158316497Y-75353956D01*
X158143570Y-75430949D01*
X157990429Y-75542212D01*
X157863767Y-75682884D01*
X157769121Y-75846816D01*
X157710626Y-76026844D01*
X157690840Y-76215100D01*
X134339300Y-76215100D01*
X134339300Y-74939236D01*
X134359302Y-74871115D01*
X134412958Y-74824622D01*
X134483232Y-74814518D01*
X134547812Y-74844012D01*
X134554395Y-74850141D01*
X134667680Y-74963426D01*
X134672188Y-74966583D01*
X134672191Y-74966585D01*
X134824359Y-75073134D01*
X134848638Y-75090134D01*
X134853620Y-75092457D01*
X134853625Y-75092460D01*
X135043868Y-75181171D01*
X135048850Y-75183494D01*
X135054158Y-75184916D01*
X135054160Y-75184917D01*
X135119552Y-75202439D01*
X135262232Y-75240670D01*
X135482300Y-75259923D01*
X135702368Y-75240670D01*
X135845048Y-75202439D01*
X135910440Y-75184917D01*
X135910442Y-75184916D01*
X135915750Y-75183494D01*
X135920732Y-75181171D01*
X136110975Y-75092460D01*
X136110980Y-75092457D01*
X136115962Y-75090134D01*
X136140241Y-75073134D01*
X136292409Y-74966585D01*
X136292412Y-74966583D01*
X136296920Y-74963426D01*
X136381746Y-74878600D01*
X190903840Y-74878600D01*
X190904530Y-74885165D01*
X190918717Y-75020145D01*
X190923626Y-75066856D01*
X190982121Y-75246884D01*
X190985424Y-75252606D01*
X190985425Y-75252607D01*
X190989649Y-75259923D01*
X191076767Y-75410816D01*
X191081185Y-75415723D01*
X191081186Y-75415724D01*
X191172017Y-75516601D01*
X191203429Y-75551488D01*
X191356570Y-75662751D01*
X191529497Y-75739744D01*
X191627512Y-75760578D01*
X191708197Y-75777728D01*
X191708201Y-75777728D01*
X191714654Y-75779100D01*
X191903946Y-75779100D01*
X191910399Y-75777728D01*
X191910403Y-75777728D01*
X191991088Y-75760578D01*
X192089103Y-75739744D01*
X192262030Y-75662751D01*
X192415171Y-75551488D01*
X192446584Y-75516601D01*
X192537414Y-75415724D01*
X192537415Y-75415723D01*
X192541833Y-75410816D01*
X192628951Y-75259923D01*
X192633175Y-75252607D01*
X192633176Y-75252606D01*
X192636479Y-75246884D01*
X192694974Y-75066856D01*
X192699884Y-75020145D01*
X192714070Y-74885165D01*
X192714760Y-74878600D01*
X192694974Y-74690344D01*
X192636479Y-74510316D01*
X192590705Y-74431032D01*
X192545136Y-74352105D01*
X192541833Y-74346384D01*
X192426218Y-74217981D01*
X192419586Y-74210615D01*
X192419584Y-74210614D01*
X192415171Y-74205712D01*
X192262030Y-74094449D01*
X192089103Y-74017456D01*
X191972164Y-73992600D01*
X191910403Y-73979472D01*
X191910399Y-73979472D01*
X191903946Y-73978100D01*
X191714654Y-73978100D01*
X191708201Y-73979472D01*
X191708197Y-73979472D01*
X191646436Y-73992600D01*
X191529497Y-74017456D01*
X191356570Y-74094449D01*
X191203429Y-74205712D01*
X191199016Y-74210614D01*
X191199014Y-74210615D01*
X191192382Y-74217981D01*
X191076767Y-74346384D01*
X191073464Y-74352105D01*
X191027896Y-74431032D01*
X190982121Y-74510316D01*
X190923626Y-74690344D01*
X190903840Y-74878600D01*
X136381746Y-74878600D01*
X136453126Y-74807220D01*
X136579834Y-74626261D01*
X136630970Y-74516601D01*
X136670871Y-74431032D01*
X136670872Y-74431031D01*
X136673194Y-74426050D01*
X136730370Y-74212668D01*
X136749623Y-73992600D01*
X136730370Y-73772532D01*
X136673194Y-73559150D01*
X136579834Y-73358939D01*
X136453126Y-73177980D01*
X136296920Y-73021774D01*
X136292412Y-73018617D01*
X136292409Y-73018615D01*
X136120471Y-72898223D01*
X136120468Y-72898221D01*
X136115962Y-72895066D01*
X136110980Y-72892743D01*
X136110975Y-72892740D01*
X135920732Y-72804029D01*
X135920731Y-72804029D01*
X135915750Y-72801706D01*
X135910442Y-72800284D01*
X135910440Y-72800283D01*
X135845048Y-72782761D01*
X135702368Y-72744530D01*
X135482300Y-72725277D01*
X135262232Y-72744530D01*
X135119552Y-72782761D01*
X135054160Y-72800283D01*
X135054158Y-72800284D01*
X135048850Y-72801706D01*
X135043869Y-72804028D01*
X135043868Y-72804029D01*
X134853620Y-72892743D01*
X134853617Y-72892745D01*
X134848639Y-72895066D01*
X134667680Y-73021774D01*
X134554395Y-73135059D01*
X134492083Y-73169085D01*
X134421268Y-73164020D01*
X134364432Y-73121473D01*
X134339621Y-73054953D01*
X134339300Y-73045964D01*
X134339300Y-71023600D01*
X153229023Y-71023600D01*
X153248093Y-71241577D01*
X153304725Y-71452930D01*
X153397198Y-71651238D01*
X153522702Y-71830477D01*
X153677423Y-71985198D01*
X153681931Y-71988355D01*
X153681934Y-71988357D01*
X153852152Y-72107545D01*
X153856661Y-72110702D01*
X153861643Y-72113025D01*
X153861648Y-72113028D01*
X154049988Y-72200852D01*
X154054970Y-72203175D01*
X154060278Y-72204597D01*
X154060280Y-72204598D01*
X154126045Y-72222220D01*
X154266323Y-72259807D01*
X154484300Y-72278877D01*
X154702277Y-72259807D01*
X154842555Y-72222220D01*
X154908320Y-72204598D01*
X154908322Y-72204597D01*
X154913630Y-72203175D01*
X154918612Y-72200852D01*
X155106952Y-72113028D01*
X155106957Y-72113025D01*
X155111939Y-72110702D01*
X155116448Y-72107545D01*
X155286666Y-71988357D01*
X155286669Y-71988355D01*
X155291177Y-71985198D01*
X155445898Y-71830477D01*
X155571402Y-71651238D01*
X155663875Y-71452930D01*
X155720507Y-71241577D01*
X155739577Y-71023600D01*
X156229023Y-71023600D01*
X156248093Y-71241577D01*
X156304725Y-71452930D01*
X156397198Y-71651238D01*
X156522702Y-71830477D01*
X156677423Y-71985198D01*
X156681931Y-71988355D01*
X156681934Y-71988357D01*
X156852152Y-72107545D01*
X156856661Y-72110702D01*
X156861643Y-72113025D01*
X156861648Y-72113028D01*
X157049988Y-72200852D01*
X157054970Y-72203175D01*
X157060278Y-72204597D01*
X157060280Y-72204598D01*
X157126045Y-72222220D01*
X157266323Y-72259807D01*
X157484300Y-72278877D01*
X157702277Y-72259807D01*
X157842555Y-72222220D01*
X157908320Y-72204598D01*
X157908322Y-72204597D01*
X157913630Y-72203175D01*
X157918612Y-72200852D01*
X158106952Y-72113028D01*
X158106957Y-72113025D01*
X158111939Y-72110702D01*
X158116448Y-72107545D01*
X158286666Y-71988357D01*
X158286669Y-71988355D01*
X158291177Y-71985198D01*
X158445898Y-71830477D01*
X158571402Y-71651238D01*
X158663875Y-71452930D01*
X158720507Y-71241577D01*
X158739577Y-71023600D01*
X159229023Y-71023600D01*
X159248093Y-71241577D01*
X159304725Y-71452930D01*
X159397198Y-71651238D01*
X159522702Y-71830477D01*
X159677423Y-71985198D01*
X159681931Y-71988355D01*
X159681934Y-71988357D01*
X159852152Y-72107545D01*
X159856661Y-72110702D01*
X159861643Y-72113025D01*
X159861648Y-72113028D01*
X160049988Y-72200852D01*
X160054970Y-72203175D01*
X160060278Y-72204597D01*
X160060280Y-72204598D01*
X160126045Y-72222220D01*
X160266323Y-72259807D01*
X160484300Y-72278877D01*
X160702277Y-72259807D01*
X160842555Y-72222220D01*
X160908320Y-72204598D01*
X160908322Y-72204597D01*
X160913630Y-72203175D01*
X160918612Y-72200852D01*
X161106952Y-72113028D01*
X161106957Y-72113025D01*
X161111939Y-72110702D01*
X161116448Y-72107545D01*
X161286666Y-71988357D01*
X161286669Y-71988355D01*
X161291177Y-71985198D01*
X161445898Y-71830477D01*
X161571402Y-71651238D01*
X161663875Y-71452930D01*
X161720507Y-71241577D01*
X161739577Y-71023600D01*
X161720507Y-70805623D01*
X161675810Y-70638811D01*
X161665298Y-70599580D01*
X161665297Y-70599578D01*
X161663875Y-70594270D01*
X161617605Y-70495044D01*
X161573725Y-70400943D01*
X161573723Y-70400940D01*
X161571402Y-70395962D01*
X161445898Y-70216723D01*
X161291177Y-70062002D01*
X161286669Y-70058845D01*
X161286666Y-70058843D01*
X161116448Y-69939655D01*
X161116445Y-69939653D01*
X161111939Y-69936498D01*
X161106957Y-69934175D01*
X161106952Y-69934172D01*
X160918612Y-69846348D01*
X160918611Y-69846347D01*
X160913630Y-69844025D01*
X160908322Y-69842603D01*
X160908320Y-69842602D01*
X160842555Y-69824980D01*
X160702277Y-69787393D01*
X160484300Y-69768323D01*
X160266323Y-69787393D01*
X160126045Y-69824980D01*
X160060280Y-69842602D01*
X160060278Y-69842603D01*
X160054970Y-69844025D01*
X160049990Y-69846347D01*
X160049988Y-69846348D01*
X159861643Y-69934175D01*
X159861640Y-69934177D01*
X159856662Y-69936498D01*
X159677423Y-70062002D01*
X159522702Y-70216723D01*
X159397198Y-70395962D01*
X159394877Y-70400940D01*
X159394875Y-70400943D01*
X159350995Y-70495044D01*
X159304725Y-70594270D01*
X159303303Y-70599578D01*
X159303302Y-70599580D01*
X159292790Y-70638811D01*
X159248093Y-70805623D01*
X159229023Y-71023600D01*
X158739577Y-71023600D01*
X158720507Y-70805623D01*
X158675810Y-70638811D01*
X158665298Y-70599580D01*
X158665297Y-70599578D01*
X158663875Y-70594270D01*
X158617605Y-70495044D01*
X158573725Y-70400943D01*
X158573723Y-70400940D01*
X158571402Y-70395962D01*
X158445898Y-70216723D01*
X158291177Y-70062002D01*
X158286669Y-70058845D01*
X158286666Y-70058843D01*
X158116448Y-69939655D01*
X158116445Y-69939653D01*
X158111939Y-69936498D01*
X158106957Y-69934175D01*
X158106952Y-69934172D01*
X157918612Y-69846348D01*
X157918611Y-69846347D01*
X157913630Y-69844025D01*
X157908322Y-69842603D01*
X157908320Y-69842602D01*
X157842555Y-69824980D01*
X157702277Y-69787393D01*
X157484300Y-69768323D01*
X157266323Y-69787393D01*
X157126045Y-69824980D01*
X157060280Y-69842602D01*
X157060278Y-69842603D01*
X157054970Y-69844025D01*
X157049990Y-69846347D01*
X157049988Y-69846348D01*
X156861643Y-69934175D01*
X156861640Y-69934177D01*
X156856662Y-69936498D01*
X156677423Y-70062002D01*
X156522702Y-70216723D01*
X156397198Y-70395962D01*
X156394877Y-70400940D01*
X156394875Y-70400943D01*
X156350995Y-70495044D01*
X156304725Y-70594270D01*
X156303303Y-70599578D01*
X156303302Y-70599580D01*
X156292790Y-70638811D01*
X156248093Y-70805623D01*
X156229023Y-71023600D01*
X155739577Y-71023600D01*
X155720507Y-70805623D01*
X155675810Y-70638811D01*
X155665298Y-70599580D01*
X155665297Y-70599578D01*
X155663875Y-70594270D01*
X155617605Y-70495044D01*
X155573725Y-70400943D01*
X155573723Y-70400940D01*
X155571402Y-70395962D01*
X155445898Y-70216723D01*
X155291177Y-70062002D01*
X155286669Y-70058845D01*
X155286666Y-70058843D01*
X155116448Y-69939655D01*
X155116445Y-69939653D01*
X155111939Y-69936498D01*
X155106957Y-69934175D01*
X155106952Y-69934172D01*
X154918612Y-69846348D01*
X154918611Y-69846347D01*
X154913630Y-69844025D01*
X154908322Y-69842603D01*
X154908320Y-69842602D01*
X154842555Y-69824980D01*
X154702277Y-69787393D01*
X154484300Y-69768323D01*
X154266323Y-69787393D01*
X154126045Y-69824980D01*
X154060280Y-69842602D01*
X154060278Y-69842603D01*
X154054970Y-69844025D01*
X154049990Y-69846347D01*
X154049988Y-69846348D01*
X153861643Y-69934175D01*
X153861640Y-69934177D01*
X153856662Y-69936498D01*
X153677423Y-70062002D01*
X153522702Y-70216723D01*
X153397198Y-70395962D01*
X153394877Y-70400940D01*
X153394875Y-70400943D01*
X153350995Y-70495044D01*
X153304725Y-70594270D01*
X153303303Y-70599578D01*
X153303302Y-70599580D01*
X153292790Y-70638811D01*
X153248093Y-70805623D01*
X153229023Y-71023600D01*
X134339300Y-71023600D01*
X134339300Y-67473735D01*
X150233800Y-67473735D01*
X150233801Y-68573464D01*
X150244659Y-68678118D01*
X150300044Y-68844128D01*
X150392134Y-68992944D01*
X150515990Y-69116584D01*
X150664966Y-69208414D01*
X150671914Y-69210719D01*
X150671915Y-69210719D01*
X150824542Y-69261344D01*
X150824544Y-69261344D01*
X150831073Y-69263510D01*
X150934435Y-69274100D01*
X151480059Y-69274100D01*
X152034164Y-69274099D01*
X152037408Y-69273762D01*
X152037416Y-69273762D01*
X152083320Y-69268999D01*
X152138818Y-69263241D01*
X152304828Y-69207856D01*
X152453644Y-69115766D01*
X152577284Y-68991910D01*
X152583824Y-68981301D01*
X152664537Y-68850359D01*
X152669114Y-68842934D01*
X152673246Y-68830477D01*
X152722044Y-68683358D01*
X152722044Y-68683356D01*
X152724210Y-68676827D01*
X152734800Y-68573465D01*
X152734799Y-68023600D01*
X153229023Y-68023600D01*
X153248093Y-68241577D01*
X153304725Y-68452930D01*
X153307047Y-68457910D01*
X153307048Y-68457912D01*
X153362448Y-68576716D01*
X153397198Y-68651238D01*
X153522702Y-68830477D01*
X153677423Y-68985198D01*
X153681931Y-68988355D01*
X153681934Y-68988357D01*
X153813532Y-69080503D01*
X153856661Y-69110702D01*
X153861643Y-69113025D01*
X153861648Y-69113028D01*
X154049988Y-69200852D01*
X154054970Y-69203175D01*
X154060278Y-69204597D01*
X154060280Y-69204598D01*
X154096948Y-69214423D01*
X154266323Y-69259807D01*
X154484300Y-69278877D01*
X154702277Y-69259807D01*
X154871652Y-69214423D01*
X154908320Y-69204598D01*
X154908322Y-69204597D01*
X154913630Y-69203175D01*
X154918612Y-69200852D01*
X155106952Y-69113028D01*
X155106957Y-69113025D01*
X155111939Y-69110702D01*
X155155068Y-69080503D01*
X155286666Y-68988357D01*
X155286669Y-68988355D01*
X155291177Y-68985198D01*
X155445898Y-68830477D01*
X155571402Y-68651238D01*
X155606153Y-68576716D01*
X155661552Y-68457912D01*
X155661553Y-68457910D01*
X155663875Y-68452930D01*
X155720507Y-68241577D01*
X155739577Y-68023600D01*
X156229023Y-68023600D01*
X156248093Y-68241577D01*
X156304725Y-68452930D01*
X156307047Y-68457910D01*
X156307048Y-68457912D01*
X156362448Y-68576716D01*
X156397198Y-68651238D01*
X156522702Y-68830477D01*
X156677423Y-68985198D01*
X156681931Y-68988355D01*
X156681934Y-68988357D01*
X156813532Y-69080503D01*
X156856661Y-69110702D01*
X156861643Y-69113025D01*
X156861648Y-69113028D01*
X157049988Y-69200852D01*
X157054970Y-69203175D01*
X157060278Y-69204597D01*
X157060280Y-69204598D01*
X157096948Y-69214423D01*
X157266323Y-69259807D01*
X157484300Y-69278877D01*
X157702277Y-69259807D01*
X157871652Y-69214423D01*
X157908320Y-69204598D01*
X157908322Y-69204597D01*
X157913630Y-69203175D01*
X157918612Y-69200852D01*
X158106952Y-69113028D01*
X158106957Y-69113025D01*
X158111939Y-69110702D01*
X158155068Y-69080503D01*
X158286666Y-68988357D01*
X158286669Y-68988355D01*
X158291177Y-68985198D01*
X158445898Y-68830477D01*
X158571402Y-68651238D01*
X158606153Y-68576716D01*
X158661552Y-68457912D01*
X158661553Y-68457910D01*
X158663875Y-68452930D01*
X158720507Y-68241577D01*
X158739577Y-68023600D01*
X159229023Y-68023600D01*
X159248093Y-68241577D01*
X159304725Y-68452930D01*
X159307047Y-68457910D01*
X159307048Y-68457912D01*
X159362448Y-68576716D01*
X159397198Y-68651238D01*
X159522702Y-68830477D01*
X159677423Y-68985198D01*
X159681931Y-68988355D01*
X159681934Y-68988357D01*
X159813532Y-69080503D01*
X159856661Y-69110702D01*
X159861643Y-69113025D01*
X159861648Y-69113028D01*
X160049988Y-69200852D01*
X160054970Y-69203175D01*
X160060278Y-69204597D01*
X160060280Y-69204598D01*
X160096948Y-69214423D01*
X160266323Y-69259807D01*
X160484300Y-69278877D01*
X160702277Y-69259807D01*
X160871652Y-69214423D01*
X160908320Y-69204598D01*
X160908322Y-69204597D01*
X160913630Y-69203175D01*
X160918612Y-69200852D01*
X161106952Y-69113028D01*
X161106957Y-69113025D01*
X161111939Y-69110702D01*
X161155068Y-69080503D01*
X161286666Y-68988357D01*
X161286669Y-68988355D01*
X161291177Y-68985198D01*
X161445898Y-68830477D01*
X161571402Y-68651238D01*
X161606153Y-68576716D01*
X161661552Y-68457912D01*
X161661553Y-68457910D01*
X161663875Y-68452930D01*
X161720507Y-68241577D01*
X161739577Y-68023600D01*
X161720507Y-67805623D01*
X161663875Y-67594270D01*
X161661552Y-67589288D01*
X161573725Y-67400943D01*
X161573723Y-67400940D01*
X161571402Y-67395962D01*
X161445898Y-67216723D01*
X161291177Y-67062002D01*
X161286669Y-67058845D01*
X161286666Y-67058843D01*
X161116448Y-66939655D01*
X161116445Y-66939653D01*
X161111939Y-66936498D01*
X161106957Y-66934175D01*
X161106952Y-66934172D01*
X160918612Y-66846348D01*
X160918611Y-66846347D01*
X160913630Y-66844025D01*
X160908322Y-66842603D01*
X160908320Y-66842602D01*
X160842555Y-66824980D01*
X160702277Y-66787393D01*
X160484300Y-66768323D01*
X160266323Y-66787393D01*
X160126045Y-66824980D01*
X160060280Y-66842602D01*
X160060278Y-66842603D01*
X160054970Y-66844025D01*
X160049990Y-66846347D01*
X160049988Y-66846348D01*
X159861643Y-66934175D01*
X159861640Y-66934177D01*
X159856662Y-66936498D01*
X159677423Y-67062002D01*
X159522702Y-67216723D01*
X159397198Y-67395962D01*
X159394877Y-67400940D01*
X159394875Y-67400943D01*
X159307048Y-67589288D01*
X159304725Y-67594270D01*
X159248093Y-67805623D01*
X159229023Y-68023600D01*
X158739577Y-68023600D01*
X158720507Y-67805623D01*
X158663875Y-67594270D01*
X158661552Y-67589288D01*
X158573725Y-67400943D01*
X158573723Y-67400940D01*
X158571402Y-67395962D01*
X158445898Y-67216723D01*
X158291177Y-67062002D01*
X158286669Y-67058845D01*
X158286666Y-67058843D01*
X158116448Y-66939655D01*
X158116445Y-66939653D01*
X158111939Y-66936498D01*
X158106957Y-66934175D01*
X158106952Y-66934172D01*
X157918612Y-66846348D01*
X157918611Y-66846347D01*
X157913630Y-66844025D01*
X157908322Y-66842603D01*
X157908320Y-66842602D01*
X157842555Y-66824980D01*
X157702277Y-66787393D01*
X157484300Y-66768323D01*
X157266323Y-66787393D01*
X157126045Y-66824980D01*
X157060280Y-66842602D01*
X157060278Y-66842603D01*
X157054970Y-66844025D01*
X157049990Y-66846347D01*
X157049988Y-66846348D01*
X156861643Y-66934175D01*
X156861640Y-66934177D01*
X156856662Y-66936498D01*
X156677423Y-67062002D01*
X156522702Y-67216723D01*
X156397198Y-67395962D01*
X156394877Y-67400940D01*
X156394875Y-67400943D01*
X156307048Y-67589288D01*
X156304725Y-67594270D01*
X156248093Y-67805623D01*
X156229023Y-68023600D01*
X155739577Y-68023600D01*
X155720507Y-67805623D01*
X155663875Y-67594270D01*
X155661552Y-67589288D01*
X155573725Y-67400943D01*
X155573723Y-67400940D01*
X155571402Y-67395962D01*
X155445898Y-67216723D01*
X155291177Y-67062002D01*
X155286669Y-67058845D01*
X155286666Y-67058843D01*
X155116448Y-66939655D01*
X155116445Y-66939653D01*
X155111939Y-66936498D01*
X155106957Y-66934175D01*
X155106952Y-66934172D01*
X154918612Y-66846348D01*
X154918611Y-66846347D01*
X154913630Y-66844025D01*
X154908322Y-66842603D01*
X154908320Y-66842602D01*
X154842555Y-66824980D01*
X154702277Y-66787393D01*
X154484300Y-66768323D01*
X154266323Y-66787393D01*
X154126045Y-66824980D01*
X154060280Y-66842602D01*
X154060278Y-66842603D01*
X154054970Y-66844025D01*
X154049990Y-66846347D01*
X154049988Y-66846348D01*
X153861643Y-66934175D01*
X153861640Y-66934177D01*
X153856662Y-66936498D01*
X153677423Y-67062002D01*
X153522702Y-67216723D01*
X153397198Y-67395962D01*
X153394877Y-67400940D01*
X153394875Y-67400943D01*
X153307048Y-67589288D01*
X153304725Y-67594270D01*
X153248093Y-67805623D01*
X153229023Y-68023600D01*
X152734799Y-68023600D01*
X152734799Y-67473736D01*
X152723941Y-67369082D01*
X152668556Y-67203072D01*
X152576466Y-67054256D01*
X152452610Y-66930616D01*
X152303634Y-66838786D01*
X152296685Y-66836481D01*
X152144058Y-66785856D01*
X152144056Y-66785856D01*
X152137527Y-66783690D01*
X152034165Y-66773100D01*
X151488541Y-66773100D01*
X150934436Y-66773101D01*
X150931192Y-66773438D01*
X150931184Y-66773438D01*
X150885280Y-66778201D01*
X150829782Y-66783959D01*
X150663772Y-66839344D01*
X150514956Y-66931434D01*
X150391316Y-67055290D01*
X150387476Y-67061520D01*
X150387475Y-67061521D01*
X150368231Y-67092741D01*
X150299486Y-67204266D01*
X150297181Y-67211214D01*
X150297181Y-67211215D01*
X150293858Y-67221235D01*
X150244390Y-67370373D01*
X150233800Y-67473735D01*
X134339300Y-67473735D01*
X134339300Y-63672097D01*
X151638937Y-63672097D01*
X151639181Y-63676532D01*
X151639181Y-63676536D01*
X151651059Y-63892347D01*
X151654505Y-63954970D01*
X151681932Y-64092857D01*
X151708405Y-64225942D01*
X151709774Y-64232826D01*
X151711250Y-64237029D01*
X151800415Y-64490934D01*
X151803642Y-64500124D01*
X151805695Y-64504077D01*
X151805698Y-64504083D01*
X151867251Y-64622577D01*
X151934236Y-64751528D01*
X151936819Y-64755143D01*
X151936823Y-64755149D01*
X151991357Y-64831461D01*
X152098951Y-64982024D01*
X152102029Y-64985251D01*
X152102031Y-64985253D01*
X152215003Y-65103678D01*
X152294499Y-65187012D01*
X152516980Y-65362401D01*
X152589297Y-65404406D01*
X152758107Y-65502459D01*
X152758113Y-65502462D01*
X152761954Y-65504693D01*
X153024532Y-65611048D01*
X153028845Y-65612119D01*
X153028850Y-65612121D01*
X153295156Y-65678272D01*
X153295161Y-65678273D01*
X153299477Y-65679345D01*
X153303905Y-65679799D01*
X153303907Y-65679799D01*
X153379607Y-65687555D01*
X153541090Y-65704100D01*
X153716470Y-65704100D01*
X153926893Y-65689201D01*
X153931248Y-65688263D01*
X153931251Y-65688263D01*
X154199500Y-65630511D01*
X154199502Y-65630511D01*
X154203847Y-65629575D01*
X154469637Y-65531520D01*
X154718960Y-65396993D01*
X154946840Y-65228678D01*
X155148730Y-65029934D01*
X155151431Y-65026394D01*
X155151437Y-65026388D01*
X155317902Y-64808267D01*
X155317905Y-64808263D01*
X155320604Y-64804726D01*
X155392782Y-64675842D01*
X155456852Y-64561437D01*
X155456855Y-64561432D01*
X155459030Y-64557547D01*
X155481246Y-64500124D01*
X155559641Y-64297485D01*
X155559643Y-64297479D01*
X155561248Y-64293330D01*
X155625218Y-64017347D01*
X155649663Y-63735103D01*
X155646440Y-63676536D01*
X155646196Y-63672097D01*
X156338937Y-63672097D01*
X156339181Y-63676532D01*
X156339181Y-63676536D01*
X156351059Y-63892347D01*
X156354505Y-63954970D01*
X156381932Y-64092857D01*
X156408405Y-64225942D01*
X156409774Y-64232826D01*
X156411250Y-64237029D01*
X156500415Y-64490934D01*
X156503642Y-64500124D01*
X156505695Y-64504077D01*
X156505698Y-64504083D01*
X156567251Y-64622577D01*
X156634236Y-64751528D01*
X156636819Y-64755143D01*
X156636823Y-64755149D01*
X156691357Y-64831461D01*
X156798951Y-64982024D01*
X156802029Y-64985251D01*
X156802031Y-64985253D01*
X156915003Y-65103678D01*
X156994499Y-65187012D01*
X157216980Y-65362401D01*
X157289297Y-65404406D01*
X157458107Y-65502459D01*
X157458113Y-65502462D01*
X157461954Y-65504693D01*
X157724532Y-65611048D01*
X157728845Y-65612119D01*
X157728850Y-65612121D01*
X157995156Y-65678272D01*
X157995161Y-65678273D01*
X157999477Y-65679345D01*
X158003905Y-65679799D01*
X158003907Y-65679799D01*
X158079607Y-65687555D01*
X158241090Y-65704100D01*
X158416470Y-65704100D01*
X158626893Y-65689201D01*
X158631248Y-65688263D01*
X158631251Y-65688263D01*
X158899500Y-65630511D01*
X158899502Y-65630511D01*
X158903847Y-65629575D01*
X159169637Y-65531520D01*
X159418960Y-65396993D01*
X159646840Y-65228678D01*
X159848730Y-65029934D01*
X159851431Y-65026394D01*
X159851437Y-65026388D01*
X160017902Y-64808267D01*
X160017905Y-64808263D01*
X160020604Y-64804726D01*
X160092782Y-64675842D01*
X160156852Y-64561437D01*
X160156855Y-64561432D01*
X160159030Y-64557547D01*
X160181246Y-64500124D01*
X160259641Y-64297485D01*
X160259643Y-64297479D01*
X160261248Y-64293330D01*
X160325218Y-64017347D01*
X160349663Y-63735103D01*
X160346440Y-63676536D01*
X160339316Y-63547097D01*
X177418937Y-63547097D01*
X177419181Y-63551532D01*
X177419181Y-63551536D01*
X177432204Y-63788155D01*
X177434505Y-63829970D01*
X177458485Y-63950527D01*
X177471777Y-64017347D01*
X177489774Y-64107826D01*
X177491250Y-64112029D01*
X177578784Y-64361289D01*
X177583642Y-64375124D01*
X177585695Y-64379077D01*
X177585698Y-64379083D01*
X177646388Y-64495916D01*
X177714236Y-64626528D01*
X177716819Y-64630143D01*
X177716823Y-64630149D01*
X177746843Y-64672157D01*
X177878951Y-64857024D01*
X177882029Y-64860251D01*
X177882031Y-64860253D01*
X178040516Y-65026388D01*
X178074499Y-65062012D01*
X178296980Y-65237401D01*
X178369030Y-65279251D01*
X178538107Y-65377459D01*
X178538113Y-65377462D01*
X178541954Y-65379693D01*
X178804532Y-65486048D01*
X178808845Y-65487119D01*
X178808850Y-65487121D01*
X179075156Y-65553272D01*
X179075161Y-65553273D01*
X179079477Y-65554345D01*
X179083905Y-65554799D01*
X179083907Y-65554799D01*
X179159607Y-65562555D01*
X179321090Y-65579100D01*
X179496470Y-65579100D01*
X179706893Y-65564201D01*
X179711248Y-65563263D01*
X179711251Y-65563263D01*
X179979500Y-65505511D01*
X179979502Y-65505511D01*
X179983847Y-65504575D01*
X180249637Y-65406520D01*
X180422269Y-65313373D01*
X180495044Y-65274106D01*
X180498960Y-65271993D01*
X180726840Y-65103678D01*
X180805354Y-65026388D01*
X180925549Y-64908065D01*
X180928730Y-64904934D01*
X180931431Y-64901394D01*
X180931437Y-64901388D01*
X181097902Y-64683267D01*
X181097905Y-64683263D01*
X181100604Y-64679726D01*
X181169027Y-64557547D01*
X181236852Y-64436437D01*
X181236855Y-64436432D01*
X181239030Y-64432547D01*
X181261246Y-64375124D01*
X181339641Y-64172485D01*
X181339643Y-64172479D01*
X181341248Y-64168330D01*
X181405218Y-63892347D01*
X181429663Y-63610103D01*
X181426440Y-63551536D01*
X181414340Y-63331673D01*
X181414339Y-63331666D01*
X181414095Y-63327230D01*
X181382854Y-63170171D01*
X181359696Y-63053746D01*
X181359695Y-63053741D01*
X181358826Y-63049374D01*
X181337579Y-62988870D01*
X181266436Y-62786284D01*
X181266435Y-62786281D01*
X181264958Y-62782076D01*
X181262905Y-62778123D01*
X181262902Y-62778117D01*
X181136416Y-62534623D01*
X181134364Y-62530672D01*
X181131781Y-62527057D01*
X181131777Y-62527051D01*
X181027272Y-62380812D01*
X180969649Y-62300176D01*
X180927328Y-62255812D01*
X180777176Y-62098411D01*
X180777173Y-62098408D01*
X180774101Y-62095188D01*
X180551620Y-61919799D01*
X180338746Y-61796152D01*
X180310493Y-61779741D01*
X180310487Y-61779738D01*
X180306646Y-61777507D01*
X180044068Y-61671152D01*
X180039755Y-61670081D01*
X180039750Y-61670079D01*
X179773444Y-61603928D01*
X179773439Y-61603927D01*
X179769123Y-61602855D01*
X179764695Y-61602401D01*
X179764693Y-61602401D01*
X179669852Y-61592684D01*
X179527510Y-61578100D01*
X179352130Y-61578100D01*
X179141707Y-61592999D01*
X179137352Y-61593937D01*
X179137349Y-61593937D01*
X178869100Y-61651689D01*
X178869098Y-61651689D01*
X178864753Y-61652625D01*
X178598963Y-61750680D01*
X178349640Y-61885207D01*
X178121760Y-62053522D01*
X177919870Y-62252266D01*
X177917169Y-62255806D01*
X177917163Y-62255812D01*
X177750698Y-62473933D01*
X177747996Y-62477474D01*
X177745821Y-62481358D01*
X177650229Y-62652051D01*
X177609570Y-62724653D01*
X177607962Y-62728811D01*
X177607959Y-62728816D01*
X177530745Y-62928403D01*
X177507352Y-62988870D01*
X177443382Y-63264853D01*
X177418937Y-63547097D01*
X160339316Y-63547097D01*
X160334340Y-63456673D01*
X160334339Y-63456666D01*
X160334095Y-63452230D01*
X160297706Y-63269292D01*
X160279696Y-63178746D01*
X160279695Y-63178741D01*
X160278826Y-63174374D01*
X160257579Y-63113870D01*
X160186436Y-62911284D01*
X160186435Y-62911281D01*
X160184958Y-62907076D01*
X160182905Y-62903123D01*
X160182902Y-62903117D01*
X160056416Y-62659623D01*
X160054364Y-62655672D01*
X160051781Y-62652057D01*
X160051777Y-62652051D01*
X159929797Y-62481358D01*
X159889649Y-62425176D01*
X159847328Y-62380812D01*
X159697176Y-62223411D01*
X159697173Y-62223408D01*
X159694101Y-62220188D01*
X159471620Y-62044799D01*
X159293635Y-61941417D01*
X159230493Y-61904741D01*
X159230487Y-61904738D01*
X159226646Y-61902507D01*
X158964068Y-61796152D01*
X158959755Y-61795081D01*
X158959750Y-61795079D01*
X158693444Y-61728928D01*
X158693439Y-61728927D01*
X158689123Y-61727855D01*
X158684695Y-61727401D01*
X158684693Y-61727401D01*
X158589852Y-61717684D01*
X158447510Y-61703100D01*
X158272130Y-61703100D01*
X158061707Y-61717999D01*
X158057352Y-61718937D01*
X158057349Y-61718937D01*
X157789100Y-61776689D01*
X157789098Y-61776689D01*
X157784753Y-61777625D01*
X157518963Y-61875680D01*
X157269640Y-62010207D01*
X157041760Y-62178522D01*
X157038581Y-62181651D01*
X157038578Y-62181654D01*
X156942613Y-62276124D01*
X156839870Y-62377266D01*
X156837169Y-62380806D01*
X156837163Y-62380812D01*
X156719778Y-62534623D01*
X156667996Y-62602474D01*
X156665821Y-62606358D01*
X156540764Y-62829665D01*
X156529570Y-62849653D01*
X156527962Y-62853811D01*
X156527959Y-62853816D01*
X156450612Y-63053746D01*
X156427352Y-63113870D01*
X156363382Y-63389853D01*
X156338937Y-63672097D01*
X155646196Y-63672097D01*
X155634340Y-63456673D01*
X155634339Y-63456666D01*
X155634095Y-63452230D01*
X155597706Y-63269292D01*
X155579696Y-63178746D01*
X155579695Y-63178741D01*
X155578826Y-63174374D01*
X155557579Y-63113870D01*
X155486436Y-62911284D01*
X155486435Y-62911281D01*
X155484958Y-62907076D01*
X155482905Y-62903123D01*
X155482902Y-62903117D01*
X155356416Y-62659623D01*
X155354364Y-62655672D01*
X155351781Y-62652057D01*
X155351777Y-62652051D01*
X155229797Y-62481358D01*
X155189649Y-62425176D01*
X155147328Y-62380812D01*
X154997176Y-62223411D01*
X154997173Y-62223408D01*
X154994101Y-62220188D01*
X154771620Y-62044799D01*
X154593635Y-61941417D01*
X154530493Y-61904741D01*
X154530487Y-61904738D01*
X154526646Y-61902507D01*
X154264068Y-61796152D01*
X154259755Y-61795081D01*
X154259750Y-61795079D01*
X153993444Y-61728928D01*
X153993439Y-61728927D01*
X153989123Y-61727855D01*
X153984695Y-61727401D01*
X153984693Y-61727401D01*
X153889852Y-61717684D01*
X153747510Y-61703100D01*
X153572130Y-61703100D01*
X153361707Y-61717999D01*
X153357352Y-61718937D01*
X153357349Y-61718937D01*
X153089100Y-61776689D01*
X153089098Y-61776689D01*
X153084753Y-61777625D01*
X152818963Y-61875680D01*
X152569640Y-62010207D01*
X152341760Y-62178522D01*
X152338581Y-62181651D01*
X152338578Y-62181654D01*
X152242613Y-62276124D01*
X152139870Y-62377266D01*
X152137169Y-62380806D01*
X152137163Y-62380812D01*
X152019778Y-62534623D01*
X151967996Y-62602474D01*
X151965821Y-62606358D01*
X151840764Y-62829665D01*
X151829570Y-62849653D01*
X151827962Y-62853811D01*
X151827959Y-62853816D01*
X151750612Y-63053746D01*
X151727352Y-63113870D01*
X151663382Y-63389853D01*
X151638937Y-63672097D01*
X134339300Y-63672097D01*
X134339300Y-59124600D01*
X134359302Y-59056479D01*
X134412958Y-59009986D01*
X134465300Y-58998600D01*
X178105597Y-58998600D01*
X178124981Y-59000100D01*
G37*
%TD.AperFunction*%
%TD*%
%TA.AperFunction,Conductor*%
%TO.N,D_IGBT*%
G36*
X180491010Y-89626489D02*
G01*
X180685642Y-89714085D01*
X180985942Y-89807663D01*
X181295332Y-89864360D01*
X181299124Y-89864589D01*
X181299129Y-89864590D01*
X181351494Y-89867757D01*
X181424410Y-89872168D01*
X181433564Y-89873059D01*
X181480200Y-89879323D01*
X181480210Y-89879324D01*
X181483398Y-89879752D01*
X181486607Y-89879853D01*
X181486609Y-89879853D01*
X181606078Y-89883608D01*
X181606083Y-89883608D01*
X181609300Y-89883709D01*
X181612520Y-89883481D01*
X181612521Y-89883481D01*
X181677007Y-89878915D01*
X181685906Y-89878600D01*
X187299300Y-89878600D01*
X187367421Y-89898602D01*
X187413914Y-89952258D01*
X187425300Y-90004600D01*
X187425300Y-124952600D01*
X187405298Y-125020721D01*
X187351642Y-125067214D01*
X187299300Y-125078600D01*
X166417800Y-125078600D01*
X166349679Y-125058598D01*
X166303186Y-125004942D01*
X166291800Y-124952600D01*
X166291800Y-120789950D01*
X166290727Y-120762642D01*
X166266999Y-120604813D01*
X166249271Y-120486898D01*
X166249270Y-120486894D01*
X166248608Y-120482490D01*
X166244585Y-120469036D01*
X166168712Y-120215334D01*
X166167436Y-120211067D01*
X166048829Y-119953790D01*
X165895156Y-119715791D01*
X165709480Y-119501820D01*
X165495509Y-119316144D01*
X165257510Y-119162471D01*
X165178668Y-119126124D01*
X165004277Y-119045728D01*
X165004273Y-119045727D01*
X165000233Y-119043864D01*
X164907583Y-119016156D01*
X164733084Y-118963970D01*
X164733082Y-118963969D01*
X164728810Y-118962692D01*
X164724406Y-118962030D01*
X164724402Y-118962029D01*
X164452079Y-118921087D01*
X164452073Y-118921086D01*
X164448658Y-118920573D01*
X164445201Y-118920437D01*
X164445199Y-118920437D01*
X164439137Y-118920199D01*
X164421350Y-118919500D01*
X161661250Y-118919500D01*
X161643463Y-118920199D01*
X161637401Y-118920437D01*
X161637399Y-118920437D01*
X161633942Y-118920573D01*
X161630527Y-118921086D01*
X161630521Y-118921087D01*
X161358198Y-118962029D01*
X161358194Y-118962030D01*
X161353790Y-118962692D01*
X161349518Y-118963969D01*
X161349516Y-118963970D01*
X161175017Y-119016156D01*
X161082367Y-119043864D01*
X161078327Y-119045727D01*
X161078323Y-119045728D01*
X160903932Y-119126124D01*
X160825090Y-119162471D01*
X160587091Y-119316144D01*
X160373120Y-119501820D01*
X160187444Y-119715791D01*
X160033771Y-119953790D01*
X159915164Y-120211067D01*
X159913888Y-120215334D01*
X159838016Y-120469036D01*
X159833992Y-120482490D01*
X159833330Y-120486894D01*
X159833329Y-120486898D01*
X159815602Y-120604813D01*
X159791873Y-120762642D01*
X159790800Y-120789950D01*
X159790800Y-124952600D01*
X159770798Y-125020721D01*
X159717142Y-125067214D01*
X159664800Y-125078600D01*
X155425943Y-125078600D01*
X155357822Y-125058598D01*
X155311329Y-125004942D01*
X155301225Y-124934668D01*
X155303197Y-124924149D01*
X155304530Y-124918399D01*
X155348267Y-124729705D01*
X155348671Y-124726288D01*
X155348673Y-124726279D01*
X155389999Y-124377115D01*
X155389999Y-124377114D01*
X155390319Y-124374411D01*
X155391800Y-124327286D01*
X155391800Y-122080183D01*
X155388032Y-122011705D01*
X155377273Y-121816225D01*
X155377083Y-121812766D01*
X155376515Y-121809354D01*
X155376514Y-121809344D01*
X155318911Y-121463273D01*
X155318341Y-121459847D01*
X155221227Y-121115505D01*
X155086913Y-120783900D01*
X154926659Y-120486898D01*
X154918667Y-120472086D01*
X154918664Y-120472082D01*
X154917021Y-120469036D01*
X154915052Y-120466187D01*
X154715569Y-120177557D01*
X154715565Y-120177551D01*
X154713605Y-120174716D01*
X154479119Y-119904496D01*
X154216397Y-119661638D01*
X154138470Y-119604081D01*
X153931406Y-119451140D01*
X153931398Y-119451135D01*
X153928612Y-119449077D01*
X153619240Y-119269379D01*
X153292017Y-119124715D01*
X152950896Y-119016833D01*
X152947503Y-119016158D01*
X152947495Y-119016156D01*
X152603389Y-118947709D01*
X152603390Y-118947709D01*
X152599996Y-118947034D01*
X152596555Y-118946736D01*
X152596548Y-118946735D01*
X152247012Y-118916462D01*
X152247006Y-118916462D01*
X152243556Y-118916163D01*
X152090551Y-118919769D01*
X151889345Y-118924510D01*
X151889338Y-118924511D01*
X151885881Y-118924592D01*
X151531291Y-118972220D01*
X151527927Y-118973056D01*
X151527925Y-118973056D01*
X151187436Y-119057633D01*
X151187429Y-119057635D01*
X151184068Y-119058470D01*
X151180815Y-119059670D01*
X151180812Y-119059671D01*
X150966094Y-119138885D01*
X150848408Y-119182302D01*
X150744310Y-119234317D01*
X150531456Y-119340674D01*
X150531449Y-119340678D01*
X150528363Y-119342220D01*
X150227799Y-119536291D01*
X150110002Y-119632193D01*
X149953029Y-119759988D01*
X149953022Y-119759995D01*
X149950346Y-119762173D01*
X149699356Y-120017137D01*
X149477860Y-120298103D01*
X149288534Y-120601678D01*
X149287033Y-120604804D01*
X149287028Y-120604813D01*
X149212883Y-120759221D01*
X149133663Y-120924196D01*
X149132515Y-120927465D01*
X149067609Y-121112291D01*
X149015119Y-121261760D01*
X148934333Y-121610295D01*
X148933929Y-121613712D01*
X148933927Y-121613721D01*
X148910774Y-121809344D01*
X148892281Y-121965589D01*
X148890800Y-122012714D01*
X148890800Y-124259817D01*
X148890895Y-124261536D01*
X148890895Y-124261551D01*
X148897255Y-124377115D01*
X148905517Y-124527234D01*
X148906085Y-124530646D01*
X148906086Y-124530656D01*
X148939777Y-124733068D01*
X148964259Y-124880153D01*
X148975046Y-124918399D01*
X148974285Y-124989392D01*
X148935263Y-125048703D01*
X148870370Y-125077502D01*
X148853776Y-125078600D01*
X147031500Y-125078600D01*
X146963379Y-125058598D01*
X146916886Y-125004942D01*
X146905500Y-124952600D01*
X146905500Y-120789950D01*
X146904427Y-120762642D01*
X146880699Y-120604813D01*
X146862971Y-120486898D01*
X146862970Y-120486894D01*
X146862308Y-120482490D01*
X146858285Y-120469036D01*
X146782412Y-120215334D01*
X146781136Y-120211067D01*
X146662529Y-119953790D01*
X146508856Y-119715791D01*
X146323180Y-119501820D01*
X146109209Y-119316144D01*
X145871210Y-119162471D01*
X145792368Y-119126124D01*
X145617977Y-119045728D01*
X145617973Y-119045727D01*
X145613933Y-119043864D01*
X145521283Y-119016156D01*
X145346784Y-118963970D01*
X145346782Y-118963969D01*
X145342510Y-118962692D01*
X145338106Y-118962030D01*
X145338102Y-118962029D01*
X145065779Y-118921087D01*
X145065773Y-118921086D01*
X145062358Y-118920573D01*
X145058901Y-118920437D01*
X145058899Y-118920437D01*
X145052837Y-118920199D01*
X145035050Y-118919500D01*
X142274950Y-118919500D01*
X142257163Y-118920199D01*
X142251101Y-118920437D01*
X142251099Y-118920437D01*
X142247642Y-118920573D01*
X142244227Y-118921086D01*
X142244221Y-118921087D01*
X141971898Y-118962029D01*
X141971894Y-118962030D01*
X141967490Y-118962692D01*
X141963218Y-118963969D01*
X141963216Y-118963970D01*
X141788717Y-119016156D01*
X141696067Y-119043864D01*
X141692027Y-119045727D01*
X141692023Y-119045728D01*
X141517632Y-119126124D01*
X141438790Y-119162471D01*
X141200791Y-119316144D01*
X140986820Y-119501820D01*
X140801144Y-119715791D01*
X140647471Y-119953790D01*
X140528864Y-120211067D01*
X140527588Y-120215334D01*
X140451716Y-120469036D01*
X140447692Y-120482490D01*
X140447030Y-120486894D01*
X140447029Y-120486898D01*
X140429302Y-120604813D01*
X140405573Y-120762642D01*
X140404500Y-120789950D01*
X140404500Y-124952600D01*
X140384498Y-125020721D01*
X140330842Y-125067214D01*
X140278500Y-125078600D01*
X130274300Y-125078600D01*
X130206179Y-125058598D01*
X130159686Y-125004942D01*
X130148300Y-124952600D01*
X130148300Y-115984844D01*
X135325069Y-115984844D01*
X135340056Y-116342406D01*
X135394806Y-116696070D01*
X135488637Y-117041427D01*
X135620380Y-117374172D01*
X135622035Y-117377284D01*
X135622037Y-117377289D01*
X135786736Y-117687043D01*
X135786742Y-117687053D01*
X135788393Y-117690158D01*
X135790385Y-117693067D01*
X135988590Y-117982540D01*
X135988595Y-117982546D01*
X135990581Y-117985447D01*
X136224425Y-118256357D01*
X136487010Y-118499513D01*
X136775063Y-118711884D01*
X136778100Y-118713638D01*
X136778104Y-118713640D01*
X136942192Y-118808376D01*
X137084993Y-118890822D01*
X137217781Y-118948836D01*
X137409716Y-119032691D01*
X137409720Y-119032692D01*
X137412937Y-119034098D01*
X137416294Y-119035137D01*
X137416299Y-119035139D01*
X137705673Y-119124715D01*
X137754809Y-119139925D01*
X137758265Y-119140584D01*
X137758264Y-119140584D01*
X138102895Y-119206326D01*
X138102900Y-119206327D01*
X138106346Y-119206984D01*
X138302445Y-119222073D01*
X138459671Y-119234171D01*
X138459672Y-119234171D01*
X138463168Y-119234440D01*
X138687262Y-119226614D01*
X138817312Y-119222073D01*
X138817316Y-119222073D01*
X138820827Y-119221950D01*
X138824308Y-119221436D01*
X139171372Y-119170187D01*
X139171378Y-119170186D01*
X139174864Y-119169671D01*
X139178268Y-119168772D01*
X139178271Y-119168771D01*
X139517476Y-119079149D01*
X139517477Y-119079149D01*
X139520867Y-119078253D01*
X139854524Y-118948836D01*
X140171675Y-118783033D01*
X140468368Y-118582911D01*
X140566361Y-118499513D01*
X140738232Y-118353239D01*
X140738233Y-118353238D01*
X140740905Y-118350964D01*
X140743300Y-118348414D01*
X140743308Y-118348406D01*
X140983477Y-118092651D01*
X140983481Y-118092646D01*
X140985888Y-118090083D01*
X140987993Y-118087269D01*
X140987999Y-118087262D01*
X141198156Y-117806339D01*
X141200265Y-117803520D01*
X141381362Y-117494847D01*
X141382794Y-117491631D01*
X141525492Y-117171128D01*
X141525494Y-117171123D01*
X141526924Y-117167911D01*
X141635135Y-116826786D01*
X141704647Y-116475725D01*
X141734593Y-116119104D01*
X141735843Y-116029600D01*
X141715866Y-115672282D01*
X141656183Y-115319417D01*
X141557539Y-114975404D01*
X141509654Y-114859227D01*
X141422501Y-114647776D01*
X141422497Y-114647768D01*
X141421163Y-114644531D01*
X141248755Y-114330921D01*
X141042463Y-114038484D01*
X140804860Y-113770865D01*
X140538905Y-113531399D01*
X140536055Y-113529358D01*
X140536048Y-113529353D01*
X140250770Y-113325114D01*
X140250767Y-113325112D01*
X140247916Y-113323071D01*
X139935518Y-113148477D01*
X139605604Y-113009794D01*
X139602235Y-113008803D01*
X139602231Y-113008801D01*
X139450653Y-112964189D01*
X139262289Y-112908751D01*
X138980808Y-112859118D01*
X138913309Y-112847216D01*
X138913307Y-112847216D01*
X138909849Y-112846606D01*
X138906340Y-112846385D01*
X138906338Y-112846385D01*
X138556197Y-112824356D01*
X138556191Y-112824356D01*
X138552679Y-112824135D01*
X138450909Y-112829112D01*
X138198737Y-112841445D01*
X138198728Y-112841446D01*
X138195230Y-112841617D01*
X138191762Y-112842179D01*
X138191759Y-112842179D01*
X137845432Y-112898272D01*
X137845429Y-112898273D01*
X137841957Y-112898835D01*
X137497263Y-112995075D01*
X137165446Y-113129138D01*
X136850641Y-113299353D01*
X136556771Y-113503598D01*
X136554129Y-113505911D01*
X136554125Y-113505914D01*
X136300658Y-113727807D01*
X136287499Y-113739327D01*
X136046182Y-114003603D01*
X135835828Y-114293131D01*
X135659057Y-114604303D01*
X135518075Y-114933240D01*
X135414637Y-115275842D01*
X135350034Y-115627839D01*
X135325069Y-115984844D01*
X130148300Y-115984844D01*
X130148300Y-101296600D01*
X130168302Y-101228479D01*
X130221958Y-101181986D01*
X130274300Y-101170600D01*
X169125093Y-101170600D01*
X169193214Y-101190602D01*
X169211345Y-101204749D01*
X169255138Y-101245874D01*
X169258340Y-101248201D01*
X169258342Y-101248202D01*
X169266204Y-101253914D01*
X169499505Y-101423416D01*
X169502974Y-101425323D01*
X169502977Y-101425325D01*
X169760727Y-101567025D01*
X169764196Y-101568932D01*
X169767865Y-101570385D01*
X169767870Y-101570387D01*
X170041368Y-101678672D01*
X170045038Y-101680125D01*
X170337602Y-101755242D01*
X170637273Y-101793100D01*
X170939327Y-101793100D01*
X171238998Y-101755242D01*
X171531562Y-101680125D01*
X171645974Y-101634826D01*
X171716675Y-101628347D01*
X171738742Y-101634826D01*
X171879041Y-101690374D01*
X172013538Y-101743625D01*
X172306102Y-101818742D01*
X172605773Y-101856600D01*
X172907827Y-101856600D01*
X173207498Y-101818742D01*
X173500062Y-101743625D01*
X173503732Y-101742172D01*
X173777230Y-101633887D01*
X173777235Y-101633885D01*
X173780904Y-101632432D01*
X173893763Y-101570387D01*
X174042123Y-101488825D01*
X174042126Y-101488823D01*
X174045595Y-101486916D01*
X174289962Y-101309374D01*
X174401375Y-101204750D01*
X174464725Y-101172699D01*
X174487628Y-101170600D01*
X175770706Y-101170600D01*
X175838827Y-101190602D01*
X175877091Y-101229086D01*
X175888792Y-101247524D01*
X175888799Y-101247533D01*
X175890915Y-101250868D01*
X176083451Y-101483604D01*
X176303638Y-101690374D01*
X176306840Y-101692701D01*
X176306842Y-101692702D01*
X176480322Y-101818742D01*
X176548005Y-101867916D01*
X176812696Y-102013432D01*
X176816365Y-102014885D01*
X176816370Y-102014887D01*
X177089868Y-102123172D01*
X177093538Y-102124625D01*
X177386102Y-102199742D01*
X177685773Y-102237600D01*
X177987827Y-102237600D01*
X178287498Y-102199742D01*
X178580062Y-102124625D01*
X178583732Y-102123172D01*
X178857230Y-102014887D01*
X178857235Y-102014885D01*
X178860904Y-102013432D01*
X179125595Y-101867916D01*
X179193278Y-101818742D01*
X179366758Y-101692702D01*
X179366760Y-101692701D01*
X179369962Y-101690374D01*
X179590149Y-101483604D01*
X179782685Y-101250868D01*
X179784801Y-101247533D01*
X179784808Y-101247524D01*
X179796509Y-101229086D01*
X179849898Y-101182287D01*
X179902894Y-101170600D01*
X180313300Y-101170600D01*
X180313300Y-89741388D01*
X180333302Y-89673267D01*
X180386958Y-89626774D01*
X180457232Y-89616670D01*
X180491010Y-89626489D01*
G37*
%TD.AperFunction*%
%TD*%
M02*
