M48
; DRILL file {KiCad (6.0.1)} date Fri Feb 17 13:15:33 2023
; FORMAT={-:-/ absolute / metric / decimal}
; #@! TF.CreationDate,2023-02-17T13:15:33+03:00
; #@! TF.GenerationSoftware,Kicad,Pcbnew,(6.0.1)
; #@! TF.FileFunction,Plated,1,4,PTH
FMAT,2
METRIC
; #@! TA.AperFunction,Plated,PTH,ViaDrill
T1C0.400
; #@! TA.AperFunction,Plated,PTH,ComponentDrill
T2C0.762
; #@! TA.AperFunction,Plated,PTH,ComponentDrill
T3C1.020
; #@! TA.AperFunction,Plated,PTH,ViaDrill
T4C1.200
; #@! TA.AperFunction,Plated,PTH,ComponentDrill
T5C1.200
; #@! TA.AperFunction,Plated,PTH,ComponentDrill
T6C1.500
%
G90
G05
T1
X141.923Y-76.496
X141.996Y-82.411
X148.323Y-83.024
X149.375Y-86.425
X149.389Y-88.788
X155.675Y-80.851
X156.945Y-79.962
X158.596Y-76.215
X159.159Y-97.814
X159.177Y-95.764
X159.739Y-93.678
X162.279Y-93.678
X164.819Y-78.819
X164.819Y-93.551
X166.089Y-78.819
X167.359Y-78.819
X168.209Y-71.879
X168.629Y-80.216
X170.559Y-93.78
X170.788Y-99.393
X172.409Y-123.079
X172.757Y-99.456
X176.609Y-72.679
X176.609Y-80.479
X177.837Y-99.837
X181.809Y-69.079
X182.409Y-75.879
X184.609Y-80.879
X190.409Y-74.879
X190.984Y-80.904
X191.809Y-74.879
X202.209Y-79.079
T2
X135.482Y-73.993
X135.482Y-76.533
X135.482Y-81.613
X135.482Y-84.153
X135.482Y-86.693
T3
X107.034Y-83.154
X107.034Y-86.154
X107.034Y-89.154
X107.034Y-92.154
X107.034Y-107.284
X107.034Y-110.284
X107.034Y-113.284
X107.034Y-116.284
X110.034Y-83.154
X110.034Y-86.154
X110.034Y-89.154
X110.034Y-92.154
X110.034Y-107.284
X110.034Y-110.284
X110.034Y-113.284
X110.034Y-116.284
X151.484Y-68.024
X151.484Y-71.024
X154.484Y-68.024
X154.484Y-71.024
X157.484Y-68.024
X157.484Y-71.024
X160.484Y-68.024
X160.484Y-71.024
X204.364Y-83.264
X204.364Y-86.264
X204.364Y-89.264
X204.364Y-92.264
X204.364Y-107.394
X204.364Y-110.394
X204.364Y-113.394
X204.364Y-116.394
X207.364Y-83.264
X207.364Y-86.264
X207.364Y-89.264
X207.364Y-92.264
X207.364Y-107.394
X207.364Y-110.394
X207.364Y-113.394
X207.364Y-116.394
T4
X138.53Y-116.03
T5
X122.02Y-89.228
X122.02Y-116.728
T6
X132.755Y-123.17
X143.655Y-123.17
X152.141Y-123.17
X157.591Y-123.17
X163.041Y-123.17
T0
M30
